<svg width="30" height="30" viewBox="0 0 30 30" fill="none" xmlns="http://www.w3.org/2000/svg">
<rect x="6.91992" y="6.93333" width="18.3468" height="9.53333" rx="1" fill="#004444"/>
<path d="M19.273 11.8194L18.497 15.0567C18.4835 15.1268 18.46 15.1682 18.4264 15.1809C18.3995 15.1936 18.3424 15.2 18.2551 15.2H17.3783C17.2909 15.2 17.2338 15.1904 17.2069 15.1713C17.1868 15.1586 17.17 15.1204 17.1565 15.0567L16.4208 11.8194H15.7758L15.0501 15.0567C15.0367 15.1204 15.0166 15.1586 14.9897 15.1713C14.9695 15.1904 14.9158 15.2 14.8284 15.2H13.9415C13.8475 15.2 13.787 15.1904 13.7601 15.1713C13.74 15.1586 13.7232 15.1204 13.7097 15.0567L12.9236 11.8194H11.7948C11.7142 11.8194 11.6605 11.8098 11.6336 11.7907C11.6067 11.7653 11.5933 11.7111 11.5933 11.6284V10.9026C11.5933 10.8198 11.6067 10.7689 11.6336 10.7498C11.6605 10.7243 11.7142 10.7116 11.7948 10.7116H12.6616L12.1375 8.43874C12.1173 8.34324 12.1173 8.27958 12.1375 8.24775C12.1644 8.21591 12.2383 8.2 12.3592 8.2H13.1655C13.2327 8.2 13.2831 8.20636 13.3167 8.2191C13.3503 8.22546 13.3738 8.26685 13.3872 8.34324L13.9214 10.7116H14.8889L15.3928 8.34324C15.4063 8.27321 15.4298 8.23183 15.4634 8.2191C15.497 8.20636 15.5507 8.2 15.6246 8.2H16.5619C16.6358 8.2 16.6896 8.20636 16.7232 8.2191C16.7568 8.23183 16.7803 8.27321 16.7937 8.34324L17.3178 10.7116H18.3055L18.8295 8.34324C18.843 8.27321 18.8631 8.23183 18.89 8.2191C18.9169 8.20636 18.9706 8.2 19.0513 8.2H19.8676C19.9751 8.2 20.0356 8.21591 20.049 8.24775C20.0692 8.27321 20.0692 8.33688 20.049 8.43874L19.5552 10.7116H20.3816C20.4757 10.7116 20.5328 10.7243 20.5529 10.7498C20.5798 10.7753 20.5933 10.8262 20.5933 10.9026V11.6284C20.5933 11.7048 20.5798 11.7557 20.5529 11.7812C20.5328 11.8066 20.4757 11.8194 20.3816 11.8194H19.273ZM15.9774 10.7116H16.2495L16.1084 9.91896L15.9774 10.7116ZM14.4253 13.2423L14.6772 11.8194H14.1733L14.4253 13.2423ZM17.8116 13.2518L18.0636 11.8194H17.5496L17.8116 13.2518Z" fill="white"/>
<rect x="7.80249" y="7.81888" width="16.5815" height="7.76222" fill="#004444"/>
<rect x="7.80249" y="7.81888" width="16.5815" height="7.76222" stroke="white" stroke-width="0.5"/>
<rect x="5.45996" y="5.46667" width="18.3468" height="9.53333" rx="1" fill="#006E6E"/>
<path d="M17.813 10.3527L17.037 13.5901C17.0236 13.6601 17 13.7015 16.9664 13.7142C16.9396 13.727 16.8825 13.7333 16.7951 13.7333H15.9183C15.8309 13.7333 15.7738 13.7238 15.747 13.7047C15.7268 13.692 15.71 13.6538 15.6966 13.5901L14.9608 10.3527H14.3158L13.5902 13.5901C13.5767 13.6538 13.5566 13.692 13.5297 13.7047C13.5096 13.7238 13.4558 13.7333 13.3685 13.7333H12.4816C12.3875 13.7333 12.327 13.7238 12.3002 13.7047C12.28 13.692 12.2632 13.6538 12.2498 13.5901L11.4636 10.3527H10.3349C10.2542 10.3527 10.2005 10.3432 10.1736 10.3241C10.1467 10.2986 10.1333 10.2445 10.1333 10.1617V9.43593C10.1333 9.35316 10.1467 9.30223 10.1736 9.28313C10.2005 9.25767 10.2542 9.24493 10.3349 9.24493H11.2016L10.6775 6.97208C10.6574 6.87658 10.6574 6.81292 10.6775 6.78109C10.7044 6.74925 10.7783 6.73334 10.8993 6.73334H11.7055C11.7727 6.73334 11.8231 6.7397 11.8567 6.75244C11.8903 6.7588 11.9138 6.80019 11.9273 6.87658L12.4614 9.24493H13.4289L13.9329 6.87658C13.9463 6.80655 13.9698 6.76517 14.0034 6.75244C14.037 6.7397 14.0907 6.73334 14.1647 6.73334H15.1019C15.1759 6.73334 15.2296 6.7397 15.2632 6.75244C15.2968 6.76517 15.3203 6.80655 15.3337 6.87658L15.8578 9.24493H16.8455L17.3696 6.87658C17.383 6.80655 17.4032 6.76517 17.4301 6.75244C17.4569 6.7397 17.5107 6.73334 17.5913 6.73334H18.4077C18.5152 6.73334 18.5756 6.74925 18.5891 6.78109C18.6092 6.80655 18.6092 6.87022 18.5891 6.97208L18.0952 9.24493H18.9217C19.0157 9.24493 19.0728 9.25767 19.093 9.28313C19.1199 9.3086 19.1333 9.35953 19.1333 9.43593V10.1617C19.1333 10.2381 19.1199 10.289 19.093 10.3145C19.0728 10.34 19.0157 10.3527 18.9217 10.3527H17.813ZM14.5174 9.24493H14.7895L14.6484 8.4523L14.5174 9.24493ZM12.9653 11.7756L13.2173 10.3527H12.7134L12.9653 11.7756ZM16.3517 11.7852L16.6036 10.3527H16.0896L16.3517 11.7852Z" fill="white"/>
<rect x="6.34277" y="6.35223" width="16.5815" height="7.76222" fill="#006E6E"/>
<rect x="6.34277" y="6.35223" width="16.5815" height="7.76222" stroke="white" stroke-width="0.5"/>
<rect x="4" y="4" width="18.3468" height="9.53333" rx="1" fill="#009999"/>
<path d="M15.2932 8.83488L14.7758 10.6848C14.7668 10.7248 14.7512 10.7485 14.7288 10.7557C14.7109 10.763 14.6728 10.7667 14.6145 10.7667H14.03C13.9718 10.7667 13.9337 10.7612 13.9158 10.7503C13.9023 10.743 13.8911 10.7212 13.8822 10.6848L13.3917 8.83488H12.9617L12.4779 10.6848C12.469 10.7212 12.4555 10.743 12.4376 10.7503C12.4242 10.7612 12.3883 10.7667 12.3301 10.7667H11.7388C11.6761 10.7667 11.6358 10.7612 11.6179 10.7503C11.6045 10.743 11.5933 10.7212 11.5843 10.6848L11.0602 8.83488H10.3077C10.254 8.83488 10.2181 8.82942 10.2002 8.8185C10.1823 8.80395 10.1733 8.77303 10.1733 8.72573V8.311C10.1733 8.26371 10.1823 8.2346 10.2002 8.22369C10.2181 8.20914 10.254 8.20186 10.3077 8.20186H10.8855L10.5362 6.90309C10.5227 6.84852 10.5227 6.81214 10.5362 6.79395C10.5541 6.77576 10.6034 6.76666 10.684 6.76666H11.2215C11.2663 6.76666 11.2999 6.7703 11.3223 6.77758C11.3447 6.78121 11.3604 6.80486 11.3693 6.84852L11.7254 8.20186H12.3704L12.7064 6.84852C12.7153 6.8085 12.731 6.78485 12.7534 6.77758C12.7758 6.7703 12.8116 6.76666 12.8609 6.76666H13.4858C13.535 6.76666 13.5709 6.7703 13.5933 6.77758C13.6157 6.78485 13.6313 6.8085 13.6403 6.84852L13.9897 8.20186H14.6481L14.9975 6.84852C15.0065 6.8085 15.0199 6.78485 15.0378 6.77758C15.0558 6.7703 15.0916 6.76666 15.1453 6.76666H15.6896C15.7612 6.76666 15.8016 6.77576 15.8105 6.79395C15.824 6.8085 15.824 6.84488 15.8105 6.90309L15.4813 8.20186H16.0322C16.095 8.20186 16.133 8.20914 16.1465 8.22369C16.1644 8.23824 16.1733 8.26734 16.1733 8.311V8.72573C16.1733 8.76939 16.1644 8.7985 16.1465 8.81305C16.133 8.8276 16.095 8.83488 16.0322 8.83488H15.2932ZM13.0961 8.20186H13.2775L13.1834 7.74893L13.0961 8.20186ZM12.0614 9.64797L12.2293 8.83488H11.8934L12.0614 9.64797ZM14.3189 9.65343L14.4869 8.83488H14.1442L14.3189 9.65343Z" fill="white"/>
<rect x="4.88281" y="4.88556" width="16.5815" height="7.76222" stroke="white" stroke-width="0.5"/>
<circle cx="20.5" cy="20.5" r="5.5" fill="white"/>
<path d="M19.7356 21.3575L18.6605 20.2824C18.5488 20.1706 18.408 20.1147 18.238 20.1147C18.0681 20.1147 17.9273 20.1706 17.8156 20.2824C17.7039 20.394 17.6486 20.5349 17.6497 20.7048C17.6507 20.8747 17.7071 21.0155 17.8188 21.1272L19.3036 22.612C19.4272 22.7348 19.5715 22.7962 19.7363 22.7962C19.9011 22.7962 20.0449 22.7348 20.1678 22.612L23.165 19.6146C23.2768 19.5029 23.3327 19.3627 23.3327 19.1939C23.3327 19.025 23.2768 18.8847 23.165 18.773C23.0534 18.6613 22.9125 18.6054 22.7426 18.6054C22.5727 18.6054 22.4319 18.6613 22.3202 18.773L19.7356 21.3575ZM20.5 26C19.7372 26 19.0214 25.8557 18.3527 25.5671C17.6839 25.2786 17.1022 24.887 16.6076 24.3924C16.113 23.8978 15.7214 23.3161 15.4329 22.6473C15.1443 21.9786 15 21.2628 15 20.5C15 19.7372 15.1443 19.0214 15.4329 18.3527C15.7214 17.6839 16.113 17.1022 16.6076 16.6076C17.1022 16.113 17.6839 15.7214 18.3527 15.4329C19.0214 15.1443 19.7372 15 20.5 15C21.2628 15 21.9786 15.1443 22.6473 15.4329C23.3161 15.7214 23.8978 16.113 24.3924 16.6076C24.887 17.1022 25.2786 17.6839 25.5671 18.3527C25.8557 19.0214 26 19.7372 26 20.5C26 21.2628 25.8557 21.9786 25.5671 22.6473C25.2786 23.3161 24.887 23.8978 24.3924 24.3924C23.8978 24.887 23.3161 25.2786 22.6473 25.5671C21.9786 25.8557 21.2628 26 20.5 26Z" fill="#224488"/>
</svg>
