<svg width="30" height="30" viewBox="0 0 30 30" fill="none" xmlns="http://www.w3.org/2000/svg">
<path d="M20 9.13477V21.7705C20 22.3874 19.7838 22.9131 19.3516 23.3477C18.9191 23.7823 18.3953 24 17.7812 24H6.21875C5.60472 24 5.08094 23.7823 4.64844 23.3477C4.21622 22.9131 4.00003 22.3874 4 21.7705V6.22949C4.00003 5.61254 4.21613 5.08693 4.64844 4.65234C5.08094 4.2177 5.60472 4.00002 6.21875 4H14.8906L20 9.13477ZM6.41016 9.16113C6.33282 9.16114 6.28575 9.17185 6.26855 9.19238C6.25569 9.21294 6.25567 9.25388 6.26855 9.31543L6.60352 10.7822H6.04883C5.99747 10.7822 5.96351 10.7903 5.94629 10.8066C5.92909 10.819 5.91992 10.8519 5.91992 10.9053V11.373C5.91992 11.4264 5.92909 11.4611 5.94629 11.4775C5.96349 11.4898 5.99743 11.4961 6.04883 11.4961H6.77148L7.27441 13.585C7.28299 13.6259 7.29378 13.6509 7.30664 13.6592C7.32383 13.6715 7.36271 13.6777 7.42285 13.6777H7.99023C8.04604 13.6777 8.0808 13.6715 8.09375 13.6592C8.11095 13.651 8.12421 13.626 8.13281 13.585L8.59668 11.4961H9.00977L9.48047 13.585C9.48906 13.626 9.49982 13.6509 9.5127 13.6592C9.52985 13.6715 9.56641 13.6777 9.62207 13.6777H10.1836C10.2393 13.6777 10.2757 13.6732 10.293 13.665C10.3145 13.6568 10.3303 13.6301 10.3389 13.585L10.835 11.4961H11.5449C11.605 11.4961 11.6414 11.4881 11.6543 11.4717C11.6715 11.4552 11.6797 11.4223 11.6797 11.373V10.9053C11.6797 10.8561 11.6714 10.8231 11.6543 10.8066C11.6414 10.7902 11.605 10.7822 11.5449 10.7822H11.0156L11.332 9.31543C11.3449 9.25003 11.3447 9.20897 11.332 9.19238C11.3234 9.17186 11.2846 9.16114 11.2158 9.16113H10.6934C10.6418 9.16113 10.607 9.16561 10.5898 9.17383C10.5727 9.18216 10.5603 9.2089 10.5518 9.25391L10.2158 10.7822H9.58398L9.24805 9.25391C9.23945 9.20872 9.22463 9.18204 9.20312 9.17383C9.18162 9.16562 9.14688 9.16113 9.09961 9.16113H8.5C8.45277 9.16114 8.41796 9.16562 8.39648 9.17383C8.37522 9.18224 8.3601 9.20904 8.35156 9.25391L8.0293 10.7822H7.41016L7.06836 9.25391C7.05981 9.20493 7.04472 9.1782 7.02344 9.17383C7.00202 9.16564 6.96952 9.16116 6.92676 9.16113H6.41016ZM10.0615 11.4961L9.89941 12.4209L9.73242 11.4961H10.0615ZM7.89355 11.4961L7.73242 12.4141L7.57129 11.4961H7.89355ZM8.90039 10.7822H8.72559L8.80957 10.2705L8.90039 10.7822ZM13.9502 8.96484C13.9502 9.27754 14.0575 9.54159 14.2715 9.75684C14.4857 9.9719 14.7484 10.08 15.0596 10.0801H17.7812L13.9502 6.22949V8.96484Z" fill="#3366FF"/>
<path d="M10.8361 11.5064L10.3404 13.5694C10.3318 13.614 10.3168 13.6404 10.2953 13.6485C10.2781 13.6566 10.2416 13.6607 10.1858 13.6607H9.62572C9.56992 13.6607 9.53344 13.6546 9.51627 13.6424C9.50339 13.6343 9.49266 13.61 9.48408 13.5694L9.01409 11.5064H8.60204L8.13849 13.5694C8.12991 13.61 8.11703 13.6343 8.09986 13.6424C8.08698 13.6546 8.05265 13.6607 7.99685 13.6607H7.43028C7.37019 13.6607 7.33156 13.6546 7.3144 13.6424C7.30152 13.6343 7.29079 13.61 7.2822 13.5694L6.78002 11.5064H6.05894C6.00743 11.5064 5.9731 11.5003 5.95593 11.4882C5.93876 11.4719 5.93018 11.4374 5.93018 11.3847V10.9222C5.93018 10.8695 5.93876 10.837 5.95593 10.8248C5.9731 10.8086 6.00743 10.8005 6.05894 10.8005H6.61263L6.27784 9.35213C6.26496 9.29128 6.26496 9.25071 6.27784 9.23042C6.29501 9.21014 6.34222 9.2 6.41948 9.2H6.93454C6.97746 9.2 7.00965 9.20405 7.03111 9.21217C7.05257 9.21622 7.0676 9.2426 7.07618 9.29128L7.41741 10.8005H8.03548L8.35739 9.29128C8.36597 9.24665 8.381 9.22028 8.40246 9.21217C8.42392 9.20405 8.45826 9.2 8.50547 9.2H9.10422C9.15144 9.2 9.18578 9.20405 9.20724 9.21217C9.2287 9.22028 9.24372 9.24665 9.2523 9.29128L9.58709 10.8005H10.218L10.5528 9.29128C10.5614 9.24665 10.5743 9.22028 10.5915 9.21217C10.6086 9.20405 10.643 9.2 10.6945 9.2H11.216C11.2846 9.2 11.3233 9.21014 11.3319 9.23042C11.3447 9.24665 11.3447 9.28722 11.3319 9.35213L11.0164 10.8005H11.5443C11.6044 10.8005 11.6409 10.8086 11.6538 10.8248C11.6709 10.8411 11.6795 10.8735 11.6795 10.9222V11.3847C11.6795 11.4334 11.6709 11.4658 11.6538 11.4821C11.6409 11.4983 11.6044 11.5064 11.5443 11.5064H10.8361ZM8.73081 10.8005H8.90464L8.8145 10.2954L8.73081 10.8005ZM7.73932 12.4132L7.90027 11.5064H7.57836L7.73932 12.4132ZM9.90257 12.4192L10.0635 11.5064H9.73517L9.90257 12.4192Z" fill="white"/>
<rect x="6.78662" y="15.6875" width="5.47556" height="0.6875" fill="white"/>
<rect x="6.78662" y="17.75" width="7.5289" height="0.6875" fill="white"/>
<rect x="6.78662" y="19.8125" width="9.58224" height="0.6875" fill="white"/>
<circle cx="20.5" cy="20.5" r="5.5" fill="white"/>
<path d="M19.7356 21.3575L18.6605 20.2824C18.5488 20.1706 18.408 20.1147 18.238 20.1147C18.0681 20.1147 17.9273 20.1706 17.8156 20.2824C17.7039 20.394 17.6486 20.5349 17.6497 20.7048C17.6507 20.8747 17.7071 21.0155 17.8188 21.1272L19.3036 22.612C19.4272 22.7348 19.5715 22.7962 19.7363 22.7962C19.9011 22.7962 20.0449 22.7348 20.1678 22.612L23.165 19.6146C23.2768 19.5029 23.3327 19.3627 23.3327 19.1939C23.3327 19.025 23.2768 18.8847 23.165 18.773C23.0534 18.6613 22.9125 18.6054 22.7426 18.6054C22.5727 18.6054 22.4319 18.6613 22.3202 18.773L19.7356 21.3575ZM20.5 26C19.7372 26 19.0214 25.8557 18.3527 25.5671C17.6839 25.2786 17.1022 24.887 16.6076 24.3924C16.113 23.8978 15.7214 23.3161 15.4329 22.6473C15.1443 21.9786 15 21.2628 15 20.5C15 19.7372 15.1443 19.0214 15.4329 18.3527C15.7214 17.6839 16.113 17.1022 16.6076 16.6076C17.1022 16.113 17.6839 15.7214 18.3527 15.4329C19.0214 15.1443 19.7372 15 20.5 15C21.2628 15 21.9786 15.1443 22.6473 15.4329C23.3161 15.7214 23.8978 16.113 24.3924 16.6076C24.887 17.1022 25.2786 17.6839 25.5671 18.3527C25.8557 19.0214 26 19.7372 26 20.5C26 21.2628 25.8557 21.9786 25.5671 22.6473C25.2786 23.3161 24.887 23.8978 24.3924 24.3924C23.8978 24.887 23.3161 25.2786 22.6473 25.5671C21.9786 25.8557 21.2628 26 20.5 26Z" fill="#224488"/>
</svg>
