<svg width="20" height="20" viewBox="0 0 20 20" fill="none" xmlns="http://www.w3.org/2000/svg">
<g clip-path="url(#clip0_936_10639)">
<rect width="20" height="20" rx="10" fill="#FF9900" fill-opacity="0.3"/>
<path d="M14.9498 12.3375H11.6498C11.4243 12.3375 11.2373 12.1505 11.2373 11.925C11.2373 11.6995 11.4243 11.5125 11.6498 11.5125H14.9498C15.1753 11.5125 15.3623 11.6995 15.3623 11.925C15.3623 12.1505 15.1753 12.3375 14.9498 12.3375Z" fill="#FF9900"/>
<path d="M14.9498 14.5375H11.6498C11.4243 14.5375 11.2373 14.3505 11.2373 14.125C11.2373 13.8995 11.4243 13.7125 11.6498 13.7125H14.9498C15.1753 13.7125 15.3623 13.8995 15.3623 14.125C15.3623 14.3505 15.1753 14.5375 14.9498 14.5375Z" fill="#FF9900"/>
<path d="M15.5002 8.086V5.589C15.5002 4.8135 15.1482 4.5 14.2737 4.5H12.0517C11.1772 4.5 10.8252 4.8135 10.8252 5.589V8.0805C10.8252 8.8615 11.1772 9.1695 12.0517 9.1695H14.2737C15.1482 9.175 15.5002 8.8615 15.5002 8.086Z" fill="#FF9900"/>
<path d="M9.175 8.086V5.589C9.175 4.8135 8.823 4.5 7.9485 4.5H5.7265C4.852 4.5 4.5 4.8135 4.5 5.589V8.0805C4.5 8.8615 4.852 9.1695 5.7265 9.1695H7.9485C8.823 9.175 9.175 8.8615 9.175 8.086Z" fill="#FF9900"/>
<path d="M9.175 14.2735V12.0515C9.175 11.177 8.823 10.825 7.9485 10.825H5.7265C4.852 10.825 4.5 11.177 4.5 12.0515V14.2735C4.5 15.148 4.852 15.5 5.7265 15.5H7.9485C8.823 15.5 9.175 15.148 9.175 14.2735Z" fill="#FF9900"/>
</g>
<defs>
<clipPath id="clip0_936_10639">
<rect width="20" height="20" fill="white"/>
</clipPath>
</defs>
</svg>
