<svg width="30" height="30" viewBox="0 0 30 30" fill="none" xmlns="http://www.w3.org/2000/svg">
<path d="M4 6.37351C4 5.06266 5.06266 4 6.37352 4H15.8676C17.1784 4 18.2411 5.06266 18.2411 6.37351V21.564C18.2411 22.8748 17.1784 23.9375 15.8676 23.9375H6.37352C5.06266 23.9375 4 22.8748 4 21.564V6.37351Z" fill="white"/>
<path d="M15.8676 22.9881V23.9375H6.37352V22.9881H15.8676ZM17.2917 21.564V6.37351C17.2917 5.587 16.6541 4.94941 15.8676 4.9494H6.37352C5.587 4.94941 4.94941 5.587 4.94941 6.37351V21.564C4.94941 22.3505 5.587 22.9881 6.37352 22.9881V23.9375C5.10355 23.9375 4.06671 22.9401 4.00325 21.6859L4 21.564V6.37351C4 5.06266 5.06266 4 6.37352 4H15.8676L15.9895 4.00325C17.2437 4.06671 18.2411 5.10355 18.2411 6.37351V21.564L18.2379 21.6859C18.1764 22.8997 17.2033 23.8728 15.9895 23.9343L15.8676 23.9375V22.9881C16.6541 22.9881 17.2917 22.3505 17.2917 21.564Z" fill="#FF9900"/>
<path d="M9.22168 6.37351C9.22168 6.11134 9.43421 5.89881 9.69638 5.89881H12.5446C12.8068 5.89881 13.0193 6.11134 13.0193 6.37351C13.0193 6.63568 12.8068 6.84822 12.5446 6.84822H9.69638C9.43421 6.84822 9.22168 6.63568 9.22168 6.37351Z" fill="#333333"/>
<path d="M12.3235 12.2557H13.3252L14.3151 14.0167H14.3566L15.3406 12.2557H16.3423L14.7775 14.886V16.3423H13.8883V14.886L12.3235 12.2557Z" fill="#FF9900"/>
<path d="M9.62382 16.3423H8.66357L10.1514 12.2557H11.2954L12.7772 16.3423H11.8229L11.5028 15.3996H9.94983L9.62382 16.3423ZM10.1751 14.7392H11.2776L10.7382 13.1757H10.7086L10.1751 14.7392Z" fill="#FF9900"/>
<path d="M5.89868 16.3423V12.2557H7.58208C8.56012 12.2557 9.1173 12.8258 9.1173 13.6329C9.1173 14.4514 8.54826 15.0102 7.55837 15.0102H6.7878V16.3423H5.89868ZM6.7878 14.3272H7.41611C7.94366 14.3272 8.19854 14.045 8.19854 13.6329C8.19854 13.2265 7.94366 12.9499 7.41611 12.9499H6.7878V14.3272Z" fill="#FF9900"/>
<circle cx="20.5" cy="20.5" r="5.5" fill="white"/>
<path d="M19.7356 21.3575L18.6605 20.2824C18.5488 20.1706 18.408 20.1147 18.238 20.1147C18.0681 20.1147 17.9273 20.1706 17.8156 20.2824C17.7039 20.394 17.6486 20.5349 17.6497 20.7048C17.6507 20.8747 17.7071 21.0155 17.8188 21.1272L19.3036 22.612C19.4272 22.7348 19.5715 22.7962 19.7363 22.7962C19.9011 22.7962 20.0449 22.7348 20.1678 22.612L23.165 19.6146C23.2768 19.5029 23.3327 19.3627 23.3327 19.1939C23.3327 19.025 23.2768 18.8847 23.165 18.773C23.0534 18.6613 22.9125 18.6054 22.7426 18.6054C22.5727 18.6054 22.4319 18.6613 22.3202 18.773L19.7356 21.3575ZM20.5 26C19.7372 26 19.0214 25.8557 18.3527 25.5671C17.6839 25.2786 17.1022 24.887 16.6076 24.3924C16.113 23.8978 15.7214 23.3161 15.4329 22.6473C15.1443 21.9786 15 21.2628 15 20.5C15 19.7372 15.1443 19.0214 15.4329 18.3527C15.7214 17.6839 16.113 17.1022 16.6076 16.6076C17.1022 16.113 17.6839 15.7214 18.3527 15.4329C19.0214 15.1443 19.7372 15 20.5 15C21.2628 15 21.9786 15.1443 22.6473 15.4329C23.3161 15.7214 23.8978 16.113 24.3924 16.6076C24.887 17.1022 25.2786 17.6839 25.5671 18.3527C25.8557 19.0214 26 19.7372 26 20.5C26 21.2628 25.8557 21.9786 25.5671 22.6473C25.2786 23.3161 24.887 23.8978 24.3924 24.3924C23.8978 24.887 23.3161 25.2786 22.6473 25.5671C21.9786 25.8557 21.2628 26 20.5 26Z" fill="#224488"/>
</svg>
