<svg width="30" height="30" viewBox="0 0 30 30" fill="none" xmlns="http://www.w3.org/2000/svg">
<circle cx="20.5" cy="20.5" r="5.5" fill="white"/>
<path d="M4 6.45536C4 5.0993 5.18147 4 6.63889 4H20.3611C21.8185 4 23 5.0993 23 6.45536V15.2946C23 16.6507 21.8185 17.75 20.3611 17.75H6.63889C5.18147 17.75 4 16.6507 4 15.2946V6.45536Z" fill="white"/>
<path d="M20.3611 16.7679V17.75H6.63889V16.7679H20.3611ZM21.9444 15.2946V6.45536C21.9444 5.64172 21.2356 4.98214 20.3611 4.98214H6.63889C5.76444 4.98214 5.05556 5.64172 5.05556 6.45536V15.2946C5.05556 16.1083 5.76444 16.7679 6.63889 16.7679V17.75C5.22694 17.75 4.07417 16.7182 4.00361 15.4208L4 15.2946V6.45536C4 5.0993 5.18147 4 6.63889 4H20.3611L20.4967 4.00336C21.8911 4.06901 23 5.1416 23 6.45536V15.2946C23 16.6084 21.8911 17.681 20.4967 17.7466L20.3611 17.75V16.7679C21.2356 16.7679 21.9444 16.1083 21.9444 15.2946Z" fill="#3366FF"/>
<path d="M23 9.40179H4V6.45536L23 6.45536V9.40179Z" fill="#3366FF"/>
<path d="M17.6059 14.4033H16.5718V11.5361H17.6181C18.5021 11.5361 19.0415 12.0747 19.0415 12.9658C19.0415 13.8647 18.5021 14.4033 17.6059 14.4033ZM17.1801 13.8925H17.5816C18.1412 13.8925 18.4332 13.6073 18.4332 12.9658C18.4332 12.3282 18.1412 12.047 17.5856 12.047H17.1801V13.8925Z" fill="#3366FF"/>
<path d="M13.948 14.4033V11.5361H15.0997C15.7689 11.5361 16.1501 11.9044 16.1501 12.4707C16.1501 12.8628 15.9655 13.1479 15.631 13.2865L16.2555 14.4033H15.5823L15.0227 13.3855H14.5563V14.4033H13.948ZM14.5563 12.9024H14.9862C15.3471 12.9024 15.5215 12.7559 15.5215 12.4707C15.5215 12.1816 15.3471 12.0232 14.9862 12.0232H14.5563V12.9024Z" fill="#3366FF"/>
<path d="M11.458 14.4033H10.801L11.8189 11.5361H12.6016L13.6155 14.4033H12.9625L12.7435 13.742H11.681L11.458 14.4033ZM11.8351 13.2786H12.5894L12.2204 12.1816H12.2001L11.8351 13.2786Z" fill="#3366FF"/>
<path d="M9.97783 12.5341C9.92916 12.2173 9.67773 12.0232 9.33708 12.0232C8.87882 12.0232 8.57872 12.3678 8.57872 12.9697C8.57872 13.5875 8.88288 13.9162 9.33302 13.9162C9.66962 13.9162 9.917 13.7341 9.97783 13.4252L10.5942 13.4291C10.5253 13.9598 10.0711 14.4429 9.32491 14.4429C8.53817 14.4429 7.95825 13.9043 7.95825 12.9697C7.95825 12.0351 8.55034 11.4965 9.32491 11.4965C10.0022 11.4965 10.5131 11.8767 10.5942 12.5341H9.97783Z" fill="#3366FF"/>
<path d="M19.7356 21.3575L18.6605 20.2824C18.5488 20.1706 18.408 20.1147 18.238 20.1147C18.0681 20.1147 17.9273 20.1706 17.8156 20.2824C17.7039 20.394 17.6486 20.5349 17.6497 20.7048C17.6507 20.8747 17.7071 21.0155 17.8188 21.1272L19.3036 22.612C19.4272 22.7348 19.5715 22.7962 19.7363 22.7962C19.9011 22.7962 20.0449 22.7348 20.1678 22.612L23.165 19.6146C23.2768 19.5029 23.3327 19.3627 23.3327 19.1939C23.3327 19.025 23.2768 18.8847 23.165 18.773C23.0534 18.6613 22.9125 18.6054 22.7426 18.6054C22.5727 18.6054 22.4319 18.6613 22.3202 18.773L19.7356 21.3575ZM20.5 26C19.7372 26 19.0214 25.8557 18.3527 25.5671C17.6839 25.2786 17.1022 24.887 16.6076 24.3924C16.113 23.8978 15.7214 23.3161 15.4329 22.6473C15.1443 21.9786 15 21.2628 15 20.5C15 19.7372 15.1443 19.0214 15.4329 18.3527C15.7214 17.6839 16.113 17.1022 16.6076 16.6076C17.1022 16.113 17.6839 15.7214 18.3527 15.4329C19.0214 15.1443 19.7372 15 20.5 15C21.2628 15 21.9786 15.1443 22.6473 15.4329C23.3161 15.7214 23.8978 16.113 24.3924 16.6076C24.887 17.1022 25.2786 17.6839 25.5671 18.3527C25.8557 19.0214 26 19.7372 26 20.5C26 21.2628 25.8557 21.9786 25.5671 22.6473C25.2786 23.3161 24.887 23.8978 24.3924 24.3924C23.8978 24.887 23.3161 25.2786 22.6473 25.5671C21.9786 25.8557 21.2628 26 20.5 26Z" fill="#224488"/>
</svg>
