<svg width="30" height="30" viewBox="0 0 30 30" fill="none" xmlns="http://www.w3.org/2000/svg">
<path d="M20 4C23.3137 4 26 5.34315 26 7V22C26 23.6569 23.3137 25 20 25C18.3473 25 16.8508 24.6655 15.7656 24.125C16.0229 23.8856 16.2615 23.6269 16.4805 23.3516C17.3832 23.7408 18.6115 24 20 24C21.5353 24 22.8762 23.6864 23.7959 23.2266C24.7749 22.7369 25 22.2456 25 22V20.6582C23.9251 21.4667 22.0872 22 20 22C19.089 22 18.2255 21.8985 17.4521 21.7168C17.5818 21.4094 17.6893 21.0907 17.7744 20.7627C18.4408 20.9116 19.1934 21 20 21C21.5353 21 22.8762 20.6864 23.7959 20.2266C24.7749 19.7369 25 19.2456 25 19V17.6582C23.9251 18.4667 22.0872 19 20 19C19.2967 19 18.6221 18.9374 17.9951 18.8262C17.9865 18.4736 17.9515 18.1279 17.8926 17.79C18.5293 17.9232 19.2409 18 20 18C21.5353 18 22.8762 17.6864 23.7959 17.2266C24.7749 16.7369 25 16.2456 25 16V14.6582C23.9251 15.4667 22.0872 16 20 16C18.9642 16 17.9899 15.8679 17.1396 15.6367C16.838 15.0872 16.4646 14.5829 16.0322 14.1357C16.0868 14.1658 16.1439 14.1965 16.2041 14.2266C17.1238 14.6864 18.4647 15 20 15C21.5353 15 22.8762 14.6864 23.7959 14.2266C24.7749 13.7369 25 13.2456 25 13V11.6582C23.9251 12.4667 22.0872 13 20 13C17.9128 13 16.0749 12.4667 15 11.6582V13C15 13.0846 15.0285 13.1973 15.1035 13.3301C14.7579 13.0795 14.3892 12.8587 14 12.6738V7C14 5.34315 16.6863 4 20 4ZM25 8.6582C23.9251 9.46669 22.0872 10 20 10C17.9128 10 16.0749 9.46669 15 8.6582V10C15 10.2456 15.2251 10.7369 16.2041 11.2266C17.1238 11.6864 18.4647 12 20 12C21.5353 12 22.8762 11.6864 23.7959 11.2266C24.7749 10.7369 25 10.2456 25 10V8.6582ZM20 5C18.4647 5 17.1238 5.3136 16.2041 5.77344C15.2251 6.26309 15 6.75444 15 7C15 7.24556 15.2251 7.73691 16.2041 8.22656C17.1238 8.6864 18.4647 9 20 9C21.5353 9 22.8762 8.6864 23.7959 8.22656C24.7749 7.73691 25 7.24556 25 7C25 6.75444 24.7749 6.26309 23.7959 5.77344C22.8762 5.3136 21.5353 5 20 5Z" fill="#224488"/>
<path d="M11 12C14.866 12 18 15.134 18 19C18 22.866 14.866 26 11 26C7.13401 26 4 22.866 4 19C4 15.134 7.13401 12 11 12ZM7.59375 16.3438L8.17188 18.7969H7.49219V19.5469H8.35156L8.92969 22H10.0703L10.6328 19.5469H11.3828L11.9375 22H13.0781L13.6562 19.5469H14.5156V18.7969H13.8359L14.4141 16.3438H13.3359L12.8359 18.7969H12.0703L11.5078 16.3438H10.5L9.9375 18.7969H9.17969L8.67188 16.3438H7.59375ZM12.6797 19.5469L12.4922 20.4375H12.4453L12.2422 19.5469H12.6797ZM9.76562 19.5469L9.5625 20.4297H9.51562L9.33594 19.5469H9.76562ZM11.0234 17.9844L11.2109 18.7969H10.8047L10.9844 17.9844H11.0234Z" fill="#224488"/>
</svg>
