<svg width="30" height="30" viewBox="0 0 30 30" fill="none" xmlns="http://www.w3.org/2000/svg">
<path fill-rule="evenodd" clip-rule="evenodd" d="M25 17.6589V19C25 19.2456 24.7749 19.7372 23.7954 20.2269C22.8758 20.6867 21.5353 21 20 21C19.1939 21 18.4415 20.9136 17.7756 20.7651C17.6906 21.0923 17.5825 21.4103 17.4531 21.7171C18.2262 21.8986 19.0894 22 20 22C22.087 22 23.9251 21.4672 25 20.6589V22C25 22.2456 24.7749 22.7372 23.7954 23.2269C22.8758 23.6867 21.5353 24 20 24C18.612 24 17.3832 23.7439 16.4806 23.355C16.2622 23.6296 16.0235 23.8874 15.7669 24.1261C16.8519 24.6662 18.348 25 20 25C23.3137 25 26 23.6569 26 22V19V16V13V10V7C26 5.34315 23.3137 4 20 4C16.6863 4 14 5.34315 14 7V10V12.6736C14.3868 12.8574 14.754 13.0755 15.0978 13.3242C15.0258 13.1943 15 13.0831 15 13V11.6589C16.0749 12.4672 17.913 13 20 13C22.087 13 23.9251 12.4672 25 11.6589V13C25 13.2456 24.7749 13.7372 23.7954 14.2269C22.8758 14.6867 21.5353 15 20 15C18.4647 15 17.1242 14.6867 16.2046 14.2269C16.1461 14.1977 16.0904 14.1684 16.0372 14.1393C16.4683 14.5859 16.8405 15.0898 17.1414 15.6383C17.9913 15.869 18.965 16 20 16C22.087 16 23.9251 15.4672 25 14.6589V16C25 16.2456 24.7749 16.7372 23.7954 17.2269C22.8758 17.6867 21.5353 18 20 18C19.2421 18 18.5317 17.9237 17.896 17.791C17.9549 18.1293 17.9895 18.4759 17.9979 18.8289C18.6241 18.9397 19.298 19 20 19C22.087 19 23.9251 18.4672 25 17.6589ZM15 10V8.6589C16.0749 9.46725 17.913 10 20 10C22.087 10 23.9251 9.46725 25 8.6589V10C25 10.2456 24.7749 10.7372 23.7954 11.2269C22.8758 11.6867 21.5353 12 20 12C18.4647 12 17.1242 11.6867 16.2046 11.2269C15.2251 10.7372 15 10.2456 15 10ZM23.7954 5.77311C24.7749 6.26285 25 6.7544 25 7C25 7.2456 24.7749 7.73715 23.7954 8.22689C22.8758 8.68673 21.5353 9 20 9C18.4647 9 17.1242 8.68673 16.2046 8.22689C15.2251 7.73715 15 7.2456 15 7C15 6.7544 15.2251 6.26285 16.2046 5.77311C17.1242 5.31327 18.4647 5 20 5C21.5353 5 22.8758 5.31327 23.7954 5.77311Z" fill="white" fill-opacity="0.6"/>
<path fill-rule="evenodd" clip-rule="evenodd" d="M11 12C7.13401 12 4 15.134 4 19C4 22.866 7.13401 26 11 26C14.866 26 18 22.866 18 19C18 15.134 14.866 12 11 12ZM8.35156 19.5469L8.92969 22H10.0703L10.6328 19.5469H11.3828L11.9375 22H13.0781L13.6562 19.5469H14.5156V18.7969H13.8359L14.4141 16.3438H13.3359L12.8359 18.7969H12.0703L11.5078 16.3438H10.5L9.9375 18.7969H9.17969L8.67188 16.3438H7.59375L8.17188 18.7969H7.49219V19.5469H8.35156ZM9.51562 20.4297L9.33594 19.5469H9.76562L9.5625 20.4297H9.51562ZM11.2109 18.7969H10.8047L10.9844 17.9844H11.0234L11.2109 18.7969ZM12.4453 20.4375L12.2422 19.5469H12.6797L12.4922 20.4375H12.4453Z" fill="white" fill-opacity="0.6"/>
</svg>
