<svg width="30" height="30" viewBox="0 0 30 30" fill="none" xmlns="http://www.w3.org/2000/svg">
<rect x="2" y="7" width="3" height="9" rx="1.5" fill="#3366FF"/>
<rect x="12" y="4" width="3" height="12" rx="1.5" fill="#FF9900"/>
<rect x="7" y="12" width="3" height="4" rx="1.5" fill="#009999"/>
<rect x="17" y="7" width="3" height="9" rx="1.5" fill="#EF3346"/>
<rect x="7" y="7" width="3" height="3" rx="1.5" fill="#009999"/>
<rect x="17" y="2" width="3" height="3" rx="1.5" fill="#EF3346"/>
<path d="M24.7031 26.4918L22.8237 22.2406H24.3868L25.4078 24.688H25.4982L26.474 22.2406H28.0009L25.2271 28.64H23.7453L24.7031 26.4918Z" fill="#224488"/>
<path d="M21.0883 26.2833H20.998C20.8534 26.4404 20.6877 26.5703 20.501 26.6731C20.3203 26.7758 20.0854 26.8271 19.7963 26.8271C19.5734 26.8271 19.3626 26.7909 19.1638 26.7184C18.971 26.6459 18.7994 26.5431 18.6488 26.4102C18.5042 26.2772 18.3898 26.1171 18.3054 25.9298C18.2211 25.7425 18.179 25.534 18.179 25.3043C18.179 25.0808 18.2241 24.8783 18.3145 24.697C18.4048 24.5097 18.5283 24.3496 18.6849 24.2166C18.8415 24.0837 19.0253 23.981 19.2361 23.9084C19.4529 23.8359 19.6878 23.7997 19.9408 23.7997C20.2119 23.7997 20.4348 23.8178 20.6094 23.8541C20.7901 23.8903 20.9498 23.9326 21.0883 23.981V23.8631C21.0883 23.6698 21.007 23.5066 20.8444 23.3737C20.6877 23.2347 20.4739 23.1652 20.2029 23.1652C19.8113 23.1652 19.474 23.3253 19.1909 23.6456L18.2693 22.993C18.5223 22.6908 18.8144 22.4672 19.1457 22.3222C19.483 22.1711 19.8535 22.0956 20.2571 22.0956C20.9799 22.0956 21.525 22.2587 21.8924 22.5851C22.2599 22.9053 22.4436 23.3948 22.4436 24.0535V26.6821H21.0883V26.2833ZM21.0883 24.9327C20.9498 24.8783 20.8112 24.836 20.6727 24.8058C20.5402 24.7756 20.4016 24.7605 20.2571 24.7605C20.0161 24.7605 19.8354 24.8119 19.7149 24.9146C19.5945 25.0113 19.5342 25.1382 19.5342 25.2953C19.5342 25.4524 19.5915 25.5793 19.7059 25.676C19.8204 25.7666 19.9709 25.8119 20.1577 25.8119C20.3083 25.8119 20.4408 25.7878 20.5552 25.7394C20.6757 25.685 20.7751 25.6156 20.8534 25.531C20.9317 25.4464 20.9889 25.3527 21.0251 25.25C21.0672 25.1412 21.0883 25.0354 21.0883 24.9327Z" fill="#224488"/>
<path d="M11.95 20.4737H14.2359C14.7539 20.4737 15.2207 20.5522 15.6363 20.7093C16.052 20.8665 16.4043 21.087 16.6935 21.371C16.9826 21.6551 17.2024 21.9965 17.353 22.3953C17.5096 22.7941 17.5879 23.2353 17.5879 23.7187C17.5879 24.2021 17.5096 24.6433 17.353 25.0421C17.2024 25.4409 16.9826 25.7823 16.6935 26.0663C16.4043 26.3504 16.052 26.5709 15.6363 26.728C15.2207 26.8852 14.7539 26.9637 14.2359 26.9637H11.95V20.4737ZM14.1636 25.6222C14.513 25.6222 14.8141 25.5769 15.0671 25.4862C15.3201 25.3895 15.5279 25.2566 15.6905 25.0874C15.8592 24.9182 15.9827 24.7188 16.061 24.4892C16.1393 24.2535 16.1784 23.9967 16.1784 23.7187C16.1784 23.4407 16.1393 23.1869 16.061 22.9573C15.9827 22.7216 15.8592 22.5192 15.6905 22.35C15.5279 22.1808 15.3201 22.0509 15.0671 21.9602C14.8141 21.8635 14.513 21.8152 14.1636 21.8152H13.3595V25.6222H14.1636Z" fill="#224488"/>
</svg>
