<svg width="30" height="30" viewBox="0 0 30 30" fill="none" xmlns="http://www.w3.org/2000/svg">
<rect x="2" y="7" width="3" height="9" rx="1.5" fill="#3366FF"/>
<rect x="12" y="4" width="3" height="12" rx="1.5" fill="#FF9900"/>
<rect x="7" y="12" width="3" height="4" rx="1.5" fill="#009999"/>
<rect x="17" y="7" width="3" height="9" rx="1.5" fill="#EF3346"/>
<rect x="7" y="7" width="3" height="3" rx="1.5" fill="#009999"/>
<rect x="17" y="2" width="3" height="3" rx="1.5" fill="#EF3346"/>
<path d="M23.5923 20.6801H24.9639V22.3854L24.8725 23.2925H24.9639C25.1041 23.0748 25.2901 22.9024 25.5217 22.7755C25.7534 22.6485 26.0155 22.585 26.3081 22.585C26.875 22.585 27.2987 22.7543 27.5791 23.0929C27.8596 23.4316 27.9998 23.9093 27.9998 24.5261V27.1748H26.6281V24.6803C26.6281 24.4384 26.5702 24.2419 26.4544 24.0907C26.3386 23.9335 26.1587 23.8549 25.9149 23.8549C25.604 23.8549 25.3663 23.9728 25.2017 24.2086C25.0432 24.4445 24.9639 24.7529 24.9639 25.1338V27.1748H23.5923V20.6801Z" fill="#224488"/>
<path d="M20.48 23.873H19.6936V22.7301H20.48V21.3695H21.8516V22.7301H22.9581V23.873H21.8516V25.3697C21.8516 25.4664 21.8638 25.5571 21.8882 25.6418C21.9126 25.7204 21.9553 25.7869 22.0162 25.8414C22.1077 25.92 22.2265 25.9593 22.3728 25.9593C22.4704 25.9593 22.5527 25.9472 22.6197 25.923C22.6868 25.8988 22.7447 25.8686 22.7935 25.8323L23.1775 27.0115C23.019 27.084 22.8483 27.1415 22.6655 27.1838C22.4826 27.2262 22.2875 27.2473 22.0802 27.2473C21.5986 27.2473 21.2176 27.1082 20.9372 26.8301C20.7909 26.6849 20.6781 26.5065 20.5989 26.2949C20.5196 26.0772 20.48 25.8383 20.48 25.5783V23.873Z" fill="#224488"/>
<path d="M16.1513 23.2925H16.2427C16.5475 22.8208 17.0047 22.585 17.6143 22.585C18.1752 22.585 18.5928 22.7634 18.8671 23.1201C19.1414 23.4769 19.2786 23.9456 19.2786 24.5261V27.1748H17.907V24.6803C17.907 24.4384 17.849 24.2419 17.7332 24.0907C17.6174 23.9335 17.4376 23.8549 17.1937 23.8549C16.8828 23.8549 16.6451 23.9728 16.4805 24.2086C16.322 24.4445 16.2427 24.7529 16.2427 25.1338V27.1748H14.8711V22.7301H16.1513V23.2925Z" fill="#224488"/>
<path d="M12.042 22.585C12.3895 22.585 12.7095 22.6454 13.0021 22.7664C13.3008 22.8813 13.5569 23.0446 13.7702 23.2562C13.9897 23.4618 14.1573 23.7097 14.2732 24C14.3951 24.2903 14.456 24.6077 14.456 24.9524C14.456 25.2971 14.3951 25.6146 14.2732 25.9049C14.1573 26.1951 13.9897 26.4461 13.7702 26.6577C13.5569 26.8633 13.3008 27.0266 13.0021 27.1475C12.7095 27.2624 12.3895 27.3199 12.042 27.3199C11.6945 27.3199 11.3714 27.2624 11.0727 27.1475C10.7801 27.0266 10.5241 26.8633 10.3046 26.6577C10.0912 26.4461 9.92359 26.1951 9.80167 25.9049C9.68584 25.6146 9.62793 25.2971 9.62793 24.9524C9.62793 24.6077 9.68584 24.2903 9.80167 24C9.92359 23.7097 10.0912 23.4618 10.3046 23.2562C10.5241 23.0446 10.7801 22.8813 11.0727 22.7664C11.3714 22.6454 11.6945 22.585 12.042 22.585ZM12.042 26.05C12.1822 26.05 12.3133 26.0258 12.4352 25.9774C12.5632 25.923 12.676 25.8504 12.7735 25.7597C12.8711 25.663 12.9473 25.5481 13.0021 25.415C13.057 25.276 13.0844 25.1217 13.0844 24.9524C13.0844 24.7831 13.057 24.6319 13.0021 24.4989C12.9473 24.3659 12.8711 24.251 12.7735 24.1542C12.676 24.0575 12.5632 23.9849 12.4352 23.9365C12.3133 23.8821 12.1822 23.8549 12.042 23.8549C11.9018 23.8549 11.7677 23.8821 11.6396 23.9365C11.5177 23.9849 11.408 24.0575 11.3105 24.1542C11.2129 24.251 11.1367 24.3659 11.0819 24.4989C11.027 24.6319 10.9996 24.7831 10.9996 24.9524C10.9996 25.1217 11.027 25.276 11.0819 25.415C11.1367 25.5481 11.2129 25.663 11.3105 25.7597C11.408 25.8504 11.5177 25.923 11.6396 25.9774C11.7677 26.0258 11.9018 26.05 12.042 26.05Z" fill="#224488"/>
<path d="M2.57422 21H3.98242L5.84783 24.1748H5.93927L7.80468 21H9.21288V27.4946H7.80468V24.6192L7.89612 23.5307H7.80468L6.31418 26.1159H5.47292L3.98242 23.5307H3.89098L3.98242 24.6192V27.4946H2.57422V21Z" fill="#224488"/>
</svg>
