<svg width="30" height="30" viewBox="0 0 30 30" fill="none" xmlns="http://www.w3.org/2000/svg">
<path d="M11.6709 17L11.0205 14.2402H10.0537V13.3965H10.8184L10.168 10.6367H11.3809L11.9521 13.3965H12.8047L13.4375 10.6367H14.5713L15.2041 13.3965H16.0654L16.6279 10.6367H17.8408L17.1904 13.3965H17.9551V14.2402H16.9883L16.3379 17H15.0547L14.4307 14.2402H13.5869L12.9541 17H11.6709ZM12.1279 14.2402L12.3301 15.2334H12.3828L12.6113 14.2402H12.1279ZM13.7803 13.3965H14.2373L14.0264 12.4824H13.9824L13.7803 13.3965ZM15.3975 14.2402L15.626 15.2422H15.6787L15.8896 14.2402H15.3975Z" fill="#224488"/>
<path fill-rule="evenodd" clip-rule="evenodd" d="M22 15C18.6863 15 16 17.6863 16 21C16 24.3137 18.6863 27 22 27C25.3137 27 28 24.3137 28 21C28 17.6863 25.3137 15 22 15ZM21.8536 22.8536L25.8536 18.8536L25.1464 18.1464L21.5 21.7929L19.8536 20.1464L19.1464 20.8536L21.1464 22.8536L21.5 23.2071L21.8536 22.8536Z" fill="#224488"/>
<path fill-rule="evenodd" clip-rule="evenodd" d="M22 8H6C5.44772 8 5 8.44772 5 9V19C5 19.5523 5.44772 20 6 20H16.083C16.0284 20.3252 16 20.6593 16 21H7C7 21.5523 7.44772 22 8 22H16.083C16.1407 22.3442 16.2277 22.6784 16.3414 23H8C6.89543 23 6 22.1046 6 21C4.89543 21 4 20.1046 4 19V9C4 7.89543 4.89543 7 6 7H22C23.1046 7 24 7.89543 24 9C25.1046 9 26 9.89543 26 11V16.5278C25.6934 16.2534 25.3584 16.01 25 15.8027V11C25 10.4477 24.5523 10 24 10V15.3414C23.6784 15.2277 23.3442 15.1407 23 15.083V9C23 8.44772 22.5523 8 22 8Z" fill="#224488"/>
</svg>
