<svg width="30" height="30" viewBox="0 0 30 30" fill="none" xmlns="http://www.w3.org/2000/svg">
<rect x="4" y="11" width="22" height="2" fill="#224488"/>
<rect x="7" y="18" width="6" height="1" fill="#224488"/>
<path fill-rule="evenodd" clip-rule="evenodd" d="M22 15C18.6863 15 16 17.6863 16 21C16 24.3137 18.6863 27 22 27C25.3137 27 28 24.3137 28 21C28 17.6863 25.3137 15 22 15ZM21.8536 22.8536L25.8536 18.8536L25.1464 18.1464L21.5 21.7929L19.8536 20.1464L19.1464 20.8536L21.1464 22.8536L21.5 23.2071L21.8536 22.8536Z" fill="#224488"/>
<path fill-rule="evenodd" clip-rule="evenodd" d="M6 8H24C24.5523 8 25 8.44771 25 9V15.8027C25.3584 16.01 25.6934 16.2534 26 16.5278V9C26 7.89543 25.1046 7 24 7H6C4.89543 7 4 7.89543 4 9V21C4 22.1046 4.89543 23 6 23H16.3414C16.2277 22.6784 16.1407 22.3442 16.083 22H6C5.44772 22 5 21.5523 5 21V9C5 8.44772 5.44772 8 6 8Z" fill="#224488"/>
</svg>
