<svg width="30" height="30" viewBox="0 0 30 30" fill="none" xmlns="http://www.w3.org/2000/svg">
<rect x="12" y="6" width="6" height="1" fill="#224488"/>
<path fill-rule="evenodd" clip-rule="evenodd" d="M22 15C18.6863 15 16 17.6863 16 21C16 24.3137 18.6863 27 22 27C25.3137 27 28 24.3137 28 21C28 17.6863 25.3137 15 22 15ZM21.8536 22.8536L25.8536 18.8536L25.1464 18.1464L21.5 21.7929L19.8536 20.1464L19.1464 20.8536L21.1464 22.8536L21.5 23.2071L21.8536 22.8536Z" fill="#224488"/>
<path fill-rule="evenodd" clip-rule="evenodd" d="M10 5H20C20.5523 5 21 5.44772 21 6V15.083C21.3252 15.0284 21.6593 15 22 15V6C22 4.89543 21.1046 4 20 4H10C8.89543 4 8 4.89543 8 6V24C8 25.1046 8.89543 26 10 26H18.6822C18.2559 25.7166 17.868 25.3801 17.5278 25H10C9.44772 25 9 24.5523 9 24V6C9 5.44772 9.44771 5 10 5Z" fill="#224488"/>
</svg>
