<svg width="30" height="30" viewBox="0 0 30 30" fill="none" xmlns="http://www.w3.org/2000/svg">
<path d="M4 13L12 7L16 10L24 4" stroke="#224488"/>
<mask id="path-2-inside-1_50_330" fill="white">
<path d="M12 17.5C12 16.6716 12.6716 16 13.5 16H24.5C25.3284 16 26 16.6716 26 17.5V24.5C26 25.3284 25.3284 26 24.5 26H13.5C12.6716 26 12 25.3284 12 24.5V17.5Z"/>
</mask>
<path d="M13 17.5C13 17.2239 13.2239 17 13.5 17V15C12.1193 15 11 16.1193 11 17.5H13ZM13.5 17H24.5V15H13.5V17ZM24.5 17C24.7761 17 25 17.2239 25 17.5H27C27 16.1193 25.8807 15 24.5 15V17ZM25 17.5V24.5H27V17.5H25ZM25 24.5C25 24.7761 24.7761 25 24.5 25V27C25.8807 27 27 25.8807 27 24.5H25ZM24.5 25H13.5V27H24.5V25ZM13.5 25C13.2239 25 13 24.7761 13 24.5H11C11 25.8807 12.1193 27 13.5 27V25ZM13 24.5V17.5H11V24.5H13Z" fill="#224488" mask="url(#path-2-inside-1_50_330)"/>
<path d="M18 24H14V23H18V24ZM26 20H12V18H26V20Z" fill="#224488"/>
</svg>
