<svg width="30" height="30" viewBox="0 0 30 30" fill="none" xmlns="http://www.w3.org/2000/svg">
<path d="M4 13L12 7L16 10L24 4" stroke="#224488"/>
<rect x="13.5" y="13.5" width="12" height="12" rx="1.5" stroke="#224488"/>
<path d="M18.2456 17.0508V22H17.2134V18.0283H17.186L16.0513 18.7393V17.8301L17.2749 17.0508H18.2456ZM19.394 22L19.3872 21.2549L21.1646 19.6211C21.6294 19.1768 21.8755 18.9033 21.8755 18.5137C21.8755 18.0762 21.5405 17.8027 21.0894 17.8027C20.6245 17.8027 20.3237 18.0967 20.3237 18.5684H19.3462C19.3394 17.5977 20.0571 16.9824 21.103 16.9824C22.1626 16.9824 22.8667 17.584 22.8667 18.4453C22.8667 19.0059 22.5933 19.4707 21.5747 20.3936L20.8228 21.125V21.1523H22.9351V22H19.394Z" fill="#224488"/>
</svg>
