<svg width="30" height="30" viewBox="0 0 30 30" fill="none" xmlns="http://www.w3.org/2000/svg">
<path d="M4 13L12 7L16 10L24 4" stroke="#224488"/>
<rect x="13.5" y="13.5" width="12" height="12" rx="1.5" stroke="#224488"/>
<path d="M16.5386 21H15.2935V17.4648H16.5532C17.6177 17.4648 18.2671 18.1289 18.2671 19.2275C18.2671 20.3359 17.6177 21 16.5386 21ZM16.0259 20.3701H16.5093C17.1831 20.3701 17.5347 20.0186 17.5347 19.2275C17.5347 18.4414 17.1831 18.0947 16.5142 18.0947H16.0259V20.3701ZM18.6577 20.2578C18.6577 19.667 19.1362 19.4717 19.644 19.4424C19.8345 19.4302 20.1909 19.4131 20.3032 19.4082V19.1934C20.2983 18.9736 20.147 18.8418 19.8784 18.8418C19.6343 18.8418 19.478 18.9541 19.439 19.1348H18.7505C18.7944 18.6758 19.1948 18.3145 19.8979 18.3145C20.4741 18.3145 21.021 18.5732 21.021 19.2129V21H20.3374V20.6338H20.3179C20.186 20.8779 19.937 21.0488 19.5415 21.0488C19.0337 21.0488 18.6577 20.7852 18.6577 20.2578ZM19.3511 20.2383C19.3511 20.4434 19.5171 20.5508 19.7466 20.5508C20.0737 20.5508 20.3081 20.3311 20.3032 20.0527V19.8574C20.1934 19.8623 19.8857 19.8794 19.7612 19.8916C19.5122 19.916 19.3511 20.0332 19.3511 20.2383ZM21.8999 21.9961C21.7583 21.9961 21.6265 21.9912 21.5337 21.9814V21.4199C21.6265 21.4248 21.7339 21.4297 21.8267 21.4297C21.9683 21.4297 22.0854 21.415 22.1733 21.1855L22.2173 21.0732L21.2651 18.3486H22.022L22.5786 20.3018H22.6079L23.1694 18.3486H23.936L22.9009 21.293C22.7495 21.7178 22.4614 21.9961 21.8999 21.9961Z" fill="#224488"/>
</svg>
