<svg width="36" height="36" viewBox="0 0 36 36" fill="none" xmlns="http://www.w3.org/2000/svg">
<path d="M26 9.44531V27.7676C26 28.6623 25.6891 29.4245 25.0674 30.0547C24.4457 30.6849 23.6941 30.9999 22.8115 31H6.18945C5.30678 31 4.55433 30.6849 3.93262 30.0547C3.311 29.4245 3.00004 28.6623 3 27.7676V5.23242C3.00012 4.3378 3.31099 3.57547 3.93262 2.94531C4.55432 2.31512 5.3068 2.00003 6.18945 2H18.6553L26 9.44531ZM6.46484 9.48438C6.35376 9.48438 6.28557 9.49864 6.26074 9.52832C6.24222 9.55807 6.24226 9.61786 6.26074 9.70703L6.74316 11.834H5.94531C5.87128 11.834 5.82157 11.8453 5.79688 11.8691C5.77225 11.8871 5.75977 11.9354 5.75977 12.0127V12.6914C5.75979 12.7684 5.77239 12.8188 5.79688 12.8428C5.82157 12.8606 5.87128 12.8701 5.94531 12.8701H6.98438L7.70703 15.8984C7.71939 15.958 7.73536 15.9939 7.75391 16.0059C7.77876 16.0236 7.83466 16.0322 7.9209 16.0322H8.73633C8.81645 16.0322 8.8661 16.0236 8.88477 16.0059C8.90949 15.9939 8.92807 15.958 8.94043 15.8984L9.6084 12.8701H10.2012L10.8779 15.8984C10.8903 15.958 10.9063 15.9939 10.9248 16.0059C10.9495 16.0236 11.002 16.0322 11.082 16.0322H11.8887C11.969 16.0322 12.0221 16.0266 12.0469 16.0146C12.0777 16.0027 12.099 15.9638 12.1113 15.8984L12.8252 12.8701H13.8457C13.9321 12.8701 13.9844 12.8578 14.0029 12.834C14.0276 12.8102 14.04 12.7628 14.04 12.6914V12.0127C14.04 11.9412 14.0277 11.893 14.0029 11.8691C13.9843 11.8455 13.9319 11.834 13.8457 11.834H13.085L13.5391 9.70703C13.5576 9.61185 13.5576 9.55213 13.5391 9.52832C13.5263 9.49888 13.4712 9.48442 13.373 9.48438H12.6221C12.5482 9.48438 12.4985 9.49013 12.4736 9.50195C12.4489 9.51386 12.4303 9.55265 12.418 9.61816L11.9355 11.834H11.0264L10.5449 9.61816C10.5326 9.55265 10.5104 9.51386 10.4795 9.50195C10.4486 9.49008 10.3989 9.48438 10.3311 9.48438H9.46875C9.4009 9.48439 9.35118 9.49006 9.32031 9.50195C9.28959 9.51402 9.26818 9.5529 9.25586 9.61816L8.79199 11.834H7.90234L7.41016 9.61816C7.3978 9.54672 7.37659 9.50793 7.3457 9.50195C7.31487 9.49007 7.26863 9.4844 7.20703 9.48438H6.46484ZM11.7129 12.8701L11.4814 14.21L11.2402 12.8701H11.7129ZM8.59766 12.8701L8.36523 14.2012L8.13379 12.8701H8.59766ZM10.0439 11.834H9.79395L9.91406 11.0918L10.0439 11.834ZM17.3037 9.19922C17.3038 9.65272 17.4579 10.0355 17.7656 10.3477C18.0735 10.6595 18.4511 10.8154 18.8984 10.8154H22.8115L17.3037 5.23242V9.19922Z" fill="#3366FF"/>
<path d="M12.8677 12.8548L12.1434 15.8555C12.1309 15.9204 12.1089 15.9588 12.0776 15.9706C12.0525 15.9824 11.9992 15.9883 11.9176 15.9883H11.0993C11.0178 15.9883 10.9645 15.9794 10.9394 15.9617C10.9206 15.9499 10.9049 15.9145 10.8923 15.8555L10.2057 12.8548H9.60365L8.92638 15.8555C8.91384 15.9145 8.89502 15.9499 8.86994 15.9617C8.85113 15.9794 8.80096 15.9883 8.71944 15.9883H7.89166C7.80387 15.9883 7.74743 15.9794 7.72235 15.9617C7.70353 15.9499 7.68786 15.9145 7.67532 15.8555L6.94161 12.8548H5.88808C5.81283 12.8548 5.76266 12.8459 5.73758 12.8282C5.71249 12.8046 5.69995 12.7545 5.69995 12.6777V12.005C5.69995 11.9283 5.71249 11.8811 5.73758 11.8634C5.76266 11.8398 5.81283 11.828 5.88808 11.828H6.69704L6.2079 9.72129C6.18909 9.63277 6.18909 9.57376 6.2079 9.54426C6.23299 9.51475 6.30197 9.5 6.41484 9.5H7.16736C7.23007 9.5 7.27711 9.5059 7.30846 9.5177C7.33982 9.5236 7.36177 9.56196 7.37431 9.63277L7.87285 11.828H8.77587L9.2462 9.63277C9.25874 9.56786 9.28069 9.52951 9.31205 9.5177C9.3434 9.5059 9.39357 9.5 9.46255 9.5H10.3374C10.4063 9.5 10.4565 9.5059 10.4879 9.5177C10.5192 9.52951 10.5412 9.56786 10.5537 9.63277L11.0428 11.828H11.9647L12.4538 9.63277C12.4664 9.56786 12.4852 9.52951 12.5103 9.5177C12.5353 9.5059 12.5855 9.5 12.6608 9.5H13.4227C13.523 9.5 13.5795 9.51475 13.592 9.54426C13.6108 9.56786 13.6108 9.62687 13.592 9.72129L13.1311 11.828H13.9024C13.9902 11.828 14.0435 11.8398 14.0623 11.8634C14.0874 11.887 14.1 11.9342 14.1 12.005V12.6777C14.1 12.7486 14.0874 12.7958 14.0623 12.8194C14.0435 12.843 13.9902 12.8548 13.9024 12.8548H12.8677ZM9.79178 11.828H10.0458L9.91406 11.0933L9.79178 11.828ZM8.34318 14.1737L8.57834 12.8548H8.10801L8.34318 14.1737ZM11.5038 14.1825L11.7389 12.8548H11.2592L11.5038 14.1825Z" fill="white"/>
<rect x="6" y="19" width="8" height="1" fill="white"/>
<rect x="6" y="22" width="11" height="1" fill="white"/>
<rect x="6" y="25" width="14" height="1" fill="white"/>
<ellipse cx="25.2222" cy="26.3317" rx="7.77778" ry="7.78" fill="white"/>
<path d="M25.2199 27.4192L27.4761 29.6754C27.6188 29.818 27.8003 29.8894 28.0207 29.8894C28.2412 29.8894 28.4227 29.818 28.5653 29.6754C28.708 29.5328 28.7793 29.3512 28.7793 29.1308C28.7793 28.9104 28.708 28.7288 28.5653 28.5862L26.3091 26.33L28.5653 24.0738C28.708 23.9312 28.7793 23.7496 28.7793 23.5292C28.7793 23.3088 28.708 23.1272 28.5653 22.9846C28.4227 22.842 28.2412 22.7707 28.0207 22.7707C27.8003 22.7707 27.6188 22.842 27.4761 22.9846L25.2199 25.2408L22.9637 22.9846C22.8211 22.842 22.6396 22.7707 22.4191 22.7707C22.1987 22.7707 22.0172 22.842 21.8745 22.9846C21.7319 23.1272 21.6606 23.3088 21.6606 23.5292C21.6606 23.7496 21.7319 23.9312 21.8745 24.0738L24.1307 26.33L21.8745 28.5862C21.7319 28.7288 21.6606 28.9104 21.6606 29.1308C21.6606 29.3512 21.7319 29.5328 21.8745 29.6754C22.0172 29.818 22.1987 29.8894 22.4191 29.8894C22.6396 29.8894 22.8211 29.818 22.9637 29.6754L25.2199 27.4192ZM25.2199 34.11C24.1437 34.11 23.1323 33.9058 22.1857 33.4973C21.2392 33.0889 20.4158 32.5346 19.7156 31.8344C19.0154 31.1342 18.4611 30.3108 18.0526 29.3642C17.6442 28.4176 17.4399 27.4062 17.4399 26.33C17.4399 25.2538 17.6442 24.2424 18.0526 23.2958C18.4611 22.3492 19.0154 21.5259 19.7156 20.8257C20.4158 20.1255 21.2392 19.5711 22.1857 19.1627C23.1323 18.7542 24.1437 18.55 25.2199 18.55C26.2962 18.55 27.3076 18.7542 28.2541 19.1627C29.2007 19.5711 30.0241 20.1255 30.7243 20.8257C31.4245 21.5259 31.9788 22.3492 32.3873 23.2958C32.7957 24.2424 32.9999 25.2538 32.9999 26.33C32.9999 27.4062 32.7957 28.4176 32.3873 29.3642C31.9788 30.3108 31.4245 31.1342 30.7243 31.8344C30.0241 32.5346 29.2007 33.0889 28.2541 33.4973C27.3076 33.9058 26.2962 34.11 25.2199 34.11ZM25.2199 32.554C26.9575 32.554 28.4292 31.9511 29.6351 30.7452C30.841 29.5393 31.4439 28.0675 31.4439 26.33C31.4439 24.5925 30.841 23.1208 29.6351 21.9149C28.4292 20.709 26.9575 20.106 25.2199 20.106C23.4824 20.106 22.0107 20.709 20.8048 21.9149C19.5989 23.1208 18.9959 24.5925 18.9959 26.33C18.9959 28.0675 19.5989 29.5393 20.8048 30.7452C22.0107 31.9511 23.4824 32.554 25.2199 32.554Z" fill="#EF3346"/>
</svg>
