<svg width="30" height="30" viewBox="0 0 30 30" fill="none" xmlns="http://www.w3.org/2000/svg">
<rect x="5.5" y="5.5" width="19" height="19" rx="2.5" stroke="#224488"/>
<path d="M12.265 21.8091H10.698V19.5299H8.41882V17.963H10.698V15.7122H12.265V17.963H14.5157V19.5299H12.265V21.8091Z" fill="#224488"/>
<path d="M21.8091 20.9829H16.2821V19.416H21.8091V20.9829Z" fill="#224488"/>
<path d="M21.8091 18.1054H16.2821V16.5385H21.8091V18.1054Z" fill="#224488"/>
<path d="M19.0741 12.265L17.4502 13.8889L16.3675 12.7778L17.963 11.1254L16.3391 9.52991L17.4502 8.4188L19.0741 10.0142L20.6695 8.4188L21.7522 9.52991L20.1567 11.1254L21.7806 12.7778L20.6695 13.8889L19.0741 12.265Z" fill="#224488"/>
<path d="M14.2308 11.9231H8.70372V10.3561H14.2308V11.9231Z" fill="#224488"/>
</svg>
