<svg width="30" height="30" viewBox="0 0 30 30" fill="none" xmlns="http://www.w3.org/2000/svg">
<rect x="6.5" y="3.5" width="14.6522" height="18.5556" rx="1.5" stroke="#224488"/>
<path d="M12.0258 12.3333L11.5231 10.1528H10.7758V9.4861H11.3669L10.8641 7.30555H11.8016L12.2432 9.4861H12.9022L13.3913 7.30555H14.2677L14.7568 9.4861H15.4226L15.8573 7.30555H16.7948L16.2921 9.4861H16.8832V10.1528H16.1359L15.6332 12.3333H14.6413L14.159 10.1528H13.5068L13.0177 12.3333H12.0258ZM12.3791 10.1528L12.5353 10.9375H12.5761L12.7527 10.1528H12.3791ZM13.6563 9.4861H14.0095L13.8465 8.76388H13.8125L13.6563 9.4861ZM14.9063 10.1528L15.0829 10.9444H15.1236L15.2867 10.1528H14.9063Z" fill="#224488"/>
<rect x="9.47827" y="15.4444" width="8.69565" height="0.888889" fill="#224488"/>
<rect x="9.47827" y="18.1111" width="6.95652" height="0.888889" fill="#224488"/>
<ellipse cx="20.7826" cy="21.6667" rx="5.21739" ry="5.33333" fill="white"/>
<path d="M18.8829 24.3197L20.7826 22.3778L22.6823 24.3197L23.3779 23.6085L21.4783 21.6667L23.3779 19.7248L22.6823 19.0137L20.7826 20.9556L18.8829 19.0137L18.1873 19.7248L20.087 21.6667L18.1873 23.6085L18.8829 24.3197ZM20.7826 27C20.061 27 19.3829 26.8598 18.7482 26.5794C18.1137 26.2988 17.5616 25.9182 17.0922 25.4375C16.6227 24.9567 16.2508 24.3922 15.9766 23.7441C15.7023 23.096 15.5652 22.4036 15.5652 21.6667C15.5652 20.929 15.7024 20.2358 15.9767 19.5871C16.2511 18.9384 16.6235 18.3741 17.0938 17.8942C17.5641 17.4143 18.1163 17.0342 18.7504 16.7538C19.3843 16.4735 20.0617 16.3333 20.7826 16.3333C21.5042 16.3333 22.1823 16.4736 22.817 16.754C23.4515 17.0345 24.0036 17.4151 24.473 17.8959C24.9425 18.3767 25.3144 18.9412 25.5886 19.5893C25.8629 20.2373 26 20.9298 26 21.6667C26 22.4043 25.8628 23.0975 25.5885 23.7463C25.3141 24.3949 24.9417 24.9592 24.4714 25.4391C24.0011 25.919 23.4489 26.2991 22.8148 26.5795C22.1809 26.8598 21.5035 27 20.7826 27Z" fill="#223355"/>
</svg>
