<svg width="36" height="36" viewBox="0 0 36 36" fill="none" xmlns="http://www.w3.org/2000/svg">
<path d="M16.1714 13.751C16.4103 14.0316 16.8182 14.0793 17.1129 13.8724L17.1703 13.8278L22.1238 9.5384L24.4141 12.314C24.5401 12.4667 24.7238 12.5592 24.9205 12.57C25.1171 12.5808 25.3094 12.5091 25.451 12.3712L32.7841 5.2281C33.0654 4.95413 33.0736 4.50179 32.8021 4.21802C32.5473 3.95201 32.1372 3.92855 31.8551 4.15244L31.8005 4.19988L25.0152 10.8087L22.7533 8.06652C22.6319 7.91962 22.4573 7.82796 22.2684 7.81191C22.0793 7.79591 21.8914 7.85684 21.7475 7.98142L16.2475 12.7437L16.1949 12.794C15.9475 13.0563 15.9325 13.4704 16.1714 13.751Z" fill="#224488"/>
<path d="M31.6406 7.33333C31.6406 7.70152 31.945 8 32.3205 8C32.6959 7.99983 33.0005 7.70142 33.0005 7.33333V4.66667C33.0005 4.29858 32.6959 4.00017 32.3205 4H29.6804C29.3049 4 29.0005 4.29848 29.0005 4.66667C29.0005 5.03486 29.3049 5.33333 29.6804 5.33333H31.6406V7.33333Z" fill="#224488"/>
<path d="M3 18.0357C3 16.3591 4.36802 15 6.05556 15H21.9444C23.632 15 25 16.3591 25 18.0357V28.9643C25 30.6409 23.632 32 21.9444 32H6.05556C4.36802 32 3 30.6409 3 28.9643V18.0357Z" fill="white"/>
<path d="M21.9444 30.7857V32H6.05556V30.7857H21.9444ZM23.7778 28.9643V18.0357C23.7778 17.0298 22.957 16.2143 21.9444 16.2143H6.05556C5.04303 16.2143 4.22222 17.0298 4.22222 18.0357V28.9643C4.22222 29.9702 5.04303 30.7857 6.05556 30.7857V32C4.42066 32 3.08588 30.7243 3.00418 29.1202L3 28.9643V18.0357C3 16.3591 4.36802 15 6.05556 15H21.9444L22.1014 15.0042C23.716 15.0853 25 16.4114 25 18.0357V28.9643C25 30.5886 23.716 31.9147 22.1014 31.9958L21.9444 32V30.7857C22.957 30.7857 23.7778 29.9702 23.7778 28.9643Z" fill="#3366FF"/>
<path d="M25 21.6786H3V18.0357L25 18.0357V21.6786Z" fill="#3366FF"/>
<path d="M18.7543 27.8623H17.5569V24.3174H18.7684C19.792 24.3174 20.4166 24.9833 20.4166 26.085C20.4166 27.1964 19.792 27.8623 18.7543 27.8623ZM18.2612 27.2307H18.7261C19.3741 27.2307 19.7122 26.8782 19.7122 26.085C19.7122 25.2966 19.3741 24.949 18.7308 24.949H18.2612V27.2307Z" fill="#3366FF"/>
<path d="M14.5188 27.8623V24.3174H15.8524C16.6272 24.3174 17.0686 24.7727 17.0686 25.4729C17.0686 25.9576 16.8549 26.3102 16.4675 26.4816L17.1906 27.8623H16.4112L15.7632 26.604H15.2232V27.8623H14.5188ZM15.2232 26.0066H15.7209C16.1388 26.0066 16.3407 25.8254 16.3407 25.4729C16.3407 25.1155 16.1388 24.9196 15.7209 24.9196H15.2232V26.0066Z" fill="#3366FF"/>
<path d="M11.6356 27.8623H10.8749L12.0535 24.3174H12.9598L14.1337 27.8623H13.3777L13.1241 27.0446H11.8938L11.6356 27.8623ZM12.0723 26.4718H12.9457L12.5184 25.1155H12.4949L12.0723 26.4718Z" fill="#3366FF"/>
<path d="M9.92183 25.5513C9.86548 25.1596 9.57435 24.9196 9.17991 24.9196C8.6493 24.9196 8.30182 25.3456 8.30182 26.0899C8.30182 26.8537 8.65399 27.2601 9.17521 27.2601C9.56496 27.2601 9.85139 27.0348 9.92183 26.6529L10.6356 26.6578C10.5557 27.3139 10.0298 27.9113 9.16582 27.9113C8.25486 27.9113 7.58337 27.2454 7.58337 26.0899C7.58337 24.9343 8.26895 24.2684 9.16582 24.2684C9.95 24.2684 10.5417 24.7385 10.6356 25.5513H9.92183Z" fill="#3366FF"/>
</svg>
