<svg width="36" height="36" viewBox="0 0 36 36" fill="none" xmlns="http://www.w3.org/2000/svg">
<circle cx="13.8334" cy="22.8333" r="9.16667" fill="#223355"/>
<rect x="3" y="13.6667" width="18.3333" height="18.3333" rx="9.16667" fill="#3366FF"/>
<path d="M14.9931 22.9527L14.3033 26.1901C14.2914 26.2601 14.2705 26.3015 14.2406 26.3142C14.2167 26.327 14.1659 26.3333 14.0883 26.3333H13.3089C13.2313 26.3333 13.1805 26.3238 13.1566 26.3047C13.1387 26.2919 13.1238 26.2537 13.1118 26.1901L12.4578 22.9527H11.8845L11.2395 26.1901C11.2275 26.2537 11.2096 26.2919 11.1857 26.3047C11.1678 26.3238 11.12 26.3333 11.0424 26.3333H10.254C10.1704 26.3333 10.1167 26.3238 10.0928 26.3047C10.0749 26.2919 10.0599 26.2537 10.048 26.1901L9.34922 22.9527H8.34586C8.27419 22.9527 8.22641 22.9432 8.20252 22.9241C8.17863 22.8986 8.16669 22.8445 8.16669 22.7617V22.0359C8.16669 21.9532 8.17863 21.9022 8.20252 21.8831C8.22641 21.8577 8.27419 21.8449 8.34586 21.8449H9.11629L8.65045 19.5721C8.63253 19.4766 8.63253 19.4129 8.65045 19.3811C8.67434 19.3492 8.74004 19.3333 8.84754 19.3333H9.56422C9.62395 19.3333 9.66874 19.3397 9.6986 19.3524C9.72846 19.3588 9.74937 19.4002 9.76131 19.4766L10.2361 21.8449H11.0961L11.5441 19.4766C11.556 19.4065 11.5769 19.3652 11.6068 19.3524C11.6366 19.3397 11.6844 19.3333 11.7501 19.3333H12.5833C12.649 19.3333 12.6967 19.3397 12.7266 19.3524C12.7565 19.3652 12.7774 19.4065 12.7893 19.4766L13.2552 21.8449H14.1331L14.5989 19.4766C14.6109 19.4065 14.6288 19.3652 14.6527 19.3524C14.6766 19.3397 14.7244 19.3333 14.796 19.3333H15.5217C15.6172 19.3333 15.671 19.3492 15.6829 19.3811C15.7008 19.4065 15.7008 19.4702 15.6829 19.5721L15.244 21.8449H15.9786C16.0622 21.8449 16.1129 21.8577 16.1309 21.8831C16.1547 21.9086 16.1667 21.9595 16.1667 22.0359V22.7617C16.1667 22.8381 16.1547 22.889 16.1309 22.9145C16.1129 22.94 16.0622 22.9527 15.9786 22.9527H14.9931ZM12.0637 21.8449H12.3055L12.1801 21.0523L12.0637 21.8449ZM10.684 24.3756L10.908 22.9527H10.4601L10.684 24.3756ZM13.6941 24.3852L13.9181 22.9527H13.4612L13.6941 24.3852Z" fill="white"/>
<circle cx="12.1666" cy="22.8333" r="8.08333" stroke="white" stroke-width="0.5" stroke-dasharray="1 1"/>
<path d="M16.1714 13.751C16.4103 14.0316 16.8182 14.0793 17.1129 13.8724L17.1703 13.8278L22.1238 9.5384L24.4141 12.314C24.5401 12.4667 24.7238 12.5592 24.9205 12.57C25.1171 12.5808 25.3094 12.5091 25.451 12.3712L32.7841 5.2281C33.0654 4.95413 33.0736 4.50179 32.8021 4.21802C32.5473 3.95201 32.1372 3.92855 31.8551 4.15244L31.8005 4.19988L25.0152 10.8087L22.7533 8.06652C22.6319 7.91962 22.4573 7.82796 22.2684 7.81191C22.0793 7.79591 21.8914 7.85684 21.7475 7.98142L16.2475 12.7437L16.1949 12.794C15.9475 13.0563 15.9325 13.4704 16.1714 13.751Z" fill="#224488"/>
<path d="M31.6406 7.33333C31.6406 7.70152 31.945 8 32.3205 8C32.6959 7.99983 33.0005 7.70142 33.0005 7.33333V4.66667C33.0005 4.29858 32.6959 4.00017 32.3205 4H29.6804C29.3049 4 29.0005 4.29848 29.0005 4.66667C29.0005 5.03486 29.3049 5.33333 29.6804 5.33333H31.6406V7.33333Z" fill="#224488"/>
</svg>
