<svg width="30" height="30" viewBox="0 0 30 30" fill="none" xmlns="http://www.w3.org/2000/svg">
<path d="M4 13L12 7L16 10L24 4" stroke="#224488"/>
<path d="M17.9297 23L17.3516 20.5469H16.4922V19.7969H17.1719L16.5938 17.3438H17.6719L18.1797 19.7969H18.9375L19.5 17.3438H20.5078L21.0703 19.7969H21.8359L22.3359 17.3438H23.4141L22.8359 19.7969H23.5156V20.5469H22.6562L22.0781 23H20.9375L20.3828 20.5469H19.6328L19.0703 23H17.9297ZM18.3359 20.5469L18.5156 21.4297H18.5625L18.7656 20.5469H18.3359ZM19.8047 19.7969H20.2109L20.0234 18.9844H19.9844L19.8047 19.7969ZM21.2422 20.5469L21.4453 21.4375H21.4922L21.6797 20.5469H21.2422Z" fill="#224488"/>
<rect x="14.5" y="14.5" width="11" height="11" rx="5.5" stroke="#224488"/>
</svg>
