<svg width="36" height="36" viewBox="0 0 36 36" fill="none" xmlns="http://www.w3.org/2000/svg">
<rect x="1" y="9" width="34" height="26" rx="4" fill="white" stroke="#3366FF" stroke-width="2"/>
<path d="M36 19H0V13H36V19Z" fill="#3366FF"/>
<path d="M25.7799 29.185H23.8206V23.3463H25.803C27.4781 23.3463 28.5 24.443 28.5 26.2576C28.5 28.0882 27.4781 29.185 25.7799 29.185ZM24.9731 28.1447H25.7338C26.7942 28.1447 27.3475 27.564 27.3475 26.2576C27.3475 24.9592 26.7942 24.3866 25.7415 24.3866H24.9731V28.1447Z" fill="#3366FF"/>
<path d="M18.8491 29.185V23.3463H21.0313C22.2992 23.3463 23.0215 24.0963 23.0215 25.2495C23.0215 26.0479 22.6718 26.6285 22.0379 26.9108L23.2212 29.185H21.9457L20.8853 27.1124H20.0017V29.185H18.8491ZM20.0017 26.1285H20.8162C21.5001 26.1285 21.8305 25.8301 21.8305 25.2495C21.8305 24.6608 21.5001 24.3382 20.8162 24.3382H20.0017V26.1285Z" fill="#3366FF"/>
<path d="M14.1312 29.185H12.8864L14.8151 23.3463H16.298L18.219 29.185H16.9819L16.567 27.8382H14.5538L14.1312 29.185ZM14.8458 26.8947H16.275L15.5758 24.6608H15.5373L14.8458 26.8947Z" fill="#3366FF"/>
<path d="M11.3266 25.3785C11.2344 24.7334 10.758 24.3382 10.1125 24.3382C9.24424 24.3382 8.67563 25.0398 8.67563 26.2656C8.67563 27.5237 9.25192 28.193 10.1048 28.193C10.7426 28.193 11.2113 27.8221 11.3266 27.193L12.4945 27.2011C12.3639 28.2818 11.5033 29.2656 10.0895 29.2656C8.59879 29.2656 7.5 28.1689 7.5 26.2656C7.5 24.3624 8.62184 23.2656 10.0895 23.2656C11.3727 23.2656 12.3408 24.0398 12.4945 25.3785H11.3266Z" fill="#3366FF"/>
</svg>
