<svg width="30" height="30" viewBox="0 0 30 30" fill="none" xmlns="http://www.w3.org/2000/svg">
<rect x="5.5" y="5.5" width="19" height="19" rx="1.5" stroke="#224488"/>
<path d="M5 7C5 5.89543 5.89543 5 7 5H23C24.1046 5 25 5.89543 25 7V12H5V7Z" fill="#224488"/>
<path d="M10.2617 20.5H8.26953V14.8438H10.2852C11.9883 14.8438 13.0273 15.9062 13.0273 17.6641C13.0273 19.4375 11.9883 20.5 10.2617 20.5ZM9.44141 19.4922H10.2148C11.293 19.4922 11.8555 18.9297 11.8555 17.6641C11.8555 16.4062 11.293 15.8516 10.2227 15.8516H9.44141V19.4922ZM13.6523 19.3125C13.6523 18.3672 14.418 18.0547 15.2305 18.0078C15.5352 17.9883 16.1055 17.9609 16.2852 17.9531V17.6094C16.2773 17.2578 16.0352 17.0469 15.6055 17.0469C15.2148 17.0469 14.9648 17.2266 14.9023 17.5156H13.8008C13.8711 16.7812 14.5117 16.2031 15.6367 16.2031C16.5586 16.2031 17.4336 16.6172 17.4336 17.6406V20.5H16.3398V19.9141H16.3086C16.0977 20.3047 15.6992 20.5781 15.0664 20.5781C14.2539 20.5781 13.6523 20.1562 13.6523 19.3125ZM14.7617 19.2812C14.7617 19.6094 15.0273 19.7812 15.3945 19.7812C15.918 19.7812 16.293 19.4297 16.2852 18.9844V18.6719C16.1094 18.6797 15.6172 18.707 15.418 18.7266C15.0195 18.7656 14.7617 18.9531 14.7617 19.2812ZM18.8398 22.0938C18.6133 22.0938 18.4023 22.0859 18.2539 22.0703V21.1719C18.4023 21.1797 18.5742 21.1875 18.7227 21.1875C18.9492 21.1875 19.1367 21.1641 19.2773 20.7969L19.3477 20.6172L17.8242 16.2578H19.0352L19.9258 19.3828H19.9727L20.8711 16.2578H22.0977L20.4414 20.9688C20.1992 21.6484 19.7383 22.0938 18.8398 22.0938Z" fill="#224488"/>
</svg>
