<svg width="30" height="30" viewBox="0 0 30 30" fill="none" xmlns="http://www.w3.org/2000/svg">
<g clip-path="url(#clip0_925_9503)">
<rect width="30" height="30" rx="15" fill="#EF3346" fill-opacity="0.3"/>
<path d="M19.6239 11.1027L18.4076 9.88482C18.1995 9.67651 18.0315 9.2679 18.0315 8.97946V7.24887C18.0315 6.54381 17.4553 5.96695 16.7512 5.96695H15.0307C14.7427 5.96695 14.3346 5.7987 14.1265 5.59038L12.9102 4.37256C12.4141 3.87581 11.5979 3.87581 11.1018 4.37256L9.86945 5.59038C9.6694 5.7987 9.2613 5.96695 8.96523 5.96695H7.2448C6.54063 5.96695 5.96449 6.54381 5.96449 7.24887V8.97145C5.96449 9.25988 5.79644 9.6685 5.58839 9.87681L4.37209 11.0947C3.87597 11.5914 3.87597 12.4086 4.37209 12.9054L5.58839 14.1232C5.79644 14.3315 5.96449 14.7401 5.96449 15.0285V16.7511C5.96449 17.4562 6.54063 18.0331 7.2448 18.0331H8.96523C9.2533 18.0331 9.6614 18.2013 9.86945 18.4096L11.0858 19.6274C11.5819 20.1242 12.3981 20.1242 12.8942 19.6274L14.1105 18.4096C14.3186 18.2013 14.7267 18.0331 15.0147 18.0331H16.7352C17.4393 18.0331 18.0155 17.4562 18.0155 16.7511V15.0285C18.0155 14.7401 18.1835 14.3315 18.3916 14.1232L19.6079 12.9054C20.128 12.4166 20.128 11.5994 19.6239 11.1027ZM8.79719 9.6044C8.79719 9.16374 9.15728 8.8032 9.59739 8.8032C10.0375 8.8032 10.3976 9.16374 10.3976 9.6044C10.3976 10.0451 10.0455 10.4056 9.59739 10.4056C9.15728 10.4056 8.79719 10.0451 8.79719 9.6044ZM10.0215 14.8363C9.90146 14.9564 9.74942 15.0125 9.59739 15.0125C9.44535 15.0125 9.29331 14.9564 9.17328 14.8363C8.94122 14.6039 8.94122 14.2193 9.17328 13.987L13.9745 9.17976C14.2065 8.94742 14.5906 8.94742 14.8227 9.17976C15.0548 9.41211 15.0548 9.79669 14.8227 10.029L10.0215 14.8363ZM14.3986 15.2128C13.9505 15.2128 13.5904 14.8523 13.5904 14.4116C13.5904 13.971 13.9505 13.6104 14.3906 13.6104C14.8307 13.6104 15.1908 13.971 15.1908 14.4116C15.1908 14.8523 14.8387 15.2128 14.3986 15.2128Z" fill="#EF3346"/>
<rect x="14" y="16" width="10" height="3" rx="1.5" fill="#009999"/>
<rect x="14" y="21" width="10" height="3" rx="1.5" fill="#009999"/>
</g>
<defs>
<clipPath id="clip0_925_9503">
<rect width="30" height="30" fill="white"/>
</clipPath>
</defs>
</svg>
