<svg width="30" height="30" viewBox="0 0 30 30" fill="none" xmlns="http://www.w3.org/2000/svg">
<g clip-path="url(#clip0_464_5957)">
<path d="M24.4759 17.1923L17.5901 24.4231C17.4032 24.6197 17.1981 24.765 16.9747 24.859C16.7512 24.953 16.5217 25 16.2861 25C16.0505 25 15.823 24.953 15.6036 24.859C15.3842 24.765 15.1811 24.6197 14.9942 24.4231L6.52405 15.5C6.35343 15.3205 6.22343 15.1151 6.13406 14.8838C6.04469 14.6524 6 14.4091 6 14.1538V6.92308C6 6.39419 6.17899 5.94145 6.53697 5.56487C6.89495 5.18829 7.32533 5 7.82809 5H14.7261C14.9663 5 15.199 5.04915 15.4242 5.14744C15.6494 5.24573 15.8473 5.38462 16.018 5.5641L24.4759 14.4744C24.6547 14.6709 24.7867 14.8874 24.872 15.1238C24.9573 15.3604 25 15.5969 25 15.8333C25 16.0812 24.9573 16.3205 24.872 16.5513C24.7867 16.7821 24.6547 16.9957 24.4759 17.1923ZM10.229 10.8974C10.6149 10.8974 10.943 10.7553 11.2132 10.471C11.4833 10.1869 11.6183 9.84188 11.6183 9.4359C11.6183 9.02991 11.4833 8.68479 11.2132 8.40051C10.943 8.11641 10.6149 7.97436 10.229 7.97436C9.84306 7.97436 9.51506 8.11641 9.24499 8.40051C8.97476 8.68479 8.83964 9.02991 8.83964 9.4359C8.83964 9.84188 8.97476 10.1869 9.24499 10.471C9.51506 10.7553 9.84306 10.8974 10.229 10.8974Z" fill="#224488"/>
</g>
<defs>
<clipPath id="clip0_464_5957">
<rect width="30" height="30" fill="white"/>
</clipPath>
</defs>
</svg>
