<svg width="30" height="30" viewBox="0 0 30 30" fill="none" xmlns="http://www.w3.org/2000/svg">
<g clip-path="url(#clip0_925_6701)">
<rect width="30" height="30" rx="15" fill="#EF3346" fill-opacity="0.3"/>
<path d="M22.6239 14.1027L21.4076 12.8848C21.1995 12.6765 21.0315 12.2679 21.0315 11.9795V10.2489C21.0315 9.54381 20.4553 8.96695 19.7512 8.96695H18.0307C17.7427 8.96695 17.3346 8.7987 17.1265 8.59038L15.9102 7.37256C15.4141 6.87581 14.5979 6.87581 14.1018 7.37256L12.8695 8.59038C12.6694 8.7987 12.2613 8.96695 11.9652 8.96695H10.2448C9.54063 8.96695 8.96449 9.54381 8.96449 10.2489V11.9715C8.96449 12.2599 8.79644 12.6685 8.58839 12.8768L7.37209 14.0947C6.87597 14.5914 6.87597 15.4086 7.37209 15.9054L8.58839 17.1232C8.79644 17.3315 8.96449 17.7401 8.96449 18.0285V19.7511C8.96449 20.4562 9.54063 21.0331 10.2448 21.0331H11.9652C12.2533 21.0331 12.6614 21.2013 12.8695 21.4096L14.0858 22.6274C14.5819 23.1242 15.3981 23.1242 15.8942 22.6274L17.1105 21.4096C17.3186 21.2013 17.7267 21.0331 18.0147 21.0331H19.7352C20.4393 21.0331 21.0155 20.4562 21.0155 19.7511V18.0285C21.0155 17.7401 21.1835 17.3315 21.3916 17.1232L22.6079 15.9054C23.128 15.4166 23.128 14.5994 22.6239 14.1027ZM11.7972 12.6044C11.7972 12.1637 12.1573 11.8032 12.5974 11.8032C13.0375 11.8032 13.3976 12.1637 13.3976 12.6044C13.3976 13.0451 13.0455 13.4056 12.5974 13.4056C12.1573 13.4056 11.7972 13.0451 11.7972 12.6044ZM13.0215 17.8363C12.9015 17.9564 12.7494 18.0125 12.5974 18.0125C12.4453 18.0125 12.2933 17.9564 12.1733 17.8363C11.9412 17.6039 11.9412 17.2193 12.1733 16.987L16.9745 12.1798C17.2065 11.9474 17.5906 11.9474 17.8227 12.1798C18.0548 12.4121 18.0548 12.7967 17.8227 13.029L13.0215 17.8363ZM17.3986 18.2128C16.9505 18.2128 16.5904 17.8523 16.5904 17.4116C16.5904 16.971 16.9505 16.6104 17.3906 16.6104C17.8307 16.6104 18.1908 16.971 18.1908 17.4116C18.1908 17.8523 17.8387 18.2128 17.3986 18.2128Z" fill="#EF3346"/>
</g>
<defs>
<clipPath id="clip0_925_6701">
<rect width="30" height="30" fill="white"/>
</clipPath>
</defs>
</svg>
