<svg width="30" height="30" viewBox="0 0 30 30" fill="none" xmlns="http://www.w3.org/2000/svg">
<g clip-path="url(#clip0_925_8210)">
<rect width="30" height="30" rx="15" fill="#224488" fill-opacity="0.3"/>
<path d="M22.6501 18.6125H17.5501C17.2016 18.6125 16.9126 18.3235 16.9126 17.975C16.9126 17.6265 17.2016 17.3375 17.5501 17.3375H22.6501C22.9986 17.3375 23.2876 17.6265 23.2876 17.975C23.2876 18.3235 22.9986 18.6125 22.6501 18.6125Z" fill="#224488"/>
<path d="M22.6501 22.0125H17.5501C17.2016 22.0125 16.9126 21.7235 16.9126 21.375C16.9126 21.0265 17.2016 20.7375 17.5501 20.7375H22.6501C22.9986 20.7375 23.2876 21.0265 23.2876 21.375C23.2876 21.7235 22.9986 22.0125 22.6501 22.0125Z" fill="#224488"/>
<path d="M23.4999 12.042V8.183C23.4999 6.9845 22.9559 6.5 21.6044 6.5H18.1704C16.8189 6.5 16.2749 6.9845 16.2749 8.183V12.0335C16.2749 13.2405 16.8189 13.7165 18.1704 13.7165H21.6044C22.9559 13.725 23.4999 13.2405 23.4999 12.042Z" fill="#224488"/>
<path d="M13.725 12.042V8.183C13.725 6.9845 13.181 6.5 11.8295 6.5H8.3955C7.044 6.5 6.5 6.9845 6.5 8.183V12.0335C6.5 13.2405 7.044 13.7165 8.3955 13.7165H11.8295C13.181 13.725 13.725 13.2405 13.725 12.042Z" fill="#224488"/>
<path d="M13.725 21.6045V18.1705C13.725 16.819 13.181 16.275 11.8295 16.275H8.3955C7.044 16.275 6.5 16.819 6.5 18.1705V21.6045C6.5 22.956 7.044 23.5 8.3955 23.5H11.8295C13.181 23.5 13.725 22.956 13.725 21.6045Z" fill="#224488"/>
</g>
<defs>
<clipPath id="clip0_925_8210">
<rect width="30" height="30" fill="white"/>
</clipPath>
</defs>
</svg>
