<svg width="20" height="20" viewBox="0 0 20 20" fill="none" xmlns="http://www.w3.org/2000/svg">
<g clip-path="url(#clip0_781_5523)">
<mask id="mask0_781_5523" style="mask-type:luminance" maskUnits="userSpaceOnUse" x="0" y="0" width="20" height="20">
<path d="M20 0H0V20H20V0Z" fill="white"/>
</mask>
<g mask="url(#mask0_781_5523)">
<path d="M14.1221 3.33301C15.0636 3.33325 15.8328 4.10626 15.833 5.05176V6.42969C15.833 6.76936 15.73 7.11967 15.5957 7.41504C15.4609 7.7116 15.2751 7.99546 15.0732 8.19824C14.8923 8.37958 14.5988 8.37975 14.418 8.19824C14.2372 8.01658 14.2373 7.72176 14.418 7.54004C14.5249 7.43265 14.6521 7.24797 14.752 7.02832C14.8524 6.80727 14.9062 6.59253 14.9062 6.42969V5.05176C14.9061 4.62035 14.5518 4.26391 14.1221 4.26367H5.87891C5.46348 4.26367 5.09375 4.60565 5.09375 5.11426V6.55371C5.09381 6.65481 5.13045 6.8226 5.21582 7.01367C5.2785 7.15387 5.35738 7.2827 5.43848 7.38477L5.52051 7.47754L5.52832 7.48633L7.90137 9.99316L7.92383 10.0186C8.08616 10.2173 8.23333 10.4797 8.34082 10.75C8.44751 11.0183 8.52923 11.3302 8.5293 11.6289V14.9482C8.5293 15.5627 9.23149 15.9426 9.75391 15.6201L10.6201 15.0605L10.6299 15.0537C10.6919 15.0159 10.7825 14.9209 10.8594 14.7725C10.9349 14.6265 10.9697 14.4812 10.9697 14.3838C10.9699 14.127 11.1778 13.919 11.4336 13.9189C11.6894 13.919 11.8963 14.127 11.8965 14.3838C11.8965 14.6647 11.8084 14.9573 11.6816 15.2021C11.5579 15.4412 11.37 15.6868 11.1221 15.8418L11.123 15.8428L10.251 16.4072C10.2486 16.4088 10.2456 16.4106 10.2432 16.4121C9.14679 17.0922 7.60254 16.3432 7.60254 14.9482V11.6289C7.60247 11.4874 7.56047 11.297 7.48047 11.0957C7.4029 10.9007 7.30227 10.7289 7.21289 10.6172L4.85645 8.12793V8.12695C4.6544 7.92134 4.4871 7.65627 4.37012 7.39453C4.25323 7.13291 4.16705 6.83106 4.16699 6.55371V5.11426C4.16699 4.1213 4.92251 3.33301 5.87891 3.33301H14.1221ZM12.5146 8.36523C13.8626 8.3653 14.9561 9.4628 14.9561 10.8164C14.956 11.3266 14.8 11.8 14.5342 12.1924C14.5471 12.2028 14.5613 12.2126 14.5732 12.2246L15.1904 12.8447L15.2227 12.8799C15.3712 13.0627 15.3601 13.3325 15.1904 13.5029C15.0207 13.673 14.7522 13.6842 14.5703 13.5352L14.5352 13.5029L13.918 12.8818C13.9059 12.8697 13.8962 12.8559 13.8857 12.8428C13.4949 13.1098 13.023 13.2666 12.5146 13.2666C11.167 13.2663 10.0744 12.1697 10.0742 10.8164C10.0742 9.46292 11.1668 8.36549 12.5146 8.36523ZM12.5146 9.2959C11.6787 9.29615 11.001 9.97692 11.001 10.8164C11.0012 11.6556 11.6789 12.3357 12.5146 12.3359C13.3506 12.3359 14.0291 11.6557 14.0293 10.8164C14.0293 9.97681 13.3507 9.29596 12.5146 9.2959Z" fill="white"/>
</g>
</g>
<defs>
<clipPath id="clip0_781_5523">
<rect width="20" height="20" fill="white"/>
</clipPath>
</defs>
</svg>
