<svg width="20" height="20" viewBox="0 0 20 20" fill="none" xmlns="http://www.w3.org/2000/svg">
<path fill-rule="evenodd" clip-rule="evenodd" d="M11.5981 13.2321L10.0981 15.8301C9.26964 17.265 7.43487 17.7566 5.99999 16.9282C4.56511 16.0998 4.07349 14.265 4.90191 12.8301L6.40191 10.2321L5.53589 9.73205L4.03589 12.3301C2.93132 14.2433 3.58682 16.6897 5.49999 17.7942C7.41316 18.8988 9.85952 18.2433 10.9641 16.3301L12.4641 13.7321L11.5981 13.2321ZM13.5981 9.76795L14.4641 10.2679L15.9641 7.66987C17.0687 5.7567 16.4132 3.31034 14.5 2.20577C12.5868 1.1012 10.1405 1.7567 9.03589 3.66987L7.53589 6.26795L8.40191 6.76795L9.90191 4.16987C10.7303 2.735 12.5651 2.24337 14 3.0718C15.4349 3.90022 15.9265 5.735 15.0981 7.16987L13.5981 9.76795Z" fill="#999999"/>
<path d="M12 6.5359L8 13.4641" stroke="#999999"/>
</svg>
