<svg width="30" height="30" viewBox="0 0 30 30" fill="none" xmlns="http://www.w3.org/2000/svg">
<g clip-path="url(#clip0_791_7051)">
<mask id="mask0_791_7051" style="mask-type:luminance" maskUnits="userSpaceOnUse" x="0" y="0" width="30" height="30">
<path d="M30 0H0V30H30V0Z" fill="white"/>
</mask>
<g mask="url(#mask0_791_7051)">
<path d="M23.6795 11.01L17.24 5.77002C15.9816 4.75002 14.0153 4.74002 12.7667 5.76002L6.32712 11.01C5.40297 11.76 4.84258 13.26 5.03921 14.44L6.27796 21.98C6.56307 23.67 8.1066 25 9.78776 25H20.2091C21.8706 25 23.4436 23.64 23.7287 21.97L24.9674 14.43C25.1444 13.26 24.584 11.76 23.6795 11.01ZM15.7358 21C15.7358 21.41 15.4015 21.75 14.9984 21.75C14.5953 21.75 14.2611 21.41 14.2611 21V18C14.2611 17.59 14.5953 17.25 14.9984 17.25C15.4015 17.25 15.7358 17.59 15.7358 18V21Z" fill="white"/>
</g>
</g>
<defs>
<clipPath id="clip0_791_7051">
<rect width="30" height="30" fill="white"/>
</clipPath>
</defs>
</svg>
