<svg width="30" height="30" viewBox="0 0 30 30" fill="none" xmlns="http://www.w3.org/2000/svg">
<path d="M25.2894 17.6254L17.6341 25.2758C17.3914 25.5173 17.1183 25.6983 16.8148 25.8189C16.5113 25.9396 16.2054 26 15.897 26C15.5887 26 15.2827 25.9396 14.9792 25.8189C14.6757 25.6983 14.4026 25.5173 14.1599 25.2758L4.71064 15.8326C4.48698 15.6092 4.31266 15.3492 4.18771 15.0526C4.06257 14.7561 4 14.4442 4 14.117V6.44618C4 5.77345 4.23967 5.19758 4.719 4.71855C5.19834 4.23952 5.77459 4 6.44774 4H14.1235C14.4486 4 14.7635 4.06487 15.0682 4.1946C15.373 4.32415 15.6371 4.50284 15.8606 4.73067L25.2894 14.1674C25.5351 14.4131 25.715 14.6879 25.829 14.9919C25.943 15.2958 26 15.6016 26 15.9094C26 16.217 25.943 16.5196 25.829 16.8171C25.715 17.1147 25.5351 17.3841 25.2894 17.6254ZM9.1374 10.7391C9.58311 10.7391 9.96221 10.5833 10.2747 10.2715C10.5872 9.95976 10.7434 9.58117 10.7434 9.13574C10.7434 8.69031 10.5875 8.31145 10.2755 7.99917C9.96356 7.68688 9.58473 7.53074 9.13902 7.53074C8.6933 7.53074 8.3142 7.68661 8.00172 7.99836C7.68923 8.3101 7.53299 8.68869 7.53299 9.13412C7.53299 9.57955 7.68896 9.95841 8.00091 10.2707C8.31285 10.583 8.69168 10.7391 9.1374 10.7391ZM16.9507 20.0266L19.8291 17.1432C20.0269 16.9472 20.1842 16.7156 20.3011 16.4484C20.418 16.181 20.4764 15.8959 20.4764 15.5929C20.4764 14.9907 20.2622 14.475 19.8337 14.0459C19.4054 13.6168 18.8878 13.4023 18.2808 13.4023C17.9416 13.4023 17.6078 13.4989 17.2795 13.6923C16.9511 13.8856 16.5542 14.2159 16.0888 14.683C15.5517 14.1842 15.1311 13.8461 14.8269 13.6686C14.5226 13.491 14.2094 13.4023 13.8872 13.4023C13.2846 13.4023 12.7686 13.6168 12.3392 14.0459C11.9098 14.475 11.6952 14.9914 11.6952 15.5951C11.6952 15.897 11.7525 16.181 11.8672 16.4473C11.9819 16.7136 12.1382 16.9456 12.336 17.1432L15.2209 20.0266C15.4685 20.2722 15.7571 20.395 16.0869 20.395C16.4168 20.395 16.7047 20.2722 16.9507 20.0266Z" fill="#224488"/>
</svg>
