<svg width="36" height="36" viewBox="0 0 36 36" fill="none" xmlns="http://www.w3.org/2000/svg">
<g clip-path="url(#clip0_708_5371)">
<rect x="1" y="5" width="34" height="30" rx="4" fill="white" stroke="#FF9900" stroke-width="2"/>
<path d="M27.5 0C28.3284 0 29 0.671573 29 1.5V4H31C33.7614 4 36 6.23858 36 9V16H0V9C1.28855e-07 6.23858 2.23858 4 5 4H7V1.5C7 0.671573 7.67157 0 8.5 0C9.32843 0 10 0.671573 10 1.5V4H26V1.5C26 0.671573 26.6716 0 27.5 0Z" fill="#FF9900"/>
<path d="M14.416 20.165C16.486 20.165 17.8857 21.4944 17.874 23.1543C17.8859 24.1273 17.4173 24.9011 16.6631 25.3418C17.0428 25.4961 17.3668 25.7187 17.6221 26.0039C18.0414 26.4727 18.2568 27.0868 18.2568 27.7793C18.2568 29.6588 16.5386 30.9365 14.3887 30.9365C12.2457 30.9365 10.5828 29.7622 10.5205 27.9258L10.5098 27.6162H12.6338L12.6514 27.8975C12.6914 28.5365 13.3342 29.0381 14.375 29.0381C15.4755 29.0381 16.1396 28.4484 16.1396 27.7246C16.1396 27.3315 15.9767 26.9982 15.668 26.7559C15.3532 26.5089 14.8674 26.3428 14.2109 26.3428H13.0635V24.5127H14.2109C14.7175 24.5127 15.1251 24.3705 15.3994 24.1475C15.6687 23.9285 15.8252 23.6202 15.8252 23.2402C15.8252 22.8677 15.689 22.5723 15.459 22.3672C15.2258 22.1593 14.8712 22.0225 14.4023 22.0225C13.4809 22.0225 12.8185 22.5156 12.7881 23.1855L12.7754 23.4717H10.7314L10.7393 23.1641C10.786 21.3305 12.4723 20.165 14.416 20.165ZM23.6709 30.7998H21.5537V22.623L19.1338 24.2051V22.0527L21.7305 20.3506L21.8047 20.3018H23.6709V30.7998Z" fill="#FF9900"/>
</g>
<defs>
<clipPath id="clip0_708_5371">
<rect width="36" height="36" fill="white"/>
</clipPath>
</defs>
</svg>
