<svg width="30" height="30" viewBox="0 0 30 30" fill="none" xmlns="http://www.w3.org/2000/svg">
<g clip-path="url(#clip0_739_6606)">
<mask id="mask0_739_6606" style="mask-type:luminance" maskUnits="userSpaceOnUse" x="0" y="0" width="30" height="30">
<path d="M30 0H0V30H30V0Z" fill="white"/>
<path d="M30 0V30H0V0H30ZM1.25 28.75H28.75V1.25H1.25V28.75Z" fill="white"/>
</mask>
<g mask="url(#mask0_739_6606)">
<path d="M19.0857 5.94857C19.0857 5.42785 19.5078 5.00571 20.0286 5.00571C20.5493 5.00571 20.9714 5.42785 20.9714 5.94857V9.02882H24.0517L24.1474 9.03373C24.623 9.08184 24.9945 9.48337 24.9945 9.97167C24.9944 10.4599 24.623 10.8615 24.1474 10.9096L24.0517 10.9145H20.0286C19.5079 10.9145 19.0858 10.4923 19.0857 9.97167V5.94857Z" fill="#009999"/>
<path d="M24.3905 4.27621C24.7588 3.908 25.3556 3.908 25.7238 4.27621C26.092 4.64442 26.092 5.24126 25.7238 5.60947L20.6952 10.638C20.327 11.0062 19.7302 11.0062 19.362 10.638C18.9938 10.2698 18.9938 9.67299 19.362 9.30478L24.3905 4.27621Z" fill="#009999"/>
<path d="M4 15C4 8.92773 8.92773 4 15 4C15.5207 4 15.9429 4.42213 15.9429 4.94286C15.9429 5.46358 15.5207 5.88571 15 5.88571C9.96918 5.88571 5.88571 9.96918 5.88571 15C5.88571 18.4772 7.83395 21.5037 10.7093 23.0413L10.9904 23.1849L11.0751 23.2316C11.4805 23.4845 11.6364 24.0088 11.4213 24.447C11.2061 24.8852 10.6958 25.0823 10.2477 24.916L10.1593 24.8779L9.82042 24.7036C6.35557 22.8505 4 19.2001 4 15Z" fill="#224488"/>
<path d="M24.1143 15C24.1143 14.4793 24.5364 14.0571 25.0571 14.0571C25.5779 14.0571 26 14.4793 26 15C26 21.0723 21.0723 26 15 26C14.4793 26 14.0571 25.5779 14.0571 25.0571C14.0571 24.5364 14.4793 24.1143 15 24.1143C20.0308 24.1143 24.1143 20.0308 24.1143 15Z" fill="#224488"/>
</g>
<path d="M17.8264 15.1023L17.1366 17.8772C17.1247 17.9372 17.1038 17.9727 17.0739 17.9836C17.05 17.9945 16.9993 18 16.9216 18H16.1422C16.0646 18 16.0138 17.9918 15.9899 17.9754C15.972 17.9645 15.9571 17.9318 15.9451 17.8772L15.2912 15.1023H14.7178L14.0728 17.8772C14.0608 17.9318 14.0429 17.9645 14.019 17.9754C14.0011 17.9918 13.9533 18 13.8757 18H13.0873C13.0037 18 12.95 17.9918 12.9261 17.9754C12.9082 17.9645 12.8932 17.9318 12.8813 17.8772L12.1825 15.1023H11.1792C11.1075 15.1023 11.0597 15.0941 11.0358 15.0778C11.0119 15.0559 11 15.0096 11 14.9386V14.3165C11 14.2456 11.0119 14.2019 11.0358 14.1855C11.0597 14.1637 11.1075 14.1528 11.1792 14.1528H11.9496L11.4838 12.2046C11.4658 12.1228 11.4658 12.0682 11.4838 12.0409C11.5077 12.0136 11.5733 12 11.6809 12H12.3975C12.4573 12 12.5021 12.0055 12.5319 12.0164C12.5618 12.0218 12.5827 12.0573 12.5946 12.1228L13.0694 14.1528H13.9295L14.3774 12.1228C14.3893 12.0628 14.4102 12.0273 14.4401 12.0164C14.47 12.0055 14.5177 12 14.5834 12H15.4166C15.4823 12 15.53 12.0055 15.5599 12.0164C15.5898 12.0273 15.6107 12.0628 15.6226 12.1228L16.0885 14.1528H16.9664L17.4323 12.1228C17.4442 12.0628 17.4621 12.0273 17.486 12.0164C17.5099 12.0055 17.5577 12 17.6293 12H18.355C18.4505 12 18.5043 12.0136 18.5162 12.0409C18.5342 12.0628 18.5342 12.1173 18.5162 12.2046L18.0773 14.1528H18.8119C18.8955 14.1528 18.9462 14.1637 18.9642 14.1855C18.9881 14.2074 19 14.251 19 14.3165V14.9386C19 15.0041 18.9881 15.0477 18.9642 15.0696C18.9462 15.0914 18.8955 15.1023 18.8119 15.1023H17.8264ZM14.897 14.1528H15.1389L15.0134 13.4734L14.897 14.1528ZM13.5174 16.322L13.7413 15.1023H13.2934L13.5174 16.322ZM16.5274 16.3302L16.7514 15.1023H16.2945L16.5274 16.3302Z" fill="#3366FF"/>
</g>
<defs>
<clipPath id="clip0_739_6606">
<rect width="30" height="30" fill="white"/>
</clipPath>
</defs>
</svg>
