<svg width="30" height="30" viewBox="0 0 30 30" fill="none" xmlns="http://www.w3.org/2000/svg">
<path d="M8.42926 16C7.71747 16 7.11203 15.7561 6.61295 15.2683C6.11402 14.7804 5.86456 14.188 5.86456 13.4912H4.84255C4.60388 13.4912 4.40375 13.4122 4.24216 13.2542C4.08072 13.0961 4 12.9003 4 12.6667V10.9824C4 10.0374 4.34121 9.23098 5.02364 8.56303C5.70607 7.89524 6.53021 7.56134 7.49605 7.56134H9.30677C9.77027 7.56134 10.167 7.72282 10.4971 8.04577C10.8271 8.36872 10.9921 8.75697 10.9921 9.21053V12.1228H14.5956L17.9842 8.01406V5.64896C17.9842 5.56716 17.9573 5.49995 17.9036 5.44734C17.8496 5.39474 17.7809 5.36843 17.6973 5.36843H15.8866C15.6885 5.36843 15.5224 5.30282 15.3883 5.1716C15.2543 5.04039 15.1874 4.87777 15.1874 4.68376C15.1874 4.4899 15.2543 4.32744 15.3883 4.19637C15.5224 4.06546 15.6885 4 15.8866 4H17.6973C18.1608 4 18.5576 4.16148 18.8876 4.48443C19.2176 4.80738 19.3826 5.19555 19.3826 5.64896V7.89615C19.3826 8.09397 19.3508 8.27779 19.2871 8.44763C19.2235 8.61731 19.1352 8.77689 19.0221 8.92635L15.8183 12.8683C15.6649 13.0622 15.4697 13.2145 15.2326 13.3252C14.9956 13.4359 14.7493 13.4912 14.4935 13.4912H10.9921C10.9921 14.1871 10.7429 14.7792 10.2446 15.2674C9.74634 15.7558 9.14121 16 8.42926 16ZM8.42833 14.6316C8.75214 14.6316 9.02732 14.5207 9.25386 14.299C9.48041 14.0775 9.59368 13.8082 9.59368 13.4912H7.26298C7.26298 13.8082 7.37617 14.0775 7.60256 14.299C7.82911 14.5207 8.10436 14.6316 8.42833 14.6316ZM10.2929 6.28072H7.49605C7.29794 6.28072 7.13184 6.21511 6.99775 6.08389C6.86381 5.95267 6.79684 5.79006 6.79684 5.59605C6.79684 5.40219 6.86381 5.23972 6.99775 5.10866C7.13184 4.97774 7.29794 4.91229 7.49605 4.91229H10.2929C10.491 4.91229 10.657 4.9779 10.791 5.10911C10.9251 5.24018 10.9921 5.40272 10.9921 5.59673C10.9921 5.79074 10.9251 5.95321 10.791 6.08412C10.657 6.21519 10.491 6.28072 10.2929 6.28072ZM19.4374 16C18.7254 16 18.12 15.7562 17.6211 15.2686C17.122 14.781 16.8725 14.1888 16.8725 13.4921C16.8725 12.7956 17.1216 12.2032 17.6199 11.715C18.1182 11.2266 18.7233 10.9824 19.4353 10.9824C20.1471 10.9824 20.7525 11.2262 21.2516 11.7138C21.7505 12.2015 22 12.7935 22 13.4901C22 14.1868 21.7508 14.7792 21.2525 15.2674C20.7542 15.7558 20.1492 16 19.4374 16ZM19.4362 14.6316C19.7602 14.6316 20.0355 14.5207 20.262 14.299C20.4884 14.0775 20.6016 13.8082 20.6016 13.4912C20.6016 13.1742 20.4884 12.9049 20.262 12.6834C20.0355 12.4617 19.7602 12.3509 19.4362 12.3509C19.1124 12.3509 18.8372 12.4617 18.6107 12.6834C18.3842 12.9049 18.2709 13.1742 18.2709 13.4912C18.2709 13.8082 18.3842 14.0775 18.6107 14.299C18.8372 14.5207 19.1124 14.6316 19.4362 14.6316ZM5.39842 12.1228H9.59368V9.21053C9.59368 9.12858 9.5668 9.0613 9.51304 9.00869C9.45912 8.95608 9.39037 8.92977 9.30677 8.92977H7.49605C6.91912 8.92977 6.42525 9.13078 6.01442 9.53279C5.60375 9.93466 5.39842 10.4179 5.39842 10.9824V12.1228Z" fill="#224488"/>
<path d="M17 12.7857C17 11.7995 17.6716 11 18.5 11H24.5C25.3284 11 26 11.7995 26 12.7857V24.2143C26 25.2005 25.3284 26 24.5 26H18.5C17.6716 26 17 25.2005 17 24.2143V12.7857Z" fill="white"/>
<path d="M24.5 25.2857V26H18.5V25.2857H24.5ZM25.4 24.2143V12.7857C25.4 12.194 24.9971 11.7143 24.5 11.7143H18.5C18.0029 11.7143 17.6 12.194 17.6 12.7857V24.2143C17.6 24.806 18.0029 25.2857 18.5 25.2857V26C17.6974 26 17.0422 25.2496 17.0021 24.306L17 24.2143V12.7857C17 11.7995 17.6716 11 18.5 11H24.5L24.5771 11.0024C25.3697 11.0502 26 11.8303 26 12.7857V24.2143L25.9979 24.306C25.9591 25.2192 25.3441 25.9513 24.5771 25.9976L24.5 26V25.2857C24.9971 25.2857 25.4 24.806 25.4 24.2143Z" fill="#FF9900"/>
<path d="M24.5 25.2857V26M24.5 25.2857H18.5M24.5 25.2857V26M24.5 25.2857C24.9971 25.2857 25.4 24.806 25.4 24.2143V12.7857C25.4 12.194 24.9971 11.7143 24.5 11.7143H18.5C18.0029 11.7143 17.6 12.194 17.6 12.7857V24.2143C17.6 24.806 18.0029 25.2857 18.5 25.2857M24.5 26H18.5M24.5 26L24.5771 25.9976C25.3441 25.9513 25.9591 25.2192 25.9979 24.306L26 24.2143V12.7857C26 11.8303 25.3697 11.0502 24.5771 11.0024L24.5 11H18.5C17.6716 11 17 11.7995 17 12.7857V24.2143L17.0021 24.306C17.0422 25.2496 17.6974 26 18.5 26M18.5 26V25.2857M18.5 26V25.2857" stroke="#FF9900" stroke-width="0.5"/>
<path d="M20.2144 12.875C20.2144 12.6679 20.3583 12.5 20.5358 12.5H22.4644C22.6419 12.5 22.7858 12.6679 22.7858 12.875C22.7858 13.0821 22.6419 13.25 22.4644 13.25H20.5358C20.3583 13.25 20.2144 13.0821 20.2144 12.875Z" fill="#333333"/>
<circle cx="21.5" cy="23.5" r="1" fill="#333333"/>
</svg>
