<svg width="30" height="30" viewBox="0 0 30 30" fill="none" xmlns="http://www.w3.org/2000/svg">
<path d="M8.99314 22.5C8.12585 22.5 7.38772 22.1961 6.77876 21.5884C6.16981 20.9809 5.86533 20.2431 5.86533 19.375H3.36533V16.25C3.36533 15.0352 3.79085 14.0024 4.64189 13.1516C5.49272 12.3005 6.52553 11.875 7.74033 11.875H12.1153V18.125H17.4038L22.1153 12.3028V9.13469C22.1153 8.91031 22.0432 8.72604 21.8991 8.58187C21.7549 8.4375 21.5706 8.36531 21.3463 8.36531H18.3653V7.11531H21.3463C21.9015 7.11531 22.3768 7.31302 22.7722 7.70844C23.1676 8.10385 23.3653 8.57927 23.3653 9.13469V12.6972L18.0769 19.375H12.1153C12.1153 20.2404 11.8118 20.9776 11.2047 21.5866C10.5976 22.1955 9.86043 22.5 8.99314 22.5ZM8.99033 21.25C9.5047 21.25 9.94585 21.0661 10.3138 20.6984C10.6815 20.3305 10.8653 19.8894 10.8653 19.375H7.11533C7.11533 19.8894 7.29928 20.3305 7.6672 20.6984C8.03491 21.0661 8.47595 21.25 8.99033 21.25ZM7.11533 9.61531V8.36531H12.1153V9.61531H7.11533ZM23.5125 22.5C22.6452 22.5 21.9071 22.1965 21.2981 21.5894C20.6892 20.9823 20.3847 20.2451 20.3847 19.3778C20.3847 18.5105 20.6882 17.7724 21.2953 17.1634C21.9024 16.5545 22.6396 16.25 23.5069 16.25C24.3742 16.25 25.1123 16.5535 25.7213 17.1606C26.3302 17.7677 26.6347 18.5049 26.6347 19.3722C26.6347 20.2395 26.3312 20.9776 25.7241 21.5866C25.117 22.1955 24.3798 22.5 23.5125 22.5ZM23.5097 21.25C24.0241 21.25 24.4651 21.0661 24.8328 20.6984C25.2007 20.3305 25.3847 19.8894 25.3847 19.375C25.3847 18.8606 25.2007 18.4195 24.8328 18.0516C24.4651 17.6839 24.0241 17.5 23.5097 17.5C22.9953 17.5 22.5542 17.6839 22.1863 18.0516C21.8186 18.4195 21.6347 18.8606 21.6347 19.375C21.6347 19.8894 21.8186 20.3305 22.1863 20.6984C22.5542 21.0661 22.9953 21.25 23.5097 21.25ZM4.61533 18.125H10.8653V13.125H7.73564C6.87501 13.125 6.13981 13.431 5.53001 14.0431C4.92022 14.655 4.61533 15.3906 4.61533 16.25V18.125Z" fill="#224488"/>
</svg>
