<svg width="36" height="36" viewBox="0 0 36 36" fill="none" xmlns="http://www.w3.org/2000/svg">
<rect x="6" y="4" width="29" height="14.875" fill="#002728"/>
<path d="M23.6797 11.6194L22.9037 14.8568C22.8903 14.9268 22.8667 14.9682 22.8331 14.9809C22.8063 14.9936 22.7492 15 22.6618 15H21.785C21.6976 15 21.6405 14.9905 21.6137 14.9714C21.5935 14.9586 21.5767 14.9204 21.5633 14.8568L20.8275 11.6194H20.1825L19.4569 14.8568C19.4434 14.9204 19.4233 14.9586 19.3964 14.9714C19.3763 14.9905 19.3225 15 19.2352 15H18.3483C18.2542 15 18.1937 14.9905 18.1669 14.9714C18.1467 14.9586 18.1299 14.9204 18.1165 14.8568L17.3303 11.6194H16.2016C16.1209 11.6194 16.0672 11.6098 16.0403 11.5907C16.0134 11.5653 16 11.5111 16 11.4284V10.7026C16 10.6198 16.0134 10.5689 16.0403 10.5498C16.0672 10.5243 16.1209 10.5116 16.2016 10.5116H17.0683L16.5442 8.23874C16.5241 8.14325 16.5241 8.07958 16.5442 8.04775C16.5711 8.01592 16.645 8 16.766 8H17.5722C17.6394 8 17.6898 8.00637 17.7234 8.0191C17.757 8.02547 17.7805 8.06685 17.794 8.14325L18.3281 10.5116H19.2956L19.7996 8.14325C19.813 8.07322 19.8365 8.03183 19.8701 8.0191C19.9037 8.00637 19.9574 8 20.0314 8H20.9686C21.0426 8 21.0963 8.00637 21.1299 8.0191C21.1635 8.03183 21.187 8.07322 21.2004 8.14325L21.7245 10.5116H22.7122L23.2363 8.14325C23.2497 8.07322 23.2699 8.03183 23.2968 8.0191C23.3236 8.00637 23.3774 8 23.458 8H24.2744C24.3819 8 24.4423 8.01592 24.4558 8.04775C24.4759 8.07322 24.4759 8.13688 24.4558 8.23874L23.9619 10.5116H24.7884C24.8824 10.5116 24.9395 10.5243 24.9597 10.5498C24.9866 10.5753 25 10.6262 25 10.7026V11.4284C25 11.5048 24.9866 11.5557 24.9597 11.5812C24.9395 11.6066 24.8824 11.6194 24.7884 11.6194H23.6797ZM20.3841 10.5116H20.6562L20.5151 9.71896L20.3841 10.5116ZM18.832 13.0423L19.084 11.6194H18.5801L18.832 13.0423ZM22.2184 13.0518L22.4703 11.6194H21.9563L22.2184 13.0518Z" fill="white"/>
<rect x="7.25" y="5.25" width="26.5" height="12.5" stroke="white" stroke-width="0.5"/>
<rect x="3" y="8" width="29" height="14.875" fill="#004444"/>
<path d="M20.6797 15.6194L19.9037 18.8568C19.8903 18.9268 19.8667 18.9682 19.8331 18.9809C19.8063 18.9936 19.7492 19 19.6618 19H18.785C18.6976 19 18.6405 18.9905 18.6137 18.9714C18.5935 18.9586 18.5767 18.9204 18.5633 18.8568L17.8275 15.6194H17.1825L16.4569 18.8568C16.4434 18.9204 16.4233 18.9586 16.3964 18.9714C16.3763 18.9905 16.3225 19 16.2352 19H15.3483C15.2542 19 15.1937 18.9905 15.1669 18.9714C15.1467 18.9586 15.1299 18.9204 15.1165 18.8568L14.3303 15.6194H13.2016C13.1209 15.6194 13.0672 15.6098 13.0403 15.5907C13.0134 15.5653 13 15.5111 13 15.4284V14.7026C13 14.6198 13.0134 14.5689 13.0403 14.5498C13.0672 14.5243 13.1209 14.5116 13.2016 14.5116H14.0683L13.5442 12.2387C13.5241 12.1432 13.5241 12.0796 13.5442 12.0477C13.5711 12.0159 13.645 12 13.766 12H14.5722C14.6394 12 14.6898 12.0064 14.7234 12.0191C14.757 12.0255 14.7805 12.0668 14.794 12.1432L15.3281 14.5116H16.2956L16.7996 12.1432C16.813 12.0732 16.8365 12.0318 16.8701 12.0191C16.9037 12.0064 16.9574 12 17.0314 12H17.9686C18.0426 12 18.0963 12.0064 18.1299 12.0191C18.1635 12.0318 18.187 12.0732 18.2004 12.1432L18.7245 14.5116H19.7122L20.2363 12.1432C20.2497 12.0732 20.2699 12.0318 20.2968 12.0191C20.3236 12.0064 20.3774 12 20.458 12H21.2744C21.3819 12 21.4423 12.0159 21.4558 12.0477C21.4759 12.0732 21.4759 12.1369 21.4558 12.2387L20.9619 14.5116H21.7884C21.8824 14.5116 21.9395 14.5243 21.9597 14.5498C21.9866 14.5753 22 14.6262 22 14.7026V15.4284C22 15.5048 21.9866 15.5557 21.9597 15.5812C21.9395 15.6066 21.8824 15.6194 21.7884 15.6194H20.6797ZM17.3841 14.5116H17.6562L17.5151 13.719L17.3841 14.5116ZM15.832 17.0423L16.084 15.6194H15.5801L15.832 17.0423ZM19.2184 17.0518L19.4703 15.6194H18.9563L19.2184 17.0518Z" fill="white"/>
<rect x="4.25" y="9.25" width="26.5" height="12.5" stroke="white" stroke-width="0.5"/>
<rect x="7" y="15" width="29" height="14.875" fill="#005E5F"/>
<path d="M24.6797 22.6194L23.9037 25.8568C23.8903 25.9268 23.8667 25.9682 23.8331 25.9809C23.8063 25.9936 23.7492 26 23.6618 26H22.785C22.6976 26 22.6405 25.9905 22.6137 25.9714C22.5935 25.9586 22.5767 25.9204 22.5633 25.8568L21.8275 22.6194H21.1825L20.4569 25.8568C20.4434 25.9204 20.4233 25.9586 20.3964 25.9714C20.3763 25.9905 20.3225 26 20.2352 26H19.3483C19.2542 26 19.1937 25.9905 19.1669 25.9714C19.1467 25.9586 19.1299 25.9204 19.1165 25.8568L18.3303 22.6194H17.2016C17.1209 22.6194 17.0672 22.6098 17.0403 22.5907C17.0134 22.5653 17 22.5111 17 22.4284V21.7026C17 21.6198 17.0134 21.5689 17.0403 21.5498C17.0672 21.5243 17.1209 21.5116 17.2016 21.5116H18.0683L17.5442 19.2387C17.5241 19.1432 17.5241 19.0796 17.5442 19.0477C17.5711 19.0159 17.645 19 17.766 19H18.5722C18.6394 19 18.6898 19.0064 18.7234 19.0191C18.757 19.0255 18.7805 19.0668 18.794 19.1432L19.3281 21.5116H20.2956L20.7996 19.1432C20.813 19.0732 20.8365 19.0318 20.8701 19.0191C20.9037 19.0064 20.9574 19 21.0314 19H21.9686C22.0426 19 22.0963 19.0064 22.1299 19.0191C22.1635 19.0318 22.187 19.0732 22.2004 19.1432L22.7245 21.5116H23.7122L24.2363 19.1432C24.2497 19.0732 24.2699 19.0318 24.2968 19.0191C24.3236 19.0064 24.3774 19 24.458 19H25.2744C25.3819 19 25.4423 19.0159 25.4558 19.0477C25.4759 19.0732 25.4759 19.1369 25.4558 19.2387L24.9619 21.5116H25.7884C25.8824 21.5116 25.9395 21.5243 25.9597 21.5498C25.9866 21.5753 26 21.6262 26 21.7026V22.4284C26 22.5048 25.9866 22.5557 25.9597 22.5812C25.9395 22.6066 25.8824 22.6194 25.7884 22.6194H24.6797ZM21.3841 21.5116H21.6562L21.5151 20.719L21.3841 21.5116ZM19.832 24.0423L20.084 22.6194H19.5801L19.832 24.0423ZM23.2184 24.0518L23.4703 22.6194H22.9563L23.2184 24.0518Z" fill="white"/>
<rect x="8.25" y="16.25" width="26.5" height="12.5" stroke="white" stroke-width="0.5"/>
<rect width="29" height="15" transform="translate(0 21)" fill="#009999"/>
<path d="M17.6797 28.6194L16.9037 31.8568C16.8903 31.9268 16.8667 31.9682 16.8331 31.9809C16.8063 31.9936 16.7492 32 16.6618 32H15.785C15.6976 32 15.6405 31.9905 15.6137 31.9714C15.5935 31.9586 15.5767 31.9204 15.5633 31.8568L14.8275 28.6194H14.1825L13.4569 31.8568C13.4434 31.9204 13.4233 31.9586 13.3964 31.9714C13.3763 31.9905 13.3225 32 13.2352 32H12.3483C12.2542 32 12.1937 31.9905 12.1669 31.9714C12.1467 31.9586 12.1299 31.9204 12.1165 31.8568L11.3303 28.6194H10.2016C10.1209 28.6194 10.0672 28.6098 10.0403 28.5907C10.0134 28.5653 10 28.5111 10 28.4284V27.7026C10 27.6198 10.0134 27.5689 10.0403 27.5498C10.0672 27.5243 10.1209 27.5116 10.2016 27.5116H11.0683L10.5442 25.2387C10.5241 25.1432 10.5241 25.0796 10.5442 25.0477C10.5711 25.0159 10.645 25 10.766 25H11.5722C11.6394 25 11.6898 25.0064 11.7234 25.0191C11.757 25.0255 11.7805 25.0668 11.794 25.1432L12.3281 27.5116H13.2956L13.7996 25.1432C13.813 25.0732 13.8365 25.0318 13.8701 25.0191C13.9037 25.0064 13.9574 25 14.0314 25H14.9686C15.0426 25 15.0963 25.0064 15.1299 25.0191C15.1635 25.0318 15.187 25.0732 15.2004 25.1432L15.7245 27.5116H16.7122L17.2363 25.1432C17.2497 25.0732 17.2699 25.0318 17.2968 25.0191C17.3236 25.0064 17.3774 25 17.458 25H18.2744C18.3819 25 18.4423 25.0159 18.4558 25.0477C18.4759 25.0732 18.4759 25.1369 18.4558 25.2387L17.9619 27.5116H18.7884C18.8824 27.5116 18.9395 27.5243 18.9597 27.5498C18.9866 27.5753 19 27.6262 19 27.7026V28.4284C19 28.5048 18.9866 28.5557 18.9597 28.5812C18.9395 28.6066 18.8824 28.6194 18.7884 28.6194H17.6797ZM14.3841 27.5116H14.6562L14.5151 26.719L14.3841 27.5116ZM12.832 30.0423L13.084 28.6194H12.5801L12.832 30.0423ZM16.2184 30.0518L16.4703 28.6194H15.9563L16.2184 30.0518Z" fill="white"/>
<rect x="1.25" y="22.25" width="26.5" height="12.5" stroke="white" stroke-width="0.5"/>
</svg>
