<svg width="30" height="30" viewBox="0 0 30 30" fill="none" xmlns="http://www.w3.org/2000/svg">
<path d="M12 6C9 6 6 15 3 15V28H27V3C24 3 21 12 18 12C15 12 15 6 12 6Z" fill="url(#paint0_linear_14_3513)"/>
<path d="M3 15C6 15 9 6 12 6C15 6 15 12 18 12C21 12 24 3 27 3" stroke="#333333"/>
<path d="M21.375 18.5156V27H19.6055V20.1914H19.5586L17.6133 21.4102V19.8516L19.7109 18.5156H21.375ZM23.3438 27L23.332 25.7227L26.3789 22.9219C27.1758 22.1602 27.5977 21.6914 27.5977 21.0234C27.5977 20.2734 27.0234 19.8047 26.25 19.8047C25.4531 19.8047 24.9375 20.3086 24.9375 21.1172H23.2617C23.25 19.4531 24.4805 18.3984 26.2734 18.3984C28.0898 18.3984 29.2969 19.4297 29.2969 20.9062C29.2969 21.8672 28.8281 22.6641 27.082 24.2461L25.793 25.5V25.5469H29.4141V27H23.3438Z" fill="#333333"/>
<defs>
<linearGradient id="paint0_linear_14_3513" x1="15" y1="3" x2="15" y2="28" gradientUnits="userSpaceOnUse">
<stop stop-opacity="0.1"/>
<stop offset="1" stop-opacity="0"/>
</linearGradient>
</defs>
</svg>
