<svg width="30" height="30" viewBox="0 0 30 30" fill="none" xmlns="http://www.w3.org/2000/svg">
<path d="M4 9.125C4 7.39911 5.36802 6 7.05556 6H22.9444C24.632 6 26 7.39911 26 9.125V22.875C26 24.6009 24.632 26 22.9444 26H7.05556C5.36802 26 4 24.6009 4 22.875V9.125Z" fill="white"/>
<path d="M22.9444 24.75V26H7.05556V24.75H22.9444ZM24.7778 22.875V9.125C24.7778 8.08947 23.957 7.25 22.9444 7.25H7.05556C6.04303 7.25 5.22222 8.08947 5.22222 9.125V22.875C5.22222 23.9105 6.04303 24.75 7.05556 24.75V26C5.36802 26 4 24.6009 4 22.875V9.125C4 7.39911 5.36802 6 7.05556 6H22.9444L23.1014 6.00427C24.716 6.08783 26 7.45295 26 9.125V22.875L25.9958 23.0355C25.9168 24.6336 24.664 25.9149 23.1014 25.9957L22.9444 26V24.75C23.957 24.75 24.7778 23.9105 24.7778 22.875Z" fill="#3366FF"/>
<path d="M20.8056 4C21.3118 4 21.7222 4.37776 21.7222 4.84375V6.25H22.9444C24.632 6.25 26 7.5092 26 9.0625V13H4V9.0625C4 7.5092 5.36802 6.25 7.05556 6.25H8.27778V4.84375C8.27778 4.37776 8.68818 4 9.19444 4C9.70071 4 10.1111 4.37776 10.1111 4.84375V6.25H19.8889V4.84375C19.8889 4.37776 20.2993 4 20.8056 4Z" fill="#3366FF"/>
<path d="M12.6244 16C13.8827 16 14.7335 16.7405 14.7264 17.6651C14.7336 18.2071 14.4487 18.6381 13.9903 18.8836C14.2211 18.9695 14.418 19.0935 14.5732 19.2524C14.8281 19.5135 14.9591 19.8556 14.9591 20.2413C14.9591 21.2883 13.9146 22 12.6078 22C11.3052 22 10.2944 21.3459 10.2565 20.3229L10.25 20.1505H11.5411L11.5518 20.3072C11.5761 20.6631 11.9668 20.9425 12.5995 20.9425C13.2685 20.9425 13.6721 20.6141 13.6721 20.2109C13.6721 19.9919 13.5731 19.8062 13.3854 19.6713C13.1941 19.5337 12.8988 19.4412 12.4998 19.4412H11.8023V18.4218H12.4998C12.8077 18.4218 13.0554 18.3426 13.2222 18.2183C13.3858 18.0963 13.481 17.9246 13.481 17.713C13.481 17.5054 13.3982 17.3409 13.2584 17.2267C13.1166 17.1109 12.9011 17.0346 12.6161 17.0346C12.056 17.0346 11.6534 17.3093 11.6349 17.6825L11.6272 17.8419H10.3847L10.3895 17.6705C10.4179 16.6492 11.4429 16 12.6244 16Z" fill="#3366FF"/>
<path d="M18.7406 20.8504H19.75V22H16.214V20.8504H17.3563V17.8942L17.364 17.7738L16.5771 18.4708L16.4722 18.3543L15.8539 17.6692L15.75 17.5537L15.8697 17.453L17.559 16.0367L17.6033 16H18.7406V20.8504ZM19.5931 21.0026L19.5936 21.8478V21.0026H19.5931Z" fill="#3366FF"/>
</svg>
