<svg width="30" height="30" viewBox="0 0 30 30" fill="none" xmlns="http://www.w3.org/2000/svg">
<mask id="mask0_777_1561" style="mask-type:luminance" maskUnits="userSpaceOnUse" x="0" y="0" width="30" height="30">
<path d="M30 0H0V30H30V0Z" fill="white"/>
</mask>
<g mask="url(#mask0_777_1561)">
<path d="M22.8071 17.49L21.7432 15.83C21.5197 15.46 21.3176 14.76 21.3176 14.35V11.82C21.3176 9.47 19.8493 7.44 17.7319 6.49C17.1787 5.57 16.1573 5 14.9869 5C13.8271 5 12.7845 5.59 12.2312 6.52C10.1564 7.49 8.72005 9.5 8.72005 11.82V14.35C8.72005 14.76 8.51789 15.46 8.29446 15.82L7.21983 17.49C6.79424 18.16 6.69848 18.9 6.96448 19.58C7.21983 20.25 7.8263 20.77 8.61365 21.02C10.6778 21.68 12.8483 22 15.0188 22C17.1893 22 19.3598 21.68 21.424 21.03C22.1688 20.8 22.7433 20.27 23.0199 19.58C23.2966 18.89 23.2221 18.13 22.8071 17.49Z" fill="#224488"/>
<path d="M18.0085 23.01C17.5617 24.17 16.3807 25 14.9975 25C14.1569 25 13.327 24.68 12.7419 24.11C12.4014 23.81 12.146 23.41 11.9971 23C12.1354 23.02 12.2737 23.03 12.4227 23.05C12.6674 23.08 12.9227 23.11 13.1781 23.13C13.7845 23.18 14.4016 23.21 15.0188 23.21C15.6252 23.21 16.2317 23.18 16.8275 23.13C17.051 23.11 17.2744 23.1 17.4872 23.07C17.6574 23.05 17.8277 23.03 18.0085 23.01Z" fill="#224488"/>
</g>
</svg>
