<svg width="20" height="20" viewBox="0 0 20 20" fill="none" xmlns="http://www.w3.org/2000/svg">
<g clip-path="url(#clip0_936_10524)">
<rect width="20" height="20" rx="10" fill="#3366FF" fill-opacity="0.3"/>
<path d="M9.54997 6.53964V14.565C9.54997 14.9747 9.11797 15.2574 8.72798 15.1016C7.61198 14.6516 6.22599 14.2593 5.24199 14.1323L5.05599 14.1092C4.474 14.04 4 13.5265 4 12.9669V6.10693C4 5.41458 4.582 4.85494 5.30199 4.85494H5.34399C6.47199 4.94725 8.13398 5.45497 9.23197 6.02615C9.42997 6.13 9.54997 6.3204 9.54997 6.53964Z" fill="#3366FF"/>
<path d="M14.6979 4.85494H14.6619C14.5179 4.86648 14.3619 4.88379 14.1999 4.91264C13.4619 5.02803 12.5859 5.27035 11.7999 5.57036C11.4279 5.7146 11.0799 5.87038 10.7739 6.02615C10.576 6.13 10.45 6.32617 10.45 6.53964V14.565C10.45 14.9747 10.8819 15.2574 11.2719 15.1016C12.3879 14.6516 13.7739 14.2593 14.7579 14.1323L14.9439 14.1092C15.5259 14.04 15.9999 13.5265 15.9999 12.9669V6.10693C15.9999 5.41458 15.4179 4.85494 14.6979 4.85494ZM14.3619 10.9995C14.3619 11.2245 14.1939 11.3226 13.9899 11.213L13.3539 10.8726C13.2879 10.8379 13.1799 10.8379 13.1079 10.8726L12.4719 11.213C12.2679 11.3226 12.0999 11.2245 12.0999 10.9995V9.22824C12.0999 8.96285 12.3279 8.74359 12.6039 8.74359H13.8639C14.1399 8.74359 14.3679 8.96285 14.3679 9.22824V10.9995H14.3619Z" fill="#3366FF"/>
</g>
<defs>
<clipPath id="clip0_936_10524">
<rect width="20" height="20" fill="white"/>
</clipPath>
</defs>
</svg>
