<svg width="30" height="30" viewBox="0 0 30 30" fill="none" xmlns="http://www.w3.org/2000/svg">
<path d="M12.9297 22L12.3516 19.5469H11.4922V18.7969H12.1719L11.5938 16.3438H12.6719L13.1797 18.7969H13.9375L14.5 16.3438H15.5078L16.0703 18.7969H16.8359L17.3359 16.3438H18.4141L17.8359 18.7969H18.5156V19.5469H17.6562L17.0781 22H15.9375L15.3828 19.5469H14.6328L14.0703 22H12.9297ZM13.3359 19.5469L13.5156 20.4297H13.5625L13.7656 19.5469H13.3359ZM14.8047 18.7969H15.2109L15.0234 17.9844H14.9844L14.8047 18.7969ZM16.2422 19.5469L16.4453 20.4375H16.4922L16.6797 19.5469H16.2422Z" fill="#224488"/>
<rect x="12" y="6" width="1" height="8" fill="#224488"/>
<rect x="17" y="2" width="1" height="8" fill="#224488"/>
<rect x="5" y="25" width="20" height="1" fill="#224488"/>
<path fill-rule="evenodd" clip-rule="evenodd" d="M11.3924 25C9.35958 23.7751 8 21.5463 8 19C8 15.134 11.134 12 15 12C18.866 12 22 15.134 22 19C22 21.5463 20.6404 23.7751 18.6076 25H20.2916C21.9525 23.5341 23 21.3894 23 19C23 14.5817 19.4183 11 15 11C10.5817 11 7 14.5817 7 19C7 21.3894 8.04751 23.5341 9.70835 25H11.3924Z" fill="#224488"/>
</svg>
