<svg width="36" height="36" viewBox="0 0 36 36" fill="none" xmlns="http://www.w3.org/2000/svg">
<g clip-path="url(#clip0_714_7651)">
<circle cx="18" cy="18" r="18" fill="#EF3346"/>
<path d="M4 16.5736H2.18182V15.9592C2.18182 15.8166 2.20756 15.7 2.25906 15.6094C2.30996 15.5183 2.37891 15.4508 2.46591 15.407C2.55291 15.3632 2.64998 15.3413 2.7571 15.3413C2.86423 15.3413 2.96159 15.3632 3.04918 15.407C3.13678 15.4502 3.20662 15.5171 3.2587 15.6077C3.31019 15.6982 3.33594 15.8142 3.33594 15.9557V16.396H3.14062V15.9628C3.14062 15.8651 3.12376 15.7867 3.09002 15.7275C3.05629 15.6683 3.01071 15.6254 2.9533 15.5988C2.8953 15.5715 2.8299 15.5579 2.7571 15.5579C2.6843 15.5579 2.6192 15.5715 2.56179 15.5988C2.50438 15.6254 2.4594 15.6686 2.42685 15.7284C2.3937 15.7882 2.37713 15.8675 2.37713 15.9663V16.3534H4V16.5736Z" fill="white"/>
<path d="M3.45038 13.1558C3.64057 13.1803 3.79944 13.2357 3.92701 13.3219C4.05457 13.4081 4.14636 13.5157 4.20237 13.6446C4.25838 13.7735 4.2741 13.9145 4.24953 14.0676C4.22497 14.2207 4.16556 14.352 4.07129 14.4615C3.97703 14.5711 3.85515 14.6511 3.70564 14.7016C3.55614 14.7522 3.3863 14.7652 3.19611 14.7407C3.00592 14.7162 2.84704 14.6608 2.71948 14.5746C2.59192 14.4883 2.50013 14.3808 2.44412 14.2519C2.38811 14.123 2.37239 13.982 2.39695 13.8289C2.42152 13.6758 2.48093 13.5445 2.57519 13.4349C2.66945 13.3254 2.79134 13.2454 2.94084 13.1948C3.09034 13.1443 3.26019 13.1313 3.45038 13.1558ZM3.41662 13.3662C3.26048 13.3461 3.12453 13.3551 3.00876 13.3933C2.89309 13.4308 2.80058 13.4902 2.73125 13.5713C2.66201 13.6519 2.61867 13.7465 2.60123 13.8552C2.58379 13.9639 2.59558 14.0659 2.6366 14.1613C2.67772 14.256 2.74781 14.3363 2.84689 14.4022C2.94606 14.4675 3.07372 14.5102 3.22986 14.5303C3.386 14.5504 3.52191 14.5417 3.63758 14.5041C3.75335 14.4659 3.84585 14.4066 3.91509 14.326C3.98443 14.2449 4.02782 14.15 4.04526 14.0413C4.0627 13.9326 4.05086 13.8308 4.00974 13.7361C3.96872 13.6407 3.89863 13.5604 3.79945 13.4951C3.70038 13.4293 3.57277 13.3863 3.41662 13.3662Z" fill="white"/>
<path d="M2.88942 11.899L4.64774 12.3617L4.57919 12.5709L2.82086 12.1082L2.88942 11.899Z" fill="white"/>
<path d="M4.15773 9.38426L5.84044 10.0729L5.7437 10.2628L3.97265 10.6048L3.96459 10.6206L5.28578 11.1613L5.18581 11.3575L3.5031 10.6688L3.59984 10.479L5.37579 10.1351L5.38385 10.1193L4.05937 9.57726L4.15773 9.38426Z" fill="white"/>
<path d="M4.66243 9.05957L4.49318 8.96209L5.28786 7.85395L5.45711 7.95142L5.12392 8.41603L6.53024 9.22597L6.40193 9.40488L4.99562 8.59495L4.66243 9.05957Z" fill="white"/>
<path d="M8.70243 7.10304L7.43859 5.79595L7.92382 5.41916C8.03648 5.33168 8.14646 5.27867 8.25378 5.26015C8.36115 5.24084 8.46237 5.24903 8.55744 5.28471C8.65251 5.3204 8.73728 5.37675 8.81174 5.45376C8.88621 5.53077 8.93659 5.61419 8.96288 5.70403C8.98964 5.7935 8.98537 5.88473 8.95005 5.97771C8.91432 6.07026 8.84059 6.15992 8.72887 6.24668L8.38107 6.51675L8.24531 6.37634L8.58749 6.11062C8.66462 6.05073 8.71484 5.9905 8.73814 5.92995C8.76143 5.8694 8.76364 5.81032 8.74477 5.75271C8.72596 5.69432 8.69125 5.63895 8.64065 5.58662C8.59005 5.53428 8.53404 5.49583 8.47263 5.47125C8.41169 5.44632 8.34629 5.44048 8.27645 5.45374C8.2062 5.46658 8.13204 5.5033 8.05397 5.56392L7.74825 5.80133L8.87633 6.96801L8.70243 7.10304Z" fill="white"/>
<path d="M11.0783 4.53329C11.19 4.68912 11.2566 4.84107 11.278 4.98914C11.2994 5.1372 11.2799 5.27215 11.2194 5.39397C11.1589 5.51579 11.0615 5.6154 10.9271 5.69278C10.7927 5.77017 10.6511 5.80822 10.5024 5.80691C10.3536 5.8056 10.2085 5.76548 10.0671 5.68653C9.92569 5.60758 9.79911 5.49019 9.68736 5.33436C9.5756 5.17852 9.50903 5.02657 9.48764 4.87851C9.46624 4.73044 9.48579 4.5955 9.54626 4.47367C9.60674 4.35185 9.70417 4.25225 9.83854 4.17486C9.97292 4.09747 10.1145 4.05943 10.2633 4.06073C10.412 4.06204 10.5571 4.10217 10.6985 4.18112C10.84 4.26006 10.9665 4.37745 11.0783 4.53329ZM10.8936 4.63962C10.8019 4.51169 10.7016 4.41685 10.5929 4.35513C10.4846 4.2931 10.3756 4.26179 10.2657 4.26118C10.1563 4.26028 10.054 4.28729 9.95857 4.34223C9.86318 4.39718 9.79297 4.46955 9.74795 4.55937C9.70344 4.64888 9.68992 4.75079 9.70739 4.8651C9.72538 4.97911 9.78024 5.10008 9.87199 5.22802C9.96374 5.35596 10.0637 5.45094 10.172 5.51296C10.2808 5.57469 10.3898 5.606 10.4992 5.60691C10.609 5.60752 10.7117 5.58035 10.8071 5.52541C10.9025 5.47047 10.9724 5.39824 11.0169 5.30872C11.0619 5.21891 11.0755 5.117 11.0575 5.00299C11.04 4.88868 10.9854 4.76756 10.8936 4.63962Z" fill="white"/>
<path d="M11.8766 3.2244L12.7022 4.84436L12.4984 4.92776L11.6729 3.3078L11.8766 3.2244Z" fill="white"/>
<path d="M14.6688 2.45891L15.2349 4.18671L15.0288 4.24093L13.6262 3.13646L13.609 3.14098L14.0535 4.49757L13.8406 4.5536L13.2745 2.8258L13.4805 2.77158L14.8877 3.87852L14.9049 3.874L14.4593 2.51403L14.6688 2.45891Z" fill="white"/>
<path d="M15.3996 2.56767L15.3687 2.37482L16.7212 2.20056L16.7521 2.39341L16.1851 2.46647L16.4421 4.06885L16.2238 4.09698L15.9667 2.49461L15.3996 2.56767Z" fill="white"/>
<path d="M19.6758 4.08404L19.9639 2.28882L20.5732 2.36733C20.7146 2.38556 20.8262 2.42588 20.9078 2.48829C20.9902 2.5502 21.0462 2.6269 21.0758 2.7184C21.1055 2.8099 21.1118 2.90854 21.0949 3.01431C21.0779 3.12008 21.0408 3.21342 20.9834 3.29431C20.9267 3.37528 20.8493 3.43569 20.7513 3.47554C20.6533 3.51481 20.5342 3.52541 20.3939 3.50733L19.9571 3.45106L19.9881 3.25821L20.4178 3.31357C20.5146 3.32605 20.5951 3.31942 20.6591 3.29367C20.7231 3.26793 20.7729 3.22841 20.8084 3.17513C20.8446 3.12134 20.8685 3.05851 20.88 2.98663C20.8916 2.91475 20.8884 2.84873 20.8705 2.78856C20.8531 2.72847 20.8174 2.67854 20.7633 2.63876C20.7092 2.5984 20.6332 2.5719 20.5352 2.55927L20.1513 2.5098L19.8942 4.11218L19.6758 4.08404Z" fill="white"/>
<path d="M23.3772 3.93566C23.3175 4.11789 23.2324 4.26656 23.1219 4.38167C23.0115 4.49679 22.8861 4.57498 22.7457 4.61624C22.6054 4.65751 22.4602 4.65842 22.3102 4.61896C22.1603 4.57949 22.0387 4.50841 21.9455 4.40569C21.8524 4.30297 21.794 4.17644 21.7705 4.02608C21.7471 3.87572 21.7652 3.70943 21.8249 3.5272C21.8846 3.34497 21.9697 3.1963 22.0801 3.08119C22.1906 2.96608 22.316 2.88789 22.4564 2.84662C22.5967 2.80535 22.7419 2.80445 22.8918 2.84391C23.0418 2.88337 23.1634 2.95446 23.2565 3.05717C23.3497 3.15989 23.408 3.28643 23.4315 3.43678C23.455 3.58714 23.4369 3.75343 23.3772 3.93566ZM23.1711 3.88144C23.2201 3.73183 23.236 3.59886 23.2188 3.48253C23.2022 3.36635 23.1593 3.27046 23.0902 3.19485C23.0217 3.11939 22.9342 3.06765 22.8277 3.03964C22.7212 3.01162 22.6161 3.01268 22.5124 3.04281C22.4092 3.07308 22.3153 3.13298 22.2306 3.2225C22.1465 3.31218 22.08 3.43182 22.0309 3.58142C21.9819 3.73103 21.9657 3.86392 21.9824 3.9801C21.9996 4.09643 22.0425 4.19233 22.111 4.26779C22.1801 4.3434 22.2679 4.39521 22.3744 4.42323C22.4808 4.45124 22.5856 4.45011 22.6888 4.41983C22.7926 4.38971 22.8865 4.32981 22.9706 4.24013C23.0553 4.15061 23.1221 4.03105 23.1711 3.88144Z" fill="white"/>
<path d="M24.9313 3.65566L24.1058 5.27562L23.902 5.19222L24.7275 3.57226L24.9313 3.65566Z" fill="white"/>
<path d="M27.5572 5.00727L26.4976 6.48479L26.313 6.37846L26.2863 4.7239L26.2709 4.71504L25.439 5.87513L25.2482 5.76525L26.3078 4.28772L26.4924 4.39406L26.5201 6.05327L26.5354 6.06213L27.3695 4.89916L27.5572 5.00727Z" fill="white"/>
<path d="M27.9271 5.54928L28.0629 5.40887L29.14 6.24522L29.0042 6.38563L28.5526 6.03497L27.4245 7.20165L27.2506 7.06662L28.3787 5.89994L27.9271 5.54928Z" fill="white"/>
<path d="M29.5806 9.38067L31.1562 8.47327L31.5142 8.97251C31.5973 9.08842 31.643 9.19602 31.6511 9.2953C31.6601 9.39478 31.6397 9.48402 31.5898 9.56303C31.54 9.64204 31.4686 9.70828 31.3758 9.76174C31.2829 9.81521 31.1858 9.846 31.0844 9.85413C30.9833 9.86273 30.8838 9.84324 30.7859 9.79564C30.6885 9.74775 30.5986 9.66633 30.5162 9.55138L30.2595 9.19354L30.4288 9.09607L30.6813 9.44814C30.7382 9.5275 30.7985 9.5828 30.8622 9.61406C30.9259 9.64532 30.9904 9.65745 31.0557 9.65044C31.1218 9.64362 31.1864 9.62204 31.2495 9.58571C31.3126 9.54938 31.3611 9.50582 31.395 9.45505C31.4292 9.40475 31.443 9.34719 31.4364 9.28237C31.4303 9.21725 31.3984 9.14453 31.3408 9.06421L31.1152 8.74966L29.7089 9.55959L29.5806 9.38067Z" fill="white"/>
<path d="M32.13 11.9442C31.9525 12.0169 31.7834 12.0488 31.6227 12.04C31.462 12.0312 31.3192 11.9874 31.1942 11.9085C31.0693 11.8296 30.9716 11.7211 30.9012 11.5829C30.8308 11.4448 30.8032 11.3076 30.8185 11.1713C30.8338 11.035 30.8904 10.9096 30.9882 10.795C31.086 10.6804 31.2237 10.5868 31.4012 10.5141C31.5786 10.4415 31.7477 10.4096 31.9084 10.4184C32.0692 10.4272 32.212 10.471 32.3369 10.5499C32.4619 10.6288 32.5595 10.7373 32.6299 10.8754C32.7003 11.0136 32.7279 11.1508 32.7126 11.2871C32.6973 11.4233 32.6408 11.5488 32.5429 11.6634C32.4451 11.778 32.3074 11.8716 32.13 11.9442ZM32.0332 11.7544C32.1789 11.6948 32.2899 11.621 32.3663 11.533C32.4429 11.4456 32.4866 11.3515 32.4975 11.2508C32.5087 11.1507 32.4893 11.0515 32.4393 10.9534C32.3893 10.8554 32.3183 10.777 32.2262 10.7185C32.1344 10.6605 32.0265 10.6285 31.9023 10.6226C31.7784 10.6172 31.6436 10.6443 31.4979 10.704C31.3522 10.7636 31.2411 10.8371 31.1645 10.9246C31.0881 11.0125 31.0444 11.1066 31.0332 11.2067C31.0223 11.3074 31.0418 11.4068 31.0918 11.5049C31.1418 11.603 31.2127 11.6811 31.3045 11.7391C31.3966 11.7976 31.5045 11.8296 31.6284 11.835C31.7526 11.8409 31.8875 11.814 32.0332 11.7544Z" fill="white"/>
<path d="M33.2901 12.6815L31.5317 13.1442L31.4632 12.935L33.2215 12.4723L33.2901 12.6815Z" fill="white"/>
<path d="M33.8478 15.5116L32.0445 15.7439L32.0107 15.5335L33.2697 14.3729L33.2668 14.3553L31.851 14.5378L31.8161 14.3204L33.6194 14.088L33.6531 14.2984L32.3913 15.463L32.3941 15.4806L33.8135 15.2977L33.8478 15.5116Z" fill="white"/>
<path d="M33.6229 16.0041H33.8182V17.3677H33.6229V16.796H32V16.5758H33.6229V16.0041Z" fill="white"/>
<path d="M32 19.4264L33.8182 19.4264L33.8182 20.0408C33.8182 20.1834 33.7924 20.3 33.7409 20.3906C33.69 20.4817 33.6211 20.5492 33.5341 20.593C33.4471 20.6368 33.35 20.6587 33.2429 20.6587C33.1358 20.6587 33.0384 20.6368 32.9508 20.593C32.8632 20.5498 32.7934 20.4829 32.7413 20.3923C32.6898 20.3018 32.6641 20.1858 32.6641 20.0443L32.6641 19.604L32.8594 19.604L32.8594 20.0372C32.8594 20.1349 32.8762 20.2133 32.91 20.2725C32.9437 20.3317 32.9893 20.3746 33.0467 20.4012C33.1047 20.4285 33.1701 20.4421 33.2429 20.4421C33.3157 20.4421 33.3808 20.4285 33.4382 20.4012C33.4956 20.3746 33.5406 20.3314 33.5732 20.2716C33.6063 20.2118 33.6229 20.1325 33.6229 20.0337L33.6229 19.6466L32 19.6466L32 19.4264Z" fill="white"/>
<path d="M32.5496 22.8442C32.3594 22.8197 32.2005 22.7643 32.0729 22.6781C31.9454 22.5919 31.8536 22.4843 31.7976 22.3554C31.7416 22.2265 31.7258 22.0855 31.7504 21.9324C31.775 21.7793 31.8344 21.648 31.9286 21.5385C32.0229 21.4289 32.1448 21.3489 32.2943 21.2984C32.4438 21.2479 32.6136 21.2348 32.8038 21.2594C32.994 21.2839 33.1529 21.3392 33.2805 21.4254C33.408 21.5117 33.4998 21.6192 33.5558 21.7481C33.6118 21.877 33.6276 22.018 33.603 22.1711C33.5784 22.3242 33.519 22.4556 33.4247 22.5651C33.3305 22.6746 33.2086 22.7546 33.0591 22.8052C32.9096 22.8557 32.7398 22.8687 32.5496 22.8442ZM32.5833 22.6338C32.7395 22.6539 32.8754 22.6449 32.9912 22.6067C33.1068 22.5692 33.1994 22.5098 33.2687 22.4287C33.3379 22.3481 33.3813 22.2535 33.3987 22.1448C33.4161 22.0361 33.4044 21.9341 33.3633 21.8387C33.3222 21.744 33.2521 21.6637 33.1531 21.5978C33.0539 21.5325 32.9262 21.4898 32.7701 21.4697C32.6139 21.4496 32.478 21.4583 32.3624 21.4959C32.2466 21.5341 32.1541 21.5935 32.0848 21.674C32.0155 21.7551 31.9721 21.85 31.9547 21.9587C31.9372 22.0674 31.9491 22.1692 31.9902 22.2639C32.0312 22.3593 32.1013 22.4396 32.2005 22.5049C32.2996 22.5707 32.4272 22.6137 32.5833 22.6338Z" fill="white"/>
<path d="M33.1105 24.101L31.3522 23.6383L31.4207 23.4291L33.1791 23.8918L33.1105 24.101Z" fill="white"/>
<path d="M31.8422 26.6157L30.1595 25.9271L30.2562 25.7372L32.0273 25.3952L32.0353 25.3794L30.7142 24.8387L30.8141 24.6425L32.4968 25.3312L32.4001 25.521L30.6241 25.8649L30.6161 25.8807L31.9406 26.4227L31.8422 26.6157Z" fill="white"/>
<path d="M31.3375 26.9404L31.5068 27.0379L30.7121 28.1461L30.5428 28.0486L30.876 27.584L29.4697 26.774L29.598 26.5951L31.0043 27.405L31.3375 26.9404Z" fill="white"/>
<path d="M27.2975 28.897L28.5614 30.204L28.0761 30.5808C27.9635 30.6683 27.8535 30.7213 27.7462 30.7398C27.6388 30.7592 27.5376 30.751 27.4425 30.7153C27.3474 30.6796 27.2627 30.6233 27.1882 30.5462C27.1137 30.4692 27.0634 30.3858 27.0371 30.296C27.0103 30.2065 27.0146 30.1153 27.0499 30.0223C27.0856 29.9297 27.1593 29.8401 27.2711 29.7533L27.6189 29.4833L27.7546 29.6237L27.4124 29.8894C27.3353 29.9493 27.2851 30.0095 27.2618 30.07C27.2385 30.1306 27.2363 30.1897 27.2552 30.2473C27.274 30.3057 27.3087 30.361 27.3593 30.4134C27.4099 30.4657 27.4659 30.5042 27.5273 30.5287C27.5883 30.5537 27.6536 30.5595 27.7235 30.5463C27.7937 30.5334 27.8679 30.4967 27.946 30.4361L28.2517 30.1987L27.1236 29.032L27.2975 28.897Z" fill="white"/>
<path d="M24.9217 31.4667C24.8099 31.3109 24.7433 31.1589 24.7219 31.0108C24.7005 30.8628 24.7201 30.7278 24.7806 30.606C24.841 30.4842 24.9385 30.3846 25.0728 30.3072C25.2072 30.2298 25.3488 30.1918 25.4976 30.1931C25.6463 30.1944 25.7914 30.2345 25.9328 30.3135C26.0743 30.3924 26.2008 30.5098 26.3126 30.6656C26.4243 30.8215 26.4909 30.9734 26.5123 31.1215C26.5337 31.2695 26.5142 31.4045 26.4537 31.5263C26.3932 31.6481 26.2958 31.7477 26.1614 31.8251C26.027 31.9025 25.8854 31.9406 25.7367 31.9393C25.5879 31.9379 25.4428 31.8978 25.3014 31.8189C25.16 31.7399 25.0334 31.6225 24.9217 31.4667ZM25.1063 31.3604C25.198 31.4883 25.2983 31.5831 25.4071 31.6449C25.5153 31.7069 25.6244 31.7382 25.7342 31.7388C25.8436 31.7397 25.946 31.7127 26.0414 31.6577C26.1368 31.6028 26.207 31.5304 26.252 31.4406C26.2965 31.3511 26.31 31.2492 26.2925 31.1349C26.2746 31.0209 26.2197 30.8999 26.1279 30.772C26.0362 30.644 25.9362 30.549 25.8279 30.487C25.7192 30.4253 25.6101 30.394 25.5008 30.3931C25.3909 30.3925 25.2883 30.4196 25.1929 30.4746C25.0975 30.5295 25.0275 30.6017 24.983 30.6913C24.938 30.7811 24.9245 30.883 24.9425 30.997C24.9599 31.1113 25.0145 31.2324 25.1063 31.3604Z" fill="white"/>
<path d="M24.1233 32.7756L23.2978 31.1556L23.5015 31.0722L24.3271 32.6922L24.1233 32.7756Z" fill="white"/>
<path d="M21.3312 33.5411L20.765 31.8133L20.9711 31.7591L22.3737 32.8635L22.3909 32.859L21.9464 31.5024L22.1593 31.4464L22.7255 33.1742L22.5194 33.2284L21.1122 32.1215L21.0951 32.126L21.5407 33.486L21.3312 33.5411Z" fill="white"/>
<path d="M20.6003 33.4323L20.6312 33.6252L19.2788 33.7994L19.2478 33.6066L19.8149 33.5335L19.5578 31.9312L19.7762 31.903L20.0332 33.5054L20.6003 33.4323Z" fill="white"/>
<path d="M16.3241 31.9159L16.0361 33.7112L15.4268 33.6327C15.2853 33.6144 15.1737 33.5741 15.0921 33.5117C15.0098 33.4498 14.9538 33.3731 14.9241 33.2816C14.8944 33.1901 14.8881 33.0914 14.9051 32.9857C14.922 32.8799 14.9592 32.7866 15.0165 32.7057C15.0732 32.6247 15.1506 32.5643 15.2487 32.5244C15.3467 32.4852 15.4658 32.4746 15.6061 32.4927L16.0428 32.5489L16.0119 32.7418L15.5822 32.6864C15.4853 32.6739 15.4049 32.6806 15.3408 32.7063C15.2768 32.7321 15.227 32.7716 15.1915 32.8249C15.1553 32.8786 15.1315 32.9415 15.1199 33.0134C15.1084 33.0852 15.1116 33.1513 15.1295 33.2114C15.1468 33.2715 15.1825 33.3214 15.2367 33.3612C15.2907 33.4016 15.3667 33.4281 15.4648 33.4407L15.8487 33.4902L16.1057 31.8878L16.3241 31.9159Z" fill="white"/>
<path d="M12.6228 32.0643C12.6825 31.8821 12.7676 31.7334 12.878 31.6183C12.9885 31.5032 13.1139 31.425 13.2542 31.3838C13.3946 31.3425 13.5397 31.3416 13.6897 31.3811C13.8397 31.4205 13.9612 31.4916 14.0544 31.5943C14.1476 31.697 14.2059 31.8236 14.2294 31.9739C14.2529 32.1243 14.2348 32.2906 14.175 32.4728C14.1153 32.655 14.0303 32.8037 13.9198 32.9188C13.8093 33.0339 13.6839 33.1121 13.5436 33.1534C13.4032 33.1947 13.2581 33.1956 13.1081 33.1561C12.9581 33.1166 12.8366 33.0456 12.7434 32.9428C12.6502 32.8401 12.5919 32.7136 12.5684 32.5632C12.5449 32.4129 12.5631 32.2466 12.6228 32.0643ZM12.8288 32.1186C12.7798 32.2682 12.7639 32.4011 12.7811 32.5175C12.7978 32.6337 12.8406 32.7295 12.9097 32.8052C12.9783 32.8806 13.0658 32.9324 13.1722 32.9604C13.2787 32.9884 13.3838 32.9873 13.4876 32.9572C13.5907 32.9269 13.6847 32.867 13.7693 32.7775C13.8534 32.6878 13.92 32.5682 13.969 32.4186C14.018 32.269 14.0342 32.1361 14.0176 32.0199C14.0003 31.9036 13.9575 31.8077 13.8889 31.7322C13.8198 31.6566 13.732 31.6048 13.6256 31.5768C13.5191 31.5488 13.4143 31.5499 13.3111 31.5802C13.2074 31.6103 13.1134 31.6702 13.0294 31.7599C12.9447 31.8494 12.8778 31.969 12.8288 32.1186Z" fill="white"/>
<path d="M11.0686 32.3443L11.8942 30.7244L12.0979 30.8078L11.2724 32.4277L11.0686 32.3443Z" fill="white"/>
<path d="M8.44277 30.9927L9.50235 29.5152L9.68699 29.6215L9.71361 31.2761L9.729 31.2849L10.5609 30.1249L10.7517 30.2347L9.69214 31.7123L9.50751 31.6059L9.47988 29.9467L9.46449 29.9379L8.63049 31.1008L8.44277 30.9927Z" fill="white"/>
<path d="M8.07279 30.4507L7.93703 30.5911L6.85998 29.7548L6.99575 29.6144L7.44732 29.965L8.5754 28.7984L8.7493 28.9334L7.62122 30.1001L8.07279 30.4507Z" fill="white"/>
<path d="M6.41933 26.6193L4.84376 27.5267L4.48574 27.0275C4.40262 26.9116 4.35698 26.804 4.34883 26.7047C4.33982 26.6052 4.36025 26.516 4.41012 26.437C4.45999 26.358 4.53134 26.2917 4.62417 26.2383C4.717 26.1848 4.81413 26.154 4.91556 26.1459C5.01664 26.1373 5.11614 26.1568 5.21404 26.2044C5.31144 26.2522 5.40135 26.3337 5.48378 26.4486L5.7404 26.8065L5.57115 26.9039L5.31867 26.5519C5.26176 26.4725 5.20144 26.4172 5.13772 26.3859C5.07399 26.3547 5.0095 26.3425 4.94423 26.3496C4.8781 26.3564 4.81349 26.378 4.75041 26.4143C4.68732 26.4506 4.63884 26.4942 4.60496 26.545C4.57073 26.5952 4.55693 26.6528 4.56356 26.7176C4.56967 26.7827 4.60153 26.8555 4.65913 26.9358L4.8847 27.2503L6.29102 26.4404L6.41933 26.6193Z" fill="white"/>
<path d="M3.86997 24.0558C4.04745 23.9831 4.21654 23.9512 4.37725 23.96C4.53796 23.9688 4.68079 24.0126 4.80572 24.0915C4.93065 24.1704 5.02832 24.2789 5.09873 24.4171C5.16914 24.5552 5.1967 24.6924 5.1814 24.8287C5.16611 24.965 5.10955 25.0904 5.01172 25.205C4.91389 25.3196 4.77624 25.4132 4.59877 25.4859C4.42129 25.5585 4.2522 25.5904 4.09149 25.5816C3.93078 25.5728 3.78795 25.529 3.66302 25.4501C3.53809 25.3712 3.44042 25.2627 3.37001 25.1246C3.2996 24.9864 3.27204 24.8492 3.28734 24.7129C3.30263 24.5767 3.35919 24.4512 3.45702 24.3366C3.55485 24.222 3.6925 24.1284 3.86997 24.0558ZM3.96672 24.2456C3.82101 24.3052 3.71 24.379 3.63368 24.467C3.55708 24.5544 3.51333 24.6485 3.50242 24.7492C3.49124 24.8493 3.51064 24.9485 3.56063 25.0466C3.61061 25.1446 3.68164 25.223 3.7737 25.2815C3.8655 25.3395 3.97348 25.3715 4.09764 25.3774C4.22153 25.3828 4.35632 25.3557 4.50203 25.296C4.64773 25.2364 4.75888 25.1629 4.83547 25.0754C4.91179 24.9875 4.95554 24.8934 4.96672 24.7933C4.97763 24.6926 4.9581 24.5932 4.90811 24.4951C4.85813 24.397 4.78724 24.3189 4.69544 24.2609C4.60337 24.2024 4.49539 24.1704 4.37151 24.165C4.24735 24.1591 4.11242 24.186 3.96672 24.2456Z" fill="white"/>
<path d="M2.70987 23.3185L4.4682 22.8558L4.53675 23.065L2.77842 23.5277L2.70987 23.3185Z" fill="white"/>
<path d="M2.15216 20.4884L3.95544 20.2561L3.98919 20.4665L2.73029 21.6271L2.7331 21.6447L4.14895 21.4622L4.18383 21.6796L2.38056 21.912L2.3468 21.7016L3.60867 20.537L3.60585 20.5194L2.18648 20.7023L2.15216 20.4884Z" fill="white"/>
<path d="M2.37707 19.9959L2.18176 19.9959L2.18176 18.6323L2.37707 18.6323L2.37707 19.204L3.99994 19.204L3.99994 19.4242L2.37707 19.4242L2.37707 19.9959Z" fill="white"/>
<path d="M13 26V10H19.2762C22.9227 10 25 12.232 25 15.3923C25 18.5967 22.8785 20.7845 19.1878 20.7845H16.3149V26H13ZM16.3149 18.1105H18.6575C20.6243 18.1105 21.5746 17.0055 21.5746 15.3923C21.5746 13.8011 20.6243 12.7182 18.6575 12.7182H16.3149V18.1105Z" fill="white"/>
</g>
<defs>
<clipPath id="clip0_714_7651">
<rect width="36" height="36" fill="white"/>
</clipPath>
</defs>
</svg>
