<svg width="36" height="36" viewBox="0 0 36 36" fill="none" xmlns="http://www.w3.org/2000/svg">
<path d="M16.1714 13.751C16.4103 14.0316 16.8182 14.0793 17.1129 13.8724L17.1703 13.8278L22.1238 9.5384L24.4141 12.314C24.5401 12.4667 24.7238 12.5592 24.9205 12.57C25.1171 12.5808 25.3094 12.5091 25.451 12.3712L32.7841 5.2281C33.0654 4.95413 33.0736 4.50179 32.8021 4.21802C32.5473 3.95201 32.1372 3.92855 31.8551 4.15244L31.8005 4.19988L25.0152 10.8087L22.7533 8.06652C22.6319 7.91962 22.4573 7.82796 22.2684 7.81191C22.0793 7.79591 21.8914 7.85684 21.7475 7.98142L16.2475 12.7437L16.1949 12.794C15.9475 13.0563 15.9325 13.4704 16.1714 13.751Z" fill="#224488"/>
<path d="M31.6406 7.33333C31.6406 7.70152 31.945 8 32.3205 8C32.6959 7.99983 33.0005 7.70142 33.0005 7.33333V4.66667C33.0005 4.29858 32.6959 4.00017 32.3205 4H29.6804C29.3049 4 29.0005 4.29848 29.0005 4.66667C29.0005 5.03486 29.3049 5.33333 29.6804 5.33333H31.6406V7.33333Z" fill="#224488"/>
<path d="M9.57302 31.7408L3.92698 28.4186C3.63646 28.2458 3.4093 28.016 3.2455 27.7293C3.08183 27.4425 3 27.1262 3 26.7805V20.2195C3 19.8738 3.08183 19.5575 3.2455 19.2707C3.4093 18.984 3.63646 18.7542 3.92698 18.5814L9.57302 15.2592C9.86354 15.0864 10.1725 15 10.5 15C10.8275 15 11.1365 15.0864 11.427 15.2592L17.073 18.5814C17.3635 18.7542 17.5907 18.984 17.7545 19.2707C17.9182 19.5575 18 19.8738 18 20.2195V26.7805C18 27.1262 17.9182 27.4425 17.7545 27.7293C17.5907 28.016 17.3635 28.2458 17.073 28.4186L11.427 31.7408C11.1365 31.9136 10.8275 32 10.5 32C10.1725 32 9.86354 31.9136 9.57302 31.7408ZM9.59747 24.0294V29.5681L10.5 30.1025L11.4025 29.5681V24.0294L16.146 21.216V20.2403L15.1775 19.6642L10.5 22.4362L5.82251 19.6642L4.85396 20.2403V21.216L9.59747 24.0294Z" fill="#3366FF"/>
</svg>
