<svg width="30" height="30" viewBox="0 0 30 30" fill="none" xmlns="http://www.w3.org/2000/svg">
<g clip-path="url(#clip0_925_4930)">
<circle cx="15" cy="15" r="15" fill="#224488" fill-opacity="0.3"/>
<path d="M15.9888 23.7256L22.0112 20.2079C22.3211 20.025 22.5634 19.7817 22.7381 19.478C22.9127 19.1744 23 18.8395 23 18.4735V11.5265C23 11.1605 22.9127 10.8256 22.7381 10.522C22.5634 10.2183 22.3211 9.97503 22.0112 9.79208L15.9888 6.27443C15.6789 6.09148 15.3493 6 15 6C14.6507 6 14.3211 6.09148 14.0112 6.27443L7.98878 9.79208C7.67889 9.97503 7.43658 10.2183 7.26186 10.522C7.08729 10.8256 7 11.1605 7 11.5265V18.4735C7 18.8395 7.08729 19.1744 7.26186 19.478C7.43658 19.7817 7.67889 20.025 7.98878 20.2079L14.0112 23.7256C14.3211 23.9085 14.6507 24 15 24C15.3493 24 15.6789 23.9085 15.9888 23.7256ZM15.9627 15.5606V21.4251L15 21.9909L14.0373 21.4251V15.5606L8.97756 12.5816V11.5486L10.0107 10.9386L15 13.8736L19.9893 10.9386L21.0224 11.5486V12.5816L15.9627 15.5606Z" fill="#224488"/>
</g>
<defs>
<clipPath id="clip0_925_4930">
<rect width="30" height="30" fill="white"/>
</clipPath>
</defs>
</svg>
