<svg width="30" height="30" viewBox="0 0 30 30" fill="none" xmlns="http://www.w3.org/2000/svg">
<g clip-path="url(#clip0_925_6086)">
<rect width="30" height="30" rx="15" fill="#EF3346" fill-opacity="0.3"/>
<path d="M20.7442 15.9884C20.744 14.2692 19.3238 12.8729 17.5747 12.8729H8.12788C7.50497 12.8729 7 12.3765 7 11.7642C7 11.1519 7.50497 10.6555 8.12788 10.6555H17.5747C20.5696 10.6556 22.9998 13.0445 23 15.9884C23 18.9325 20.5698 21.3222 17.5747 21.3222H10.7097C10.0868 21.3222 9.58184 20.8258 9.58178 20.2135C9.58178 19.6012 10.0868 19.1049 10.7097 19.1049H17.5747C19.3239 19.1048 20.7442 17.7079 20.7442 15.9884Z" fill="#EF3346"/>
<path d="M9.51991 8.98677C9.96018 8.57474 10.6739 8.57481 11.1142 8.98677C11.5545 9.39883 11.5545 10.0668 11.1142 10.4788L9.71898 11.7838L11.1169 13.101C11.5558 13.5144 11.5533 14.1823 11.1116 14.5931C10.6699 15.0037 9.95615 15.0022 9.51727 14.589L7.32753 12.5257C6.88983 12.1132 6.89093 11.4471 7.33018 11.0361L9.51991 8.98677Z" fill="#EF3346"/>
</g>
<defs>
<clipPath id="clip0_925_6086">
<rect width="30" height="30" fill="white"/>
</clipPath>
</defs>
</svg>
