<svg width="30" height="30" viewBox="0 0 30 30" fill="none" xmlns="http://www.w3.org/2000/svg">
<g clip-path="url(#clip0_791_7075)">
<mask id="mask0_791_7075" style="mask-type:luminance" maskUnits="userSpaceOnUse" x="0" y="0" width="30" height="30">
<path d="M30 0H0V30H30V0Z" fill="white"/>
</mask>
<g mask="url(#mask0_791_7075)">
<path fill-rule="evenodd" clip-rule="evenodd" d="M18.512 5C22.4095 5.00006 23.6 6.25589 23.6 10.3859V20.8605C23.6 22.9163 22.7535 23.5584 22.2512 23.7631C21.7581 23.9584 20.7349 24.0695 19.3863 22.6374C19.1631 22.3955 18.8746 22.2743 18.5956 22.2929C18.3166 22.3115 18.0468 22.4605 17.8514 22.7209L16.9117 23.9767C16.4373 24.6279 15.7396 25 15.0047 25C14.2698 25 13.572 24.6278 13.0883 23.9673L12.1486 22.7115C11.9533 22.4512 11.6928 22.302 11.4139 22.2834C11.1348 22.2649 10.8369 22.4048 10.6137 22.6374C9.26505 24.0696 8.24189 23.9584 7.74885 23.7631C7.24652 23.5677 6.4 22.9256 6.4 20.8605V10.3859C6.40003 6.25578 7.59105 5 11.4887 5H18.512ZM18.6232 9.92078C18.3535 9.65114 17.9075 9.65118 17.6377 9.92078L11.3768 16.181C11.107 16.4507 11.1071 16.8974 11.3768 17.1672C11.5162 17.3066 11.6929 17.372 11.8695 17.3721C12.0556 17.3721 12.2328 17.3067 12.363 17.1672L18.6232 10.907C18.893 10.6372 18.893 10.1906 18.6232 9.92078ZM17.7954 15C17.2838 15 16.8652 15.4186 16.8652 15.9302C16.8652 16.4419 17.2745 16.8605 17.7954 16.8605C18.3164 16.8605 18.7257 16.4419 18.7257 15.9302C18.7257 15.4186 18.3071 15 17.7954 15ZM12.214 10.3488C11.7024 10.3488 11.2838 10.7674 11.2838 11.2791C11.2838 11.7907 11.6931 12.2093 12.214 12.2093C12.7349 12.2093 13.1442 11.7907 13.1442 11.2791C13.1442 10.7674 12.7256 10.3488 12.214 10.3488Z" fill="white"/>
</g>
</g>
<defs>
<clipPath id="clip0_791_7075">
<rect width="30" height="30" fill="white"/>
</clipPath>
</defs>
</svg>
