<svg width="30" height="30" viewBox="0 0 30 30" fill="none" xmlns="http://www.w3.org/2000/svg">
<path d="M17.6093 26C17.2716 26 16.9544 25.7714 16.8623 25.418C16.76 25.0024 16.9953 24.5763 17.4047 24.462C21.5591 23.35 24.4549 19.5257 24.4549 15.1611C24.4549 9.86112 20.2084 5.54842 14.9898 5.54842C10.5591 5.54842 7.65302 8.17761 6.29209 9.7676H9.30047C9.72 9.7676 10.0679 10.1209 10.0679 10.547C10.0679 10.9731 9.74047 11.3368 9.3107 11.3368H4.77767C4.70605 11.3368 4.63442 11.3264 4.56279 11.3056C4.4707 11.2744 4.38884 11.2329 4.31721 11.1809C4.22512 11.1186 4.15349 11.0354 4.10233 10.9419C4.05116 10.838 4.01023 10.7341 4 10.6197C4 10.5886 4 10.5678 4 10.5366V5.81861C4 5.39254 4.34791 5.03921 4.76744 5.03921C5.18698 5.03921 5.53488 5.39254 5.53488 5.81861V8.30231C7.20279 6.4837 10.3442 4 15 4C21.0679 4 26 9.00898 26 15.1715C26 20.2428 22.6335 24.6906 17.8037 25.9792C17.7423 25.9896 17.6707 26 17.6093 26Z" fill="#224488"/>
<path d="M14.2354 26C14.215 26 14.1844 26 14.164 25.9895C13.0732 25.9164 12.0028 25.6655 10.9833 25.2578C10.6877 25.1429 10.494 24.8397 10.494 24.5157C10.494 24.4216 10.5144 24.3275 10.5449 24.2439C10.6979 23.8467 11.1464 23.6376 11.5338 23.7944C12.4106 24.1498 13.3383 24.3589 14.2762 24.4321H14.2864C14.6942 24.453 15 24.8084 15 25.2265C15 25.2369 15 25.2578 15 25.2683C14.9694 25.676 14.633 26 14.2354 26ZM8.61817 23.7526C8.44486 23.7526 8.28174 23.7003 8.13902 23.5854C7.28267 22.885 6.53846 22.0592 5.91659 21.1289C5.82484 20.993 5.77386 20.8467 5.77386 20.6899C5.77386 20.4286 5.8962 20.1882 6.11029 20.0418C6.44671 19.8014 6.94625 19.8955 7.17053 20.2404C7.71084 21.0453 8.3531 21.7561 9.09731 22.3519C9.27062 22.4983 9.38276 22.7178 9.38276 22.9582C9.38276 23.1359 9.33179 23.3136 9.21965 23.4599C9.07692 23.6481 8.85264 23.7526 8.61817 23.7526ZM5.21316 18.6516C4.87674 18.6516 4.58109 18.4321 4.48934 18.108C4.16311 17.0314 4 15.9129 4 14.784C4 14.3554 4.34662 14 4.7646 14C5.18258 14 5.52919 14.3554 5.52919 14.784C5.52919 15.7561 5.67192 16.7178 5.94717 17.6376C5.96756 17.7108 5.97776 17.7944 5.97776 17.878C5.97776 18.223 5.76367 18.5157 5.44764 18.6202C5.36608 18.6411 5.29472 18.6516 5.21316 18.6516Z" fill="#3366FF"/>
<path d="M17.8264 15.1023L17.1366 17.8772C17.1247 17.9372 17.1038 17.9727 17.0739 17.9836C17.05 17.9945 16.9993 18 16.9216 18H16.1422C16.0646 18 16.0138 17.9918 15.9899 17.9754C15.972 17.9645 15.9571 17.9318 15.9451 17.8772L15.2912 15.1023H14.7178L14.0728 17.8772C14.0608 17.9318 14.0429 17.9645 14.019 17.9754C14.0011 17.9918 13.9533 18 13.8757 18H13.0873C13.0037 18 12.95 17.9918 12.9261 17.9754C12.9082 17.9645 12.8932 17.9318 12.8813 17.8772L12.1825 15.1023H11.1792C11.1075 15.1023 11.0597 15.0941 11.0358 15.0778C11.0119 15.0559 11 15.0096 11 14.9386V14.3165C11 14.2456 11.0119 14.2019 11.0358 14.1855C11.0597 14.1637 11.1075 14.1528 11.1792 14.1528H11.9496L11.4838 12.2046C11.4658 12.1228 11.4658 12.0682 11.4838 12.0409C11.5077 12.0136 11.5733 12 11.6809 12H12.3975C12.4573 12 12.5021 12.0055 12.5319 12.0164C12.5618 12.0218 12.5827 12.0573 12.5946 12.1228L13.0694 14.1528H13.9295L14.3774 12.1228C14.3893 12.0628 14.4102 12.0273 14.4401 12.0164C14.47 12.0055 14.5177 12 14.5834 12H15.4166C15.4823 12 15.53 12.0055 15.5599 12.0164C15.5898 12.0273 15.6107 12.0628 15.6226 12.1228L16.0885 14.1528H16.9664L17.4323 12.1228C17.4442 12.0628 17.4621 12.0273 17.486 12.0164C17.5099 12.0055 17.5577 12 17.6293 12H18.355C18.4505 12 18.5043 12.0136 18.5162 12.0409C18.5342 12.0628 18.5342 12.1173 18.5162 12.2046L18.0773 14.1528H18.8119C18.8955 14.1528 18.9462 14.1637 18.9642 14.1855C18.9881 14.2074 19 14.251 19 14.3165V14.9386C19 15.0041 18.9881 15.0477 18.9642 15.0696C18.9462 15.0914 18.8955 15.1023 18.8119 15.1023H17.8264ZM14.897 14.1528H15.1389L15.0134 13.4734L14.897 14.1528ZM13.5174 16.322L13.7413 15.1023H13.2934L13.5174 16.322ZM16.5274 16.3302L16.7514 15.1023H16.2945L16.5274 16.3302Z" fill="#3366FF"/>
</svg>
