<svg width="30" height="30" viewBox="0 0 30 30" fill="none" xmlns="http://www.w3.org/2000/svg">
<g clip-path="url(#clip0_791_7074)">
<mask id="mask0_791_7074" style="mask-type:luminance" maskUnits="userSpaceOnUse" x="0" y="0" width="30" height="30">
<path d="M30 0H0V30H30V0Z" fill="white"/>
</mask>
<g mask="url(#mask0_791_7074)">
<path d="M15.0046 25C14.2698 25 13.5721 24.6279 13.0884 23.9674L12.1488 22.7116C11.9535 22.4512 11.693 22.3023 11.4139 22.2837C11.1349 22.2651 10.8558 22.3953 10.6326 22.6279L10.1023 22.1628L10.6139 22.6372C9.26511 24.0698 8.24185 23.9581 7.74883 23.7628C7.24651 23.5674 6.39999 22.9256 6.39999 20.8605V10.386C6.39999 6.25581 7.59069 5 11.4884 5H18.5116C22.4093 5 23.6 6.25581 23.6 10.386V20.8605C23.6 22.9163 22.7535 23.5581 22.2512 23.7628C21.7581 23.9581 20.7349 24.0698 19.386 22.6372C19.1628 22.3953 18.8744 22.2744 18.5953 22.293C18.3163 22.3116 18.0465 22.4605 17.8512 22.7209L16.9116 23.9767C16.4372 24.6279 15.7395 25 15.0046 25ZM11.3581 20.8884C11.3953 20.8884 11.4419 20.8884 11.4791 20.8884C12.1674 20.9256 12.8186 21.2884 13.2558 21.8744L14.2046 23.1302C14.6605 23.7349 15.3581 23.7349 15.8139 23.1302L16.7535 21.8744C17.1907 21.2884 17.8419 20.9256 18.5395 20.8884C19.2372 20.8512 19.9163 21.1395 20.4186 21.6791C21.1256 22.4326 21.5814 22.5256 21.7488 22.4605C21.9721 22.3674 22.2139 21.8279 22.2139 20.8605V10.386C22.2139 7.02791 21.6279 6.39535 18.5209 6.39535H11.4884C8.38139 6.39535 7.79534 7.02791 7.79534 10.386V20.8605C7.79534 21.8372 8.0372 22.3767 8.26046 22.4605C8.4279 22.5256 8.88371 22.4326 9.59069 21.6791C10.0744 21.1674 10.707 20.8884 11.3581 20.8884Z" fill="white"/>
<path d="M17.7953 16.8605C17.2744 16.8605 16.8651 16.4419 16.8651 15.9302C16.8651 15.4186 17.2837 15 17.7953 15C18.307 15 18.7256 15.4186 18.7256 15.9302C18.7256 16.4419 18.3163 16.8605 17.7953 16.8605Z" fill="white"/>
<path d="M12.2139 12.2093C11.693 12.2093 11.2837 11.7907 11.2837 11.2791C11.2837 10.7674 11.7023 10.3488 12.2139 10.3488C12.7256 10.3488 13.1442 10.7674 13.1442 11.2791C13.1442 11.7907 12.7349 12.2093 12.2139 12.2093Z" fill="white"/>
<path d="M11.8698 17.3719C11.6931 17.3719 11.5163 17.3068 11.3768 17.1672C11.107 16.8975 11.107 16.451 11.3768 16.1812L17.6373 9.92071C17.9071 9.65094 18.3536 9.65094 18.6233 9.92071C18.8931 10.1905 18.8931 10.637 18.6233 10.9068L12.3628 17.1672C12.2326 17.3068 12.0559 17.3719 11.8698 17.3719Z" fill="white"/>
</g>
</g>
<defs>
<clipPath id="clip0_791_7074">
<rect width="30" height="30" fill="white"/>
</clipPath>
</defs>
</svg>
