<svg width="30" height="30" viewBox="0 0 30 30" fill="none" xmlns="http://www.w3.org/2000/svg">
<path fill-rule="evenodd" clip-rule="evenodd" d="M5 15C5 20.5228 9.47715 25 15 25C20.5228 25 25 20.5228 25 15C25 9.47715 20.5228 4.99999 15 4.99999V6.49999C19.6944 6.49999 23.5 10.3056 23.5 15C23.5 19.6944 19.6944 23.5 15 23.5C10.3056 23.5 6.5 19.6944 6.5 15H5Z" fill="#224488"/>
<path d="M11 6L17 2V10L11 6Z" fill="#224488"/>
<path d="M12.4121 19L11.6895 15.9336H10.6152V14.9961H11.4648L10.7422 11.9297H12.0898L12.7246 14.9961H13.6719L14.375 11.9297H15.6348L16.3379 14.9961H17.2949L17.9199 11.9297H19.2676L18.5449 14.9961H19.3945V15.9336H18.3203L17.5977 19H16.1719L15.4785 15.9336H14.541L13.8379 19H12.4121ZM12.9199 15.9336L13.1445 17.0371H13.2031L13.457 15.9336H12.9199ZM14.7559 14.9961H15.2637L15.0293 13.9805H14.9805L14.7559 14.9961ZM16.5527 15.9336L16.8066 17.0469H16.8652L17.0996 15.9336H16.5527Z" fill="#224488"/>
</svg>
