<svg width="30" height="30" viewBox="0 0 30 30" fill="none" xmlns="http://www.w3.org/2000/svg">
<path d="M7.84444 9.83041H18.1363C18.3614 9.83041 18.5499 9.75452 18.7019 9.60274C18.8537 9.45079 18.9296 9.26234 18.9296 9.03741C18.9296 8.80542 18.8537 8.61521 18.7019 8.46678C18.5499 8.31835 18.3614 8.24414 18.1363 8.24414H7.84444C7.61933 8.24414 7.43079 8.32003 7.27884 8.47181C7.12706 8.62376 7.05117 8.8123 7.05117 9.03741C7.05117 9.26234 7.12706 9.45079 7.27884 9.60274C7.43079 9.75452 7.61933 9.83041 7.84444 9.83041ZM4 6.06768C4 5.54024 4.18677 5.08967 4.56031 4.71595C4.93403 4.34241 5.3846 4.15564 5.91204 4.15564H20.0687C20.5961 4.15564 21.0467 4.34241 21.4204 4.71595C21.794 5.08967 21.9807 5.54024 21.9807 6.06768V11.7221C21.9807 11.9472 21.9048 12.1357 21.7528 12.2877C21.601 12.4395 21.4126 12.5154 21.1875 12.5154C20.9623 12.5154 20.7739 12.4395 20.6221 12.2877C20.4702 12.1357 20.3942 11.9472 20.3942 11.7221V6.06768C20.3942 5.98624 20.3603 5.91167 20.2924 5.84398C20.2247 5.77611 20.1501 5.74217 20.0687 5.74217H5.91204C5.8306 5.74217 5.75603 5.77611 5.68834 5.84398C5.62047 5.91167 5.58653 5.98624 5.58653 6.06768V20.6027H12.1545C12.1829 20.8061 12.2222 21.0096 12.2725 21.213C12.3225 21.4163 12.3815 21.6142 12.4494 21.8069C12.517 21.9668 12.4835 22.0956 12.3486 22.1932C12.2138 22.2909 12.086 22.2861 11.9652 22.1789L11.7944 22.0488C11.7022 21.9702 11.5991 21.9309 11.4853 21.9309C11.3714 21.9309 11.2684 21.9702 11.1762 22.0488L10.2893 22.7932C10.1971 22.872 10.094 22.9114 9.97991 22.9114C9.86604 22.9114 9.763 22.872 9.6708 22.7932L8.78393 22.0488C8.69174 21.9702 8.5887 21.9309 8.47482 21.9309C8.36094 21.9309 8.25791 21.9702 8.16571 22.0488L7.27884 22.7932C7.18664 22.872 7.08361 22.9114 6.96973 22.9114C6.85585 22.9114 6.75281 22.872 6.66062 22.7932L5.77375 22.0488C5.68155 21.9702 5.57851 21.9309 5.46464 21.9309C5.35058 21.9309 5.24746 21.9702 5.15526 22.0488L4 23.0822V6.06768ZM7.84444 18.0479H11.6786C11.9035 18.0479 12.0919 17.972 12.2439 17.8202C12.3959 17.6682 12.4718 17.4797 12.4718 17.2546C12.4718 17.0297 12.3959 16.8412 12.2439 16.6893C12.0919 16.5375 11.9035 16.4616 11.6786 16.4616H7.84444C7.61933 16.4616 7.43079 16.5375 7.27884 16.6893C7.12706 16.8412 7.05117 17.0297 7.05117 17.2546C7.05117 17.4797 7.12706 17.6682 7.27884 17.8202C7.43079 17.972 7.61933 18.0479 7.84444 18.0479ZM7.84444 13.9393H15.1179C15.343 13.9393 15.5316 13.8633 15.6835 13.7113C15.8353 13.5596 15.9112 13.3711 15.9112 13.146C15.9112 12.9209 15.8353 12.7324 15.6835 12.5807C15.5316 12.4287 15.343 12.3527 15.1179 12.3527H7.84444C7.61933 12.3527 7.43079 12.4287 7.27884 12.5807C7.12706 12.7324 7.05117 12.9209 7.05117 13.146C7.05117 13.3711 7.12706 13.5596 7.27884 13.7113C7.43079 13.8633 7.61933 13.9393 7.84444 13.9393Z" fill="#3366FF"/>
<ellipse cx="19.6539" cy="19.542" rx="6.34614" ry="6.30237" fill="white"/>
<path d="M18.7719 20.5246L17.5314 19.2926C17.4025 19.1645 17.2401 19.1005 17.0439 19.1005C16.8479 19.1005 16.6854 19.1645 16.5565 19.2926C16.4276 19.4206 16.3638 19.5819 16.365 19.7767C16.3663 19.9714 16.4313 20.1327 16.5602 20.2607L18.2734 21.9621C18.416 22.1028 18.5825 22.1732 18.7727 22.1732C18.9628 22.1732 19.1288 22.1028 19.2706 21.9621L22.7289 18.5274C22.8579 18.3995 22.9223 18.2388 22.9223 18.0453C22.9223 17.8518 22.8579 17.691 22.7289 17.5631C22.6001 17.435 22.4376 17.371 22.2414 17.371C22.0454 17.371 21.883 17.435 21.7541 17.5631L18.7719 20.5246ZM19.6539 25.8444C18.7737 25.8444 17.9478 25.679 17.1763 25.3484C16.4046 25.0177 15.7334 24.569 15.1626 24.0023C14.592 23.4354 14.1401 22.7689 13.8072 22.0025C13.4742 21.2363 13.3077 20.4161 13.3077 19.542C13.3077 18.6679 13.4742 17.8477 13.8072 17.0814C14.1401 16.3151 14.592 15.6485 15.1626 15.0817C15.7334 14.515 16.4046 14.0663 17.1763 13.7356C17.9478 13.4049 18.7737 13.2396 19.6539 13.2396C20.5341 13.2396 21.3599 13.4049 22.1315 13.7356C22.9032 14.0663 23.5744 14.515 24.1451 15.0817C24.7158 15.6485 25.1676 16.3151 25.5006 17.0814C25.8335 17.8477 26 18.6679 26 19.542C26 20.4161 25.8335 21.2363 25.5006 22.0025C25.1676 22.7689 24.7158 23.4354 24.1451 24.0023C23.5744 24.569 22.9032 25.0177 22.1315 25.3484C21.3599 25.679 20.5341 25.8444 19.6539 25.8444Z" fill="#224488"/>
</svg>
