<svg width="30" height="30" viewBox="0 0 30 30" fill="none" xmlns="http://www.w3.org/2000/svg">
<rect x="6.5" y="4.5" width="17" height="21" rx="1.5" stroke="#224488"/>
<path d="M12.9297 14.5L12.3516 12.0469H11.4922V11.2969H12.1719L11.5938 8.84375H12.6719L13.1797 11.2969H13.9375L14.5 8.84375H15.5078L16.0703 11.2969H16.8359L17.3359 8.84375H18.4141L17.8359 11.2969H18.5156V12.0469H17.6562L17.0781 14.5H15.9375L15.3828 12.0469H14.6328L14.0703 14.5H12.9297ZM13.3359 12.0469L13.5156 12.9297H13.5625L13.7656 12.0469H13.3359ZM14.8047 11.2969H15.2109L15.0234 10.4844H14.9844L14.8047 11.2969ZM16.2422 12.0469L16.4453 12.9375H16.4922L16.6797 12.0469H16.2422Z" fill="#224488"/>
<rect x="10" y="18" width="10" height="1" fill="#224488"/>
<rect x="10" y="21" width="8" height="1" fill="#224488"/>
</svg>
