<svg width="30" height="30" viewBox="0 0 30 30" fill="none" xmlns="http://www.w3.org/2000/svg">
<g clip-path="url(#clip0_925_6300)">
<circle cx="15" cy="15" r="15" fill="#3366FF" fill-opacity="0.3"/>
<rect x="7.75" y="9.52778" width="14.5" height="12.7222" rx="3.25" fill="white" stroke="#3366FF" stroke-width="1.5"/>
<path d="M19.2227 7C19.5907 7.00022 19.8887 7.29894 19.8887 7.66699V8.87793C21.6699 9.28211 22.9998 10.8739 23 12.7773V14.1113H7V12.7773C7.0002 10.8739 8.33015 9.28211 10.1113 8.87793V7.66699C10.1113 7.29896 10.4094 7.00026 10.7773 7C11.1455 7 11.4443 7.2988 11.4443 7.66699V8.77734H18.5557V7.66699C18.5557 7.2988 18.8545 7 19.2227 7Z" fill="#3366FF"/>
<path d="M17.1982 17.8914L16.6617 20.1525C16.6524 20.2014 16.6362 20.2303 16.6129 20.2392C16.5944 20.2481 16.5549 20.2525 16.4945 20.2525H15.8883C15.8279 20.2525 15.7884 20.2459 15.7698 20.2325C15.7559 20.2236 15.7443 20.1969 15.735 20.1525L15.2264 17.8914H14.7804L14.2787 20.1525C14.2694 20.1969 14.2555 20.2236 14.2369 20.2325C14.223 20.2459 14.1858 20.2525 14.1254 20.2525H13.5123C13.4473 20.2525 13.4054 20.2459 13.3869 20.2325C13.3729 20.2236 13.3613 20.1969 13.352 20.1525L12.8085 17.8914H12.0281C11.9724 17.8914 11.9352 17.8848 11.9167 17.8714C11.8981 17.8537 11.8888 17.8159 11.8888 17.7581V17.2512C11.8888 17.1934 11.8981 17.1578 11.9167 17.1444C11.9352 17.1267 11.9724 17.1178 12.0281 17.1178H12.6274L12.2651 15.5304C12.2511 15.4637 12.2511 15.4192 12.2651 15.397C12.2836 15.3747 12.3347 15.3636 12.4183 15.3636H12.9758C13.0222 15.3636 13.0571 15.3681 13.0803 15.377C13.1035 15.3814 13.1198 15.4103 13.1291 15.4637L13.4983 17.1178H14.1673L14.5156 15.4637C14.5249 15.4148 14.5412 15.3859 14.5644 15.377C14.5876 15.3681 14.6248 15.3636 14.6759 15.3636H15.3239C15.375 15.3636 15.4122 15.3681 15.4354 15.377C15.4586 15.3859 15.4749 15.4148 15.4842 15.4637L15.8465 17.1178H16.5293L16.8917 15.4637C16.9009 15.4148 16.9149 15.3859 16.9335 15.377C16.952 15.3681 16.9892 15.3636 17.0449 15.3636H17.6093C17.6837 15.3636 17.7255 15.3747 17.7348 15.397C17.7487 15.4148 17.7487 15.4592 17.7348 15.5304L17.3933 17.1178H17.9647C18.0297 17.1178 18.0692 17.1267 18.0831 17.1444C18.1017 17.1622 18.111 17.1978 18.111 17.2512V17.7581C18.111 17.8114 18.1017 17.847 18.0831 17.8648C18.0692 17.8826 18.0297 17.8914 17.9647 17.8914H17.1982ZM14.9198 17.1178H15.1079L15.0104 16.5642L14.9198 17.1178ZM13.8467 18.8852L14.0209 17.8914H13.6725L13.8467 18.8852ZM16.1879 18.8919L16.3621 17.8914H16.0067L16.1879 18.8919Z" fill="#3366FF"/>
</g>
<defs>
<clipPath id="clip0_925_6300">
<rect width="30" height="30" fill="white"/>
</clipPath>
</defs>
</svg>
