<svg width="30" height="30" viewBox="0 0 30 30" fill="none" xmlns="http://www.w3.org/2000/svg">
<g clip-path="url(#clip0_925_9525)">
<rect width="30" height="30" rx="15" fill="#3366FF" fill-opacity="0.3"/>
<path d="M16.0045 23.7256L22.1229 20.2079C22.4377 20.025 22.6839 19.7817 22.8614 19.478C23.0388 19.1744 23.1274 18.8395 23.1274 18.4735V11.5265C23.1274 11.1605 23.0388 10.8256 22.8614 10.522C22.6839 10.2183 22.4377 9.97503 22.1229 9.79208L16.0045 6.27443C15.6897 6.09148 15.3548 6 15 6C14.6451 6 14.3102 6.09148 13.9954 6.27443L7.87701 9.79208C7.56218 9.97503 7.31601 10.2183 7.1385 10.522C6.96115 10.8256 6.87247 11.1605 6.87247 11.5265V18.4735C6.87247 18.8395 6.96115 19.1744 7.1385 19.478C7.31601 19.7817 7.56218 20.025 7.87701 20.2079L13.9954 23.7256C14.3102 23.9085 14.6451 24 15 24C15.3548 24 15.6897 23.9085 16.0045 23.7256ZM15.978 15.5606V21.4251L15 21.9909L14.0219 21.4251V15.5606L8.88155 12.5816V11.5486L9.93112 10.9386L15 13.8736L20.0688 10.9386L21.1184 11.5486V12.5816L15.978 15.5606Z" fill="#3366FF"/>
</g>
<defs>
<clipPath id="clip0_925_9525">
<rect width="30" height="30" fill="white"/>
</clipPath>
</defs>
</svg>
