<svg width="36" height="36" viewBox="0 0 36 36" fill="none" xmlns="http://www.w3.org/2000/svg">
<path d="M14 10C14 7.79086 12.2091 6 10 6C7.79086 6 6 7.79086 6 10C6 12.2091 7.79086 14 10 14V17C6.13401 17 3 13.866 3 10C3 6.13401 6.13401 3 10 3C13.866 3 17 6.13401 17 10C17 13.866 13.866 17 10 17V14C12.2091 14 14 12.2091 14 10Z" fill="#FF9900"/>
<path d="M26.5875 11.55L11.55 26.55C11.675 26.85 11.7812 27.1625 11.8687 27.4875C11.9562 27.8125 12 28.15 12 28.5C12 29.75 11.5688 30.8125 10.7063 31.6875C9.84375 32.5625 8.775 33 7.5 33C6.25 33 5.1875 32.5625 4.3125 31.6875C3.4375 30.8125 3 29.75 3 28.5C3 27.225 3.4375 26.1562 4.3125 25.2938C5.1875 24.4313 6.25 24 7.5 24C7.85 24 8.1875 24.0438 8.5125 24.1313C8.8375 24.2188 9.15 24.325 9.45 24.45L24.45 9.4125C24.325 9.1125 24.2188 8.80625 24.1313 8.49375C24.0438 8.18125 24 7.85 24 7.5C24 6.225 24.4375 5.15625 25.3125 4.29375C26.1875 3.43125 27.25 3 28.5 3C29.775 3 30.8438 3.43125 31.7063 4.29375C32.5688 5.15625 33 6.225 33 7.5C33 8.75 32.5688 9.8125 31.7063 10.6875C30.8438 11.5625 29.775 12 28.5 12C28.15 12 27.8187 11.9562 27.5062 11.8687C27.1937 11.7812 26.8875 11.675 26.5875 11.55Z" fill="#3366FF"/>
<path d="M30 20C31.6569 20 33 21.3431 33 23V30C33 31.6569 31.6569 33 30 33H23C21.3431 33 20 31.6569 20 30V23C20 21.3431 21.3431 20 23 20H30ZM24.5 23C23.6716 23 23 23.6716 23 24.5V28.5C23 29.3284 23.6716 30 24.5 30H28.5C29.3284 30 30 29.3284 30 28.5V24.5C30 23.6716 29.3284 23 28.5 23H24.5Z" fill="#009999"/>
</svg>
