<svg width="30" height="30" viewBox="0 0 30 30" fill="none" xmlns="http://www.w3.org/2000/svg">
<g clip-path="url(#clip0_925_4929)">
<circle cx="15" cy="15" r="15" fill="#3366FF" fill-opacity="0.3"/>
<rect x="7.75" y="7.75" width="14.5" height="14.5" rx="7.25" fill="white"/>
<rect x="7.75" y="7.75" width="14.5" height="14.5" rx="7.25" stroke="#3366FF" stroke-width="1.5"/>
<path d="M17.8264 15.6194L17.1366 18.8568C17.1247 18.9268 17.1038 18.9682 17.0739 18.9809C17.05 18.9936 16.9993 19 16.9216 19H16.1422C16.0646 19 16.0138 18.9904 15.9899 18.9714C15.972 18.9586 15.9571 18.9204 15.9451 18.8568L15.2912 15.6194H14.7178L14.0728 18.8568C14.0608 18.9204 14.0429 18.9586 14.019 18.9714C14.0011 18.9904 13.9533 19 13.8757 19H13.0873C13.0037 19 12.95 18.9904 12.9261 18.9714C12.9082 18.9586 12.8932 18.9204 12.8813 18.8568L12.1825 15.6194H11.1792C11.1075 15.6194 11.0597 15.6098 11.0358 15.5907C11.0119 15.5653 11 15.5111 11 15.4284V14.7026C11 14.6198 11.0119 14.5689 11.0358 14.5498C11.0597 14.5243 11.1075 14.5116 11.1792 14.5116H11.9496L11.4838 12.2387C11.4658 12.1432 11.4658 12.0796 11.4838 12.0477C11.5077 12.0159 11.5733 12 11.6809 12H12.3975C12.4573 12 12.5021 12.0064 12.5319 12.0191C12.5618 12.0255 12.5827 12.0668 12.5946 12.1432L13.0694 14.5116H13.9295L14.3774 12.1432C14.3893 12.0732 14.4102 12.0318 14.4401 12.0191C14.47 12.0064 14.5177 12 14.5834 12H15.4166C15.4823 12 15.53 12.0064 15.5599 12.0191C15.5898 12.0318 15.6107 12.0732 15.6226 12.1432L16.0885 14.5116H16.9664L17.4323 12.1432C17.4442 12.0732 17.4621 12.0318 17.486 12.0191C17.5099 12.0064 17.5577 12 17.6293 12H18.355C18.4505 12 18.5043 12.0159 18.5162 12.0477C18.5342 12.0732 18.5342 12.1369 18.5162 12.2387L18.0773 14.5116H18.8119C18.8955 14.5116 18.9462 14.5243 18.9642 14.5498C18.9881 14.5753 19 14.6262 19 14.7026V15.4284C19 15.5048 18.9881 15.5557 18.9642 15.5812C18.9462 15.6066 18.8955 15.6194 18.8119 15.6194H17.8264ZM14.897 14.5116H15.1389L15.0134 13.719L14.897 14.5116ZM13.5174 17.0423L13.7413 15.6194H13.2934L13.5174 17.0423ZM16.5274 17.0518L16.7514 15.6194H16.2945L16.5274 17.0518Z" fill="#3366FF"/>
</g>
<defs>
<clipPath id="clip0_925_4929">
<rect width="30" height="30" fill="white"/>
</clipPath>
</defs>
</svg>
