<svg width="36" height="36" viewBox="0 0 36 36" fill="none" xmlns="http://www.w3.org/2000/svg">
<path d="M28.5013 28.5013C28.9029 28.0996 29.554 28.0996 29.9557 28.5013L32.6985 31.2441L32.7695 31.3218C33.0991 31.7257 33.0751 32.3219 32.6985 32.6985C32.3219 33.0751 31.7257 33.0991 31.3218 32.7695L31.2441 32.6985L28.5013 29.9557C28.0996 29.554 28.0996 28.9029 28.5013 28.5013Z" fill="#224488"/>
<circle cx="17.4" cy="17.4" r="11.5" fill="#3366FF"/>
<circle cx="17.4" cy="17.4" r="10.25" stroke="white" stroke-width="0.5" stroke-dasharray="1 1"/>
<path d="M29.6927 17.4C29.6927 10.6109 24.1891 5.10732 17.4 5.10732C10.6109 5.10732 5.10732 10.6109 5.10732 17.4C5.10732 24.1891 10.6109 29.6927 17.4 29.6927C24.1891 29.6927 29.6927 24.1891 29.6927 17.4ZM31.8 17.4C31.8 25.3529 25.3529 31.8 17.4 31.8C9.44709 31.8 3 25.3529 3 17.4C3 9.44709 9.44709 3 17.4 3C25.3529 3 31.8 9.44709 31.8 17.4Z" fill="#224488"/>
<path d="M21.6397 17.5876L20.605 22.6749C20.587 22.7849 20.5557 22.85 20.5109 22.87C20.4751 22.89 20.3989 22.9 20.2824 22.9H19.1133C18.9969 22.9 18.9207 22.885 18.8849 22.855C18.858 22.835 18.8356 22.7749 18.8177 22.6749L17.8368 17.5876H16.9767L16.0092 22.6749C15.9913 22.7749 15.9644 22.835 15.9286 22.855C15.9017 22.885 15.83 22.9 15.7136 22.9H14.531C14.4056 22.9 14.325 22.885 14.2892 22.855C14.2623 22.835 14.2399 22.7749 14.222 22.6749L13.1738 17.5876H11.6688C11.5613 17.5876 11.4896 17.5726 11.4538 17.5426C11.4179 17.5025 11.4 17.4175 11.4 17.2875V16.1469C11.4 16.0169 11.4179 15.9368 11.4538 15.9068C11.4896 15.8668 11.5613 15.8468 11.6688 15.8468H12.8244L12.1257 12.2752C12.0988 12.1251 12.0988 12.0251 12.1257 11.975C12.1615 11.925 12.26 11.9 12.4213 11.9H13.4963C13.5859 11.9 13.6531 11.91 13.6979 11.93C13.7427 11.94 13.774 12.005 13.792 12.1251L14.5042 15.8468H15.7942L16.4661 12.1251C16.484 12.0151 16.5154 11.95 16.5602 11.93C16.605 11.91 16.6766 11.9 16.7752 11.9H18.0249C18.1234 11.9 18.1951 11.91 18.2399 11.93C18.2847 11.95 18.316 12.0151 18.334 12.1251L19.0327 15.8468H20.3496L21.0484 12.1251C21.0663 12.0151 21.0932 11.95 21.129 11.93C21.1649 11.91 21.2365 11.9 21.344 11.9H22.4325C22.5758 11.9 22.6565 11.925 22.6744 11.975C22.7013 12.0151 22.7013 12.1151 22.6744 12.2752L22.0159 15.8468H23.1178C23.2432 15.8468 23.3194 15.8668 23.3463 15.9068C23.3821 15.9468 23.4 16.0269 23.4 16.1469V17.2875C23.4 17.4075 23.3821 17.4875 23.3463 17.5276C23.3194 17.5676 23.2432 17.5876 23.1178 17.5876H21.6397ZM17.2455 15.8468H17.6083L17.4202 14.6012L17.2455 15.8468ZM15.1761 19.8236L15.512 17.5876H14.8401L15.1761 19.8236ZM19.6912 19.8386L20.0271 17.5876H19.3418L19.6912 19.8386Z" fill="white"/>
</svg>
