<svg width="30" height="30" viewBox="0 0 30 30" fill="none" xmlns="http://www.w3.org/2000/svg">
<path fill-rule="evenodd" clip-rule="evenodd" d="M22 15C18.6863 15 16 17.6863 16 21C16 24.3137 18.6863 27 22 27C25.3137 27 28 24.3137 28 21C28 17.6863 25.3137 15 22 15ZM21.8536 22.8536L25.8536 18.8536L25.1464 18.1464L21.5 21.7929L19.8536 20.1464L19.1464 20.8536L21.1464 22.8536L21.5 23.2071L21.8536 22.8536Z" fill="#224488"/>
<path fill-rule="evenodd" clip-rule="evenodd" d="M22 5H8C7.44771 5 7 5.44772 7 6V24C7 24.5523 7.44772 25 8 25H17.5278C17.868 25.3801 18.2559 25.7166 18.6822 26H8C6.89543 26 6 25.1046 6 24V6C6 4.89543 6.89543 4 8 4H22C23.1046 4 24 4.89543 24 6V15.3414C23.6784 15.2277 23.3442 15.1407 23 15.083V6C23 5.44772 22.5523 5 22 5ZM16.8027 18H10V19H16.3414C16.4649 18.6507 16.6198 18.3162 16.8027 18ZM16 21H10V22H16.083C16.0284 21.6748 16 21.3407 16 21ZM12.9297 14.5L12.3516 12.0469H11.4922V11.2969H12.1719L11.5938 8.84375H12.6719L13.1797 11.2969H13.9375L14.5 8.84375H15.5078L16.0703 11.2969H16.8359L17.3359 8.84375H18.4141L17.8359 11.2969H18.5156V12.0469H17.6562L17.0781 14.5H15.9375L15.3828 12.0469H14.6328L14.0703 14.5H12.9297ZM13.3359 12.0469L13.5156 12.9297H13.5625L13.7656 12.0469H13.3359ZM14.8047 11.2969H15.2109L15.0234 10.4844H14.9844L14.8047 11.2969ZM16.2422 12.0469L16.4453 12.9375H16.4922L16.6797 12.0469H16.2422Z" fill="#224488"/>
</svg>
