<svg width="36" height="36" viewBox="0 0 36 36" fill="none" xmlns="http://www.w3.org/2000/svg">
<g clip-path="url(#clip0_714_6794)">
<rect x="4" y="1" width="28" height="40" rx="4" fill="white" stroke="#FF9900" stroke-width="2"/>
<rect x="14" y="4" width="8" height="2" rx="1" fill="#333333"/>
<path d="M20.5341 17.3913H22.6443L24.7296 21.1011H24.817L26.8898 17.3913H29L25.7035 22.9323V26H23.8305V22.9323L20.5341 17.3913Z" fill="#FF9900"/>
<path d="M14.8472 26H12.8243L15.9585 17.3913H18.3684L21.4901 26H19.4797L18.8055 24.0143H15.534L14.8472 26ZM16.0084 22.6231H18.331L17.1947 19.3294H17.1322L16.0084 22.6231Z" fill="#FF9900"/>
<path d="M7 26V17.3913H10.5462C12.6065 17.3913 13.7803 18.5922 13.7803 20.2926C13.7803 22.0167 12.5815 23.1939 10.4963 23.1939H8.873V26H7ZM8.873 21.7551H10.1966C11.3079 21.7551 11.8448 21.1606 11.8448 20.2926C11.8448 19.4365 11.3079 18.8538 10.1966 18.8538H8.873V21.7551Z" fill="#FF9900"/>
</g>
<defs>
<clipPath id="clip0_714_6794">
<rect width="36" height="36" fill="white"/>
</clipPath>
</defs>
</svg>
