<svg width="30" height="30" viewBox="0 0 30 30" fill="none" xmlns="http://www.w3.org/2000/svg">
<path fill-rule="evenodd" clip-rule="evenodd" d="M4.5 5H9.5H10.5H14.5H15.5H19.5H20.5H24.5H25.5V6V13C25.5 13.8885 25.1137 14.6868 24.5 15.2361V24V25H23.5H21H20V24V20.5C20 19.6716 19.3284 19 18.5 19C17.6716 19 17 19.6716 17 20.5V24V25H16H6.5H5.5V24V15.2361C4.88625 14.6868 4.5 13.8885 4.5 13V5ZM22.5 16C22.8506 16 23.1872 15.9398 23.5 15.8293V24H21V20.5C21 19.1193 19.8807 18 18.5 18C17.1193 18 16 19.1193 16 20.5V24H6.5V15.8293C6.81278 15.9398 7.14936 16 7.5 16C8.54349 16 9.46254 15.4672 10 14.6589C10.5375 15.4672 11.4565 16 12.5 16C13.5435 16 14.4625 15.4672 15 14.6589C15.5375 15.4672 16.4565 16 17.5 16C18.5435 16 19.4625 15.4672 20 14.6589C20.5375 15.4672 21.4565 16 22.5 16ZM20.5 6V13C20.5 14.1046 21.3954 15 22.5 15C23.6046 15 24.5 14.1046 24.5 13V6H20.5ZM10.5 6H14.5V13C14.5 14.1046 13.6046 15 12.5 15C11.3954 15 10.5 14.1046 10.5 13V6ZM14 18H9V19H14V18Z" fill="white" fill-opacity="0.4"/>
</svg>
