<svg width="30" height="30" viewBox="0 0 30 30" fill="none" xmlns="http://www.w3.org/2000/svg">
<path fill-rule="evenodd" clip-rule="evenodd" d="M4.5 5H9.5H10.5H14.5H15.5H19.5H20.5H24.5H25.5V6V13C25.5 14.6569 24.1569 16 22.5 16C21.4565 16 20.5375 15.4672 20 14.6589C19.4625 15.4672 18.5435 16 17.5 16C16.4565 16 15.5375 15.4672 15 14.6589C14.4625 15.4672 13.5435 16 12.5 16C11.4565 16 10.5375 15.4672 10 14.6589C9.46254 15.4672 8.54349 16 7.5 16C5.84315 16 4.5 14.6569 4.5 13V5ZM20.5 6V13C20.5 14.1046 21.3954 15 22.5 15C23.6046 15 24.5 14.1046 24.5 13V6H20.5ZM10.5 6H14.5V13C14.5 14.1046 13.6046 15 12.5 15C11.3954 15 10.5 14.1046 10.5 13V6Z" fill="white"/>
<path fill-rule="evenodd" clip-rule="evenodd" d="M5.5 15V24V25H6.5H16H17V24V20.5C17 19.6716 17.6716 19 18.5 19C19.3284 19 20 19.6716 20 20.5V24V25H21H23.5H24.5V24V15H23.5V24H21V20.5C21 19.1193 19.8807 18 18.5 18C17.1193 18 16 19.1193 16 20.5V24H6.5V15H5.5Z" fill="white"/>
<rect x="9" y="18" width="5" height="1" fill="white"/>
</svg>
