<svg width="30" height="30" viewBox="0 0 30 30" fill="none" xmlns="http://www.w3.org/2000/svg">
<path fill-rule="evenodd" clip-rule="evenodd" d="M15.7382 14.4653C15.9683 14.2321 16 14.076 16 14C16 13.924 15.9683 13.7679 15.7382 13.5347C15.5038 13.2972 15.1151 13.0375 14.5558 12.7978C14.4165 12.7381 14.2693 12.6808 14.115 12.6263C13.0349 12.245 11.602 12 10 12C8.39804 12 6.96511 12.245 5.88496 12.6263C5.73065 12.6808 5.58354 12.7381 5.44417 12.7978C4.8849 13.0375 4.4962 13.2972 4.26184 13.5347C4.03173 13.7679 4 13.924 4 14C4 14.076 4.03173 14.2321 4.26184 14.4653C4.4962 14.7028 4.8849 14.9625 5.44417 15.2022C6.55915 15.68 8.16919 16 10 16C11.8308 16 13.4409 15.68 14.5558 15.2022C15.1151 14.9625 15.5038 14.7028 15.7382 14.4653ZM10 17C12.5463 17 14.7751 16.4173 16 15.5461V17C16 17.076 15.9683 17.2321 15.7382 17.4653C15.5038 17.7028 15.1151 17.9625 14.5558 18.2022C13.4409 18.68 11.8308 19 10 19C8.16919 19 6.55915 18.68 5.44417 18.2022C4.8849 17.9625 4.4962 17.7028 4.26184 17.4653C4.03173 17.2321 4 17.076 4 17V15.5461C5.2249 16.4173 7.45367 17 10 17ZM3 17V14C3 12.3431 6.13401 11 10 11C13.866 11 17 12.3431 17 14V17V20V23C17 24.6569 13.866 26 10 26C6.13401 26 3 24.6569 3 23V20V17ZM4 23C4 23.076 4.03173 23.2321 4.26184 23.4653C4.4962 23.7028 4.8849 23.9625 5.44417 24.2022C6.55915 24.68 8.16919 25 10 25C11.8308 25 13.4409 24.68 14.5558 24.2022C15.1151 23.9625 15.5038 23.7028 15.7382 23.4653C15.7525 23.4507 15.7661 23.4365 15.779 23.4225C15.9721 23.2129 16 23.0713 16 23V21.5461C14.7751 22.4173 12.5463 23 10 23C7.45367 23 5.2249 22.4173 4 21.5461V23ZM16 18.5461V20C16 20.076 15.9683 20.2321 15.7382 20.4653C15.5038 20.7028 15.1151 20.9625 14.5558 21.2022C13.4409 21.68 11.8308 22 10 22C8.16919 22 6.55915 21.68 5.44417 21.2022C4.8849 20.9625 4.4962 20.7028 4.26184 20.4653C4.03173 20.2321 4 20.076 4 20V18.5461C5.2249 19.4173 7.45367 20 10 20C12.5463 20 14.7751 19.4173 16 18.5461Z" fill="#333333"/>
<path fill-rule="evenodd" clip-rule="evenodd" d="M25.7382 6.4653C25.9683 6.23213 26 6.07605 26 6C26 5.92395 25.9683 5.76787 25.7382 5.5347C25.5038 5.29723 25.1151 5.03751 24.5558 4.79782C24.4165 4.73809 24.2693 4.68083 24.115 4.62635C23.0349 4.24498 21.602 4 20 4C18.398 4 16.9651 4.24498 15.885 4.62635C15.7307 4.68083 15.5835 4.73809 15.4442 4.79782C14.8849 5.03751 14.4962 5.29723 14.2618 5.5347C14.0317 5.76787 14 5.92395 14 6C14 6.07605 14.0317 6.23213 14.2618 6.4653C14.4962 6.70277 14.8849 6.96249 15.4442 7.20218C16.5591 7.68002 18.1692 8 20 8C21.8308 8 23.4409 7.68002 24.5558 7.20218C25.1151 6.96249 25.5038 6.70277 25.7382 6.4653ZM20 9C22.5463 9 24.7751 8.41732 26 7.54611V9C26 9.07605 25.9683 9.23213 25.7382 9.4653C25.5038 9.70277 25.1151 9.96249 24.5558 10.2022C23.4409 10.68 21.8308 11 20 11C18.1692 11 16.5591 10.68 15.4442 10.2022C14.8849 9.96249 14.4962 9.70277 14.2618 9.4653C14.0317 9.23213 14 9.07605 14 9V7.54611C15.2249 8.41732 17.4537 9 20 9ZM13 9V6C13 4.34315 16.134 3 20 3C23.866 3 27 4.34315 27 6V9V12V15V18V21C27 22.6569 23.866 24 20 24C18.8561 24 17.7762 23.8824 16.8227 23.6739C16.9387 23.4573 17 23.2317 17 23V22.6889C17.8808 22.8846 18.9006 23 20 23C21.8308 23 23.4409 22.68 24.5558 22.2022C25.1151 21.9625 25.5038 21.7028 25.7382 21.4653C25.9683 21.2321 26 21.076 26 21V19.5461C24.7751 20.4173 22.5463 21 20 21C18.9264 21 17.9093 20.8964 17 20.7113V19.6889C17.8808 19.8846 18.9006 20 20 20C21.8308 20 23.4409 19.68 24.5558 19.2022C25.1151 18.9625 25.5038 18.7028 25.7382 18.4653C25.9683 18.2321 26 18.076 26 18V16.5461C24.7751 17.4173 22.5463 18 20 18C18.9264 18 17.9093 17.8964 17 17.7113V16.6889C17.8808 16.8846 18.9006 17 20 17C21.8308 17 23.4409 16.68 24.5558 16.2022C25.1151 15.9625 25.5038 15.7028 25.7382 15.4653C25.9683 15.2321 26 15.076 26 15V13.5461C24.7751 14.4173 22.5463 15 20 15C18.9264 15 17.9093 14.8964 17 14.7113V14C17 13.8919 16.9867 13.7852 16.9607 13.6801C17.8504 13.8811 18.8842 14 20 14C21.8308 14 23.4409 13.68 24.5558 13.2022C25.1151 12.9625 25.5038 12.7028 25.7382 12.4653C25.9683 12.2321 26 12.076 26 12V10.5461C24.7751 11.4173 22.5463 12 20 12C17.4537 12 15.2249 11.4173 14 10.5461V11.5377C13.6846 11.4435 13.3503 11.36 13 11.2887V9Z" fill="#333333"/>
</svg>
