<svg width="36" height="36" viewBox="0 0 36 36" fill="none" xmlns="http://www.w3.org/2000/svg">
<g clip-path="url(#clip0_707_5277)">
<rect x="1" y="5" width="34" height="30" rx="4" fill="white" stroke="#3366FF" stroke-width="2"/>
<path d="M27.5 0C28.3284 0 29 0.671573 29 1.5V4H31C33.7614 4 36 6.23858 36 9V16H0V9C1.28855e-07 6.23858 2.23858 4 5 4H7V1.5C7 0.671573 7.67157 0 8.5 0C9.32843 0 10 0.671573 10 1.5V4H26V1.5C26 0.671573 26.6716 0 27.5 0Z" fill="#3366FF"/>
<path d="M19.9521 28.5352H21.8877V30.7998H15.1074V28.5352H17.2979V22.7119L17.3125 22.4746L15.8037 23.8477L15.6025 23.6182L14.417 22.2686L14.2178 22.041L14.4473 21.8428L17.6865 19.0527L17.7715 18.9805H19.9521V28.5352ZM21.5869 28.835L21.5879 30.5V28.835H21.5869Z" fill="#3366FF"/>
</g>
<defs>
<clipPath id="clip0_707_5277">
<rect width="36" height="36" fill="white"/>
</clipPath>
</defs>
</svg>
