<svg width="30" height="30" viewBox="0 0 30 30" fill="none" xmlns="http://www.w3.org/2000/svg">
<path d="M4 9.125C4 7.39911 5.36802 6 7.05556 6H22.9444C24.632 6 26 7.39911 26 9.125V22.875C26 24.6009 24.632 26 22.9444 26H7.05556C5.36802 26 4 24.6009 4 22.875V9.125Z" fill="white"/>
<path d="M22.9444 24.75V26H7.05556V24.75H22.9444ZM24.7778 22.875V9.125C24.7778 8.08947 23.957 7.25 22.9444 7.25H7.05556C6.04303 7.25 5.22222 8.08947 5.22222 9.125V22.875C5.22222 23.9105 6.04303 24.75 7.05556 24.75V26C5.36802 26 4 24.6009 4 22.875V9.125C4 7.39911 5.36802 6 7.05556 6H22.9444L23.1014 6.00427C24.716 6.08783 26 7.45295 26 9.125V22.875L25.9958 23.0355C25.9168 24.6336 24.664 25.9149 23.1014 25.9957L22.9444 26V24.75C23.957 24.75 24.7778 23.9105 24.7778 22.875Z" fill="#3366FF"/>
<path d="M20.8056 4C21.3118 4 21.7222 4.37776 21.7222 4.84375V6.25H22.9444C24.632 6.25 26 7.5092 26 9.0625V13H4V9.0625C4 7.5092 5.36802 6.25 7.05556 6.25H8.27778V4.84375C8.27778 4.37776 8.68818 4 9.19444 4C9.70071 4 10.1111 4.37776 10.1111 4.84375V6.25H19.8889V4.84375C19.8889 4.37776 20.2993 4 20.8056 4Z" fill="#3366FF"/>
<path d="M15.9906 20.8504H17V22H13.464V20.8504H14.6063V17.8942L14.614 17.7738L13.8271 18.4708L13.7222 18.3543L13.1039 17.6692L13 17.5537L13.1197 17.453L14.809 16.0367L14.8533 16H15.9906V20.8504ZM16.8431 21.0026L16.8436 21.8478V21.0026H16.8431Z" fill="#3366FF"/>
</svg>
