<svg width="30" height="30" viewBox="0 0 30 30" fill="none" xmlns="http://www.w3.org/2000/svg">
<rect x="4.75" y="7.19444" width="20.5" height="18.0556" rx="3.25" fill="white" stroke="#3366FF" stroke-width="1.5"/>
<path d="M20.8057 4C21.3119 4.00007 21.7227 4.41078 21.7227 4.91699V6.44434H22C24.2091 6.44434 25.9999 8.23525 26 10.4443V13.7773H4V10.4443C4.00006 8.23525 5.7909 6.44434 8 6.44434H8.27734V4.91699C8.27734 4.41078 8.68814 4.00007 9.19434 4C9.7006 4 10.1113 4.41073 10.1113 4.91699V6.44434H19.8887V4.91699C19.8887 4.41073 20.2994 4 20.8057 4Z" fill="#3366FF"/>
<path d="M18.0227 18.9757L17.2849 22.0847C17.2722 22.1519 17.2498 22.1917 17.2179 22.2039C17.1923 22.2161 17.138 22.2222 17.055 22.2222H16.2215C16.1385 22.2222 16.0842 22.2131 16.0586 22.1947C16.0394 22.1825 16.0235 22.1458 16.0107 22.0847L15.3113 18.9757H14.6982L14.0083 22.0847C13.9956 22.1458 13.9764 22.1825 13.9509 22.1947C13.9317 22.2131 13.8806 22.2222 13.7976 22.2222H12.9545C12.865 22.2222 12.8076 22.2131 12.782 22.1947C12.7629 22.1825 12.7469 22.1458 12.7341 22.0847L11.9868 18.9757H10.9138C10.8371 18.9757 10.786 18.9666 10.7605 18.9482C10.7349 18.9238 10.7222 18.8718 10.7222 18.7923V18.0953C10.7222 18.0159 10.7349 17.967 10.7605 17.9486C10.786 17.9242 10.8371 17.9119 10.9138 17.9119H11.7377L11.2395 15.7293C11.2204 15.6376 11.2204 15.5764 11.2395 15.5459C11.2651 15.5153 11.3353 15.5 11.4503 15.5H12.2168C12.2806 15.5 12.3285 15.5061 12.3605 15.5183C12.3924 15.5245 12.4148 15.5642 12.4275 15.6376L12.9353 17.9119H13.8551L14.3341 15.6376C14.3469 15.5703 14.3692 15.5306 14.4012 15.5183C14.4331 15.5061 14.4842 15.5 14.5544 15.5H15.4454C15.5157 15.5 15.5668 15.5061 15.5987 15.5183C15.6307 15.5306 15.653 15.5703 15.6658 15.6376L16.164 17.9119H17.1029L17.6011 15.6376C17.6139 15.5703 17.633 15.5306 17.6586 15.5183C17.6841 15.5061 17.7352 15.5 17.8119 15.5H18.5879C18.6901 15.5 18.7476 15.5153 18.7604 15.5459C18.7795 15.5703 18.7795 15.6314 18.7604 15.7293L18.2909 17.9119H19.0765C19.1659 17.9119 19.2202 17.9242 19.2394 17.9486C19.2649 17.9731 19.2777 18.022 19.2777 18.0953V18.7923C19.2777 18.8657 19.2649 18.9146 19.2394 18.9391C19.2202 18.9635 19.1659 18.9757 19.0765 18.9757H18.0227ZM14.8898 17.9119H15.1484L15.0143 17.1508L14.8898 17.9119ZM13.4143 20.3422L13.6539 18.9757H13.1748L13.4143 20.3422ZM16.6335 20.3514L16.873 18.9757H16.3844L16.6335 20.3514Z" fill="#3366FF"/>
</svg>
