<svg width="30" height="30" viewBox="0 0 30 30" fill="none" xmlns="http://www.w3.org/2000/svg">
<path d="M17.2031 22.9609C17.1562 22.5156 16.7969 22.25 16.2266 22.25C15.6328 22.25 15.3047 22.5234 15.2969 22.8984C15.2891 23.3047 15.7188 23.4922 16.2031 23.6016L16.7109 23.7266C17.6797 23.9453 18.4062 24.4375 18.4062 25.3828C18.4062 26.4219 17.5938 27.0781 16.2188 27.0781C14.8516 27.0781 13.9766 26.4453 13.9453 25.2344H15.0859C15.125 25.8047 15.5781 26.0938 16.2031 26.0938C16.8203 26.0938 17.2188 25.8047 17.2188 25.3828C17.2188 25 16.8672 24.8203 16.25 24.6641L15.6328 24.5156C14.6797 24.2812 14.0938 23.8047 14.0938 22.9766C14.0938 21.9453 15 21.2656 16.2344 21.2656C17.4844 21.2656 18.3125 21.9609 18.3281 22.9609H17.2031ZM22.6719 21.3438H23.8516V25.0156C23.8516 26.2578 22.9141 27.0781 21.5078 27.0781C20.1016 27.0781 19.1719 26.2578 19.1719 25.0156V21.3438H20.3438V24.9219C20.3438 25.5703 20.8047 26.0469 21.5078 26.0469C22.2188 26.0469 22.6719 25.5703 22.6719 24.9219V21.3438ZM29.5234 21.3438V27H28.5078L26.0234 23.4062H25.9766V27H24.8047V21.3438H25.8359L28.3047 24.9375H28.3594V21.3438H29.5234Z" fill="#333333"/>
<path d="M12 6C9 6 6 15 3 15V28H27V3C24 3 21 12 18 12C15 12 15 6 12 6Z" fill="url(#paint0_linear_14_3512)"/>
<path d="M3 15C6 15 9 6 12 6C15 6 15 12 18 12C21 12 24 3 27 3" stroke="#333333"/>
<defs>
<linearGradient id="paint0_linear_14_3512" x1="15" y1="3" x2="15" y2="28" gradientUnits="userSpaceOnUse">
<stop stop-opacity="0.1"/>
<stop offset="1" stop-opacity="0"/>
</linearGradient>
</defs>
</svg>
