<svg width="36" height="36" viewBox="0 0 36 36" fill="none" xmlns="http://www.w3.org/2000/svg">
<g clip-path="url(#clip0_708_5319)">
<rect x="1" y="5" width="34" height="30" rx="4" fill="white" stroke="#009999" stroke-width="2"/>
<path d="M27.5 0C28.3284 0 29 0.671573 29 1.5V4H31C33.7614 4 36 6.23858 36 9V16H0V9C1.28855e-07 6.23858 2.23858 4 5 4H7V1.5C7 0.671573 7.67157 0 8.5 0C9.32843 0 10 0.671573 10 1.5V4H26V1.5C26 0.671573 26.6716 0 27.5 0Z" fill="#009999"/>
<path d="M22.1553 20.8916L22.127 20.9521L17.5811 30.6279L17.501 30.7998H14.5459L14.7422 30.374C15.382 28.989 16.0525 27.654 16.7197 26.3252C17.3876 24.9951 18.0523 23.6713 18.6875 22.3037L18.6934 22.292L18.6992 22.2812C18.7259 22.2345 18.7712 22.1481 18.8262 22.0439C18.8636 21.9732 18.9064 21.8962 18.9453 21.8271V21.7656L19.0127 21.6973L19.0498 21.624C19.0513 21.6207 19.052 21.6167 19.0537 21.6133C19.0555 21.6096 19.0584 21.6064 19.0605 21.6025L19.0664 21.5908C19.0819 21.5599 19.0995 21.5302 19.1152 21.5H13.9951V19.0547H22.1553V20.8916Z" fill="#009999"/>
</g>
<defs>
<clipPath id="clip0_708_5319">
<rect width="36" height="36" fill="white"/>
</clipPath>
</defs>
</svg>
