<svg width="20" height="20" viewBox="0 0 20 20" fill="none" xmlns="http://www.w3.org/2000/svg">
<path d="M13.3577 2H6.65032C3.73687 2 2 3.736 2 6.648V13.344C2 16.264 3.73687 18 6.65032 18H13.3497C16.2631 18 18 16.264 18 13.352V6.648C18.008 3.736 16.2711 2 13.3577 2Z" fill="#3366FF"/>
<path d="M13.1177 6.88825C11.9331 5.71225 10.0122 5.71225 8.83559 6.88825C8.01117 7.70425 7.76305 8.88824 8.08321 9.92824L6.20227 11.8082C6.0742 11.9442 5.97816 12.2082 6.01017 12.4002L6.13023 13.2722C6.17025 13.5602 6.44239 13.8322 6.73053 13.8722L7.60297 14.0002C7.79506 14.0242 8.05919 13.9442 8.19526 13.8002L8.52343 13.4722C8.60347 13.4002 8.60347 13.2722 8.52343 13.1922L7.74704 12.4162C7.63498 12.3042 7.63498 12.1122 7.74704 11.9922C7.85909 11.8802 8.05119 11.8802 8.17125 11.9922L8.94764 12.7682C9.01968 12.8402 9.14774 12.8402 9.22778 12.7682L10.0762 11.9282C11.1087 12.2482 12.2933 12.0002 13.1177 11.1842C14.3023 9.99224 14.3023 8.07225 13.1177 6.88825ZM11.0047 10.0002C10.4524 10.0002 10.0042 9.55224 10.0042 9.00024C10.0042 8.44824 10.4524 8.00025 11.0047 8.00025C11.5569 8.00025 12.0052 8.44824 12.0052 9.00024C12.0052 9.55224 11.5569 10.0002 11.0047 10.0002Z" fill="white"/>
</svg>
